<svg width="70" height="70" viewBox="0 0 70 70" fill="none" xmlns="http://www.w3.org/2000/svg">
<rect width="70" height="70" rx="15" fill="url(#paint0_linear_118_154)"/>
<path d="M29.2578 23.4688C29.1016 24.6406 29.0234 25.8646 29.0234 27.1406C29.0234 28.8724 29.1471 30.6497 29.3945 32.4727C29.6419 34.2956 30.0195 36.0599 30.5273 37.7656C31.0352 39.4714 31.6732 41.0664 32.4414 42.5508C33.2227 44.0352 34.1406 45.2917 35.1953 46.3203C36.276 45.1354 37.2005 43.7943 37.9688 42.2969C38.75 40.7995 39.388 39.2305 39.8828 37.5898C40.3776 35.9492 40.7422 34.2695 40.9766 32.5508C41.2109 30.819 41.3281 29.1198 41.3281 27.4531C41.3281 26.75 41.3086 26.0664 41.2695 25.4023C41.2435 24.7383 41.1979 24.0807 41.1328 23.4297C42.2656 23.4818 43.2812 23.5599 44.1797 23.6641C45.0911 23.7682 45.8724 23.8724 46.5234 23.9766C47.2786 24.1068 47.9557 24.237 48.5547 24.3672V29.2891C48.138 29.1458 47.7279 29.0352 47.3242 28.957C46.9206 28.8659 46.5104 28.7682 46.0938 28.6641C46.0938 31.4635 45.8203 34.0612 45.2734 36.457C44.7396 38.8398 43.9909 41.0664 43.0273 43.1367C42.0638 45.207 40.9115 47.1276 39.5703 48.8984C38.2422 50.6693 36.7839 52.3229 35.1953 53.8594C33.5938 52.3229 32.1289 50.6693 30.8008 48.8984C29.4857 47.1276 28.3594 45.207 27.4219 43.1367C26.4844 41.0664 25.7552 38.8398 25.2344 36.457C24.7135 34.0612 24.4531 31.4635 24.4531 28.6641C23.9844 28.7682 23.5352 28.8659 23.1055 28.957C22.6758 29.0352 22.2526 29.1458 21.8359 29.2891V24.3281C21.8359 24.3411 22.0052 24.3151 22.3438 24.25C22.6953 24.1849 23.1901 24.1068 23.8281 24.0156C24.4792 23.9115 25.2604 23.8138 26.1719 23.7227C27.0833 23.6185 28.112 23.5339 29.2578 23.4688Z" fill="white"/>
<defs>
<linearGradient id="paint0_linear_118_154" x1="61.5886" y1="70" x2="8.41145" y2="3.35482e-06" gradientUnits="userSpaceOnUse">
<stop stop-color="#9876E2"/>
<stop offset="1" stop-color="#482496"/>
</linearGradient>
</defs>
</svg>
