<svg width="37" height="38" viewBox="0 0 37 38" fill="none" xmlns="http://www.w3.org/2000/svg">
<rect x="2.5" y="0.5" width="34" height="34.2653" stroke="#672FE0"/>
<path d="M28.25 29.3878V14.6939M19.5 29.3878V5.87756M10.75 29.3878V20.5714" stroke="white" stroke-width="4" stroke-linecap="round" stroke-linejoin="round"/>
<path d="M4.30206 3.93872C4.30206 2.97222 3.51856 2.18872 2.55206 2.18872C1.58556 2.18872 0.802063 2.97222 0.802063 3.93872H4.30206ZM2.55206 3.93872H0.802063L0.802063 36.9999H2.55206H4.30206L4.30206 3.93872H2.55206Z" fill="white"/>
<path d="M33.5626 37.5482C34.529 37.5422 35.3077 36.7539 35.3018 35.7874C35.2959 34.8209 34.5076 34.0423 33.5412 34.0483L33.5626 37.5482ZM1.43549 35.9977L1.44619 37.7476L33.5626 37.5482L33.5519 35.7982L33.5412 34.0483L1.42478 34.2477L1.43549 35.9977Z" fill="white"/>
</svg>
