<svg width="601" height="557" viewBox="0 0 601 557" fill="none" xmlns="http://www.w3.org/2000/svg">
<path d="M2.11914 28V7.84766H13.5078V10.8691H5.48242V16.2969H12.1816V19.2637H5.48242V24.9785H13.5078V28H2.11914ZM16.4883 28V13.4121H19.6465V15.2578H20.248L19.127 16.502C19.3457 15.7728 19.7012 15.1667 20.1934 14.6836C20.6947 14.1914 21.2826 13.8223 21.957 13.5762C22.6406 13.321 23.3743 13.1934 24.1582 13.1934C25.2702 13.1934 26.1908 13.444 26.9199 13.9453C27.6582 14.4466 28.2096 15.1029 28.5742 15.9141C28.9388 16.7253 29.1211 17.6048 29.1211 18.5527V28H25.8945V19.25C25.8945 18.1745 25.6302 17.3633 25.1016 16.8164C24.5729 16.2695 23.8529 15.9961 22.9414 15.9961C22.3398 15.9961 21.793 16.1237 21.3008 16.3789C20.8086 16.625 20.4212 16.9896 20.1387 17.4727C19.8561 17.9557 19.7148 18.5527 19.7148 19.2637V28H16.4883ZM38.2812 33.9609C37.151 33.9609 36.0938 33.8151 35.1094 33.5234C34.1341 33.2318 33.3594 32.9219 32.7852 32.5938L33.9199 29.9141C34.3757 30.2331 34.9772 30.5202 35.7246 30.7754C36.472 31.0306 37.2331 31.1582 38.0078 31.1582C38.6641 31.1582 39.334 31.0397 40.0176 30.8027C40.7103 30.5658 41.2936 30.1829 41.7676 29.6543C42.2415 29.1257 42.4785 28.4238 42.4785 27.5488V25.8945H42.041L42.6016 24.541V16.4883L41.7676 15.0254H42.5059V13.4121H45.5684V27.3711C45.5684 28.5013 45.3724 29.4766 44.9805 30.2969C44.5977 31.1263 44.069 31.8099 43.3945 32.3477C42.7201 32.8945 41.9408 33.3001 41.0566 33.5645C40.1816 33.8288 39.2565 33.9609 38.2812 33.9609ZM37.9805 27.918C37.1419 27.918 36.3353 27.7539 35.5605 27.4258C34.7858 27.0977 34.0885 26.6191 33.4688 25.9902C32.849 25.3613 32.3568 24.5911 31.9922 23.6797C31.6367 22.7591 31.459 21.7109 31.459 20.5352C31.459 18.9674 31.7734 17.6367 32.4023 16.543C33.0404 15.4492 33.8652 14.6198 34.877 14.0547C35.8887 13.4805 36.9642 13.1934 38.1035 13.1934C39.3431 13.1934 40.4323 13.5078 41.3711 14.1367C42.319 14.7656 43.0573 15.627 43.5859 16.7207C44.1146 17.8053 44.3789 19.0312 44.3789 20.3984C44.3789 21.8021 44.1009 23.0736 43.5449 24.2129C42.9889 25.3431 42.2279 26.2454 41.2617 26.9199C40.3047 27.5853 39.2109 27.918 37.9805 27.918ZM38.6504 25.1289C39.4069 25.1289 40.0814 24.9329 40.6738 24.541C41.2663 24.14 41.7311 23.5885 42.0684 22.8867C42.4056 22.1849 42.5742 21.3783 42.5742 20.4668C42.5742 19.5462 42.4056 18.7487 42.0684 18.0742C41.7311 17.3997 41.2663 16.8802 40.6738 16.5156C40.0905 16.1419 39.4206 15.9551 38.6641 15.9551C37.8893 15.9551 37.2012 16.1465 36.5996 16.5293C35.998 16.903 35.5286 17.4316 35.1914 18.1152C34.8542 18.7897 34.6855 19.5781 34.6855 20.4805C34.6855 21.3828 34.8542 22.1849 35.1914 22.8867C35.5286 23.5794 35.9935 24.1263 36.5859 24.5273C37.1875 24.9284 37.8757 25.1289 38.6504 25.1289ZM53.1016 28.2188C52.1536 28.2188 51.3105 28.0319 50.5723 27.6582C49.834 27.2754 49.2552 26.7559 48.8359 26.0996C48.4167 25.4342 48.207 24.6686 48.207 23.8027C48.207 22.8913 48.4531 22.1029 48.9453 21.4375C49.4375 20.763 50.1667 20.2435 51.1328 19.8789C52.099 19.5052 53.2793 19.3184 54.6738 19.3184H57.832V21.5742H54.7559C53.6621 21.5742 52.8145 21.752 52.2129 22.1074C51.6113 22.4629 51.3105 22.9915 51.3105 23.6934C51.3105 24.1126 51.4154 24.4681 51.625 24.7598C51.8346 25.0514 52.1217 25.2747 52.4863 25.4297C52.86 25.5846 53.2747 25.6621 53.7305 25.6621C54.2044 25.6621 54.724 25.5573 55.2891 25.3477C55.8542 25.138 56.3418 24.8145 56.752 24.377C57.1621 23.9395 57.3672 23.3835 57.3672 22.709V21.2051L57.1895 20.4258V18.6348C57.1895 18.3522 57.153 18.056 57.0801 17.7461C57.0163 17.4362 56.8841 17.1491 56.6836 16.8848C56.4922 16.6113 56.2142 16.3926 55.8496 16.2285C55.485 16.0553 55.0111 15.9688 54.4277 15.9688C53.9629 15.9688 53.4753 16.0234 52.9648 16.1328C52.4544 16.2331 51.9622 16.3743 51.4883 16.5566C51.0234 16.7389 50.6178 16.944 50.2715 17.1719L49.1641 14.5605C49.5833 14.3236 50.0892 14.1003 50.6816 13.8906C51.2832 13.681 51.9395 13.5124 52.6504 13.3848C53.3613 13.2572 54.0859 13.1934 54.8242 13.1934C56.0273 13.1934 56.9889 13.362 57.709 13.6992C58.4382 14.0365 58.985 14.4785 59.3496 15.0254C59.7142 15.5632 59.9557 16.1465 60.0742 16.7754C60.2018 17.3952 60.2656 17.9967 60.2656 18.5801V23.3516C60.2656 23.9258 60.3249 24.3678 60.4434 24.6777C60.571 24.9876 60.8034 25.2018 61.1406 25.3203L61.4414 25.4297L60.2656 28.2188L59.8418 28.0547C59.1491 27.7812 58.6204 27.4395 58.2559 27.0293C57.8913 26.6191 57.6953 26.209 57.668 25.7988L58.2832 26.1406H57.1895L57.9277 25.7578C57.5996 26.4232 56.998 27.002 56.123 27.4941C55.248 27.9772 54.2409 28.2188 53.1016 28.2188ZM69.8633 33.9609C68.7331 33.9609 67.6758 33.8151 66.6914 33.5234C65.7161 33.2318 64.9414 32.9219 64.3672 32.5938L65.502 29.9141C65.9577 30.2331 66.5592 30.5202 67.3066 30.7754C68.054 31.0306 68.8151 31.1582 69.5898 31.1582C70.2461 31.1582 70.916 31.0397 71.5996 30.8027C72.2923 30.5658 72.8757 30.1829 73.3496 29.6543C73.8236 29.1257 74.0605 28.4238 74.0605 27.5488V25.8945H73.623L74.1836 24.541V16.4883L73.3496 15.0254H74.0879V13.4121H77.1504V27.3711C77.1504 28.5013 76.9544 29.4766 76.5625 30.2969C76.1797 31.1263 75.651 31.8099 74.9766 32.3477C74.3021 32.8945 73.5228 33.3001 72.6387 33.5645C71.7637 33.8288 70.8385 33.9609 69.8633 33.9609ZM69.5625 27.918C68.724 27.918 67.9173 27.7539 67.1426 27.4258C66.3678 27.0977 65.6706 26.6191 65.0508 25.9902C64.431 25.3613 63.9388 24.5911 63.5742 23.6797C63.2188 22.7591 63.041 21.7109 63.041 20.5352C63.041 18.9674 63.3555 17.6367 63.9844 16.543C64.6224 15.4492 65.4473 14.6198 66.459 14.0547C67.4707 13.4805 68.5462 13.1934 69.6855 13.1934C70.9251 13.1934 72.0143 13.5078 72.9531 14.1367C73.901 14.7656 74.6393 15.627 75.168 16.7207C75.6966 17.8053 75.9609 19.0312 75.9609 20.3984C75.9609 21.8021 75.6829 23.0736 75.127 24.2129C74.571 25.3431 73.8099 26.2454 72.8438 26.9199C71.8867 27.5853 70.793 27.918 69.5625 27.918ZM70.2324 25.1289C70.9889 25.1289 71.6634 24.9329 72.2559 24.541C72.8483 24.14 73.3132 23.5885 73.6504 22.8867C73.9876 22.1849 74.1562 21.3783 74.1562 20.4668C74.1562 19.5462 73.9876 18.7487 73.6504 18.0742C73.3132 17.3997 72.8483 16.8802 72.2559 16.5156C71.6725 16.1419 71.0026 15.9551 70.2461 15.9551C69.4714 15.9551 68.7832 16.1465 68.1816 16.5293C67.5801 16.903 67.1107 17.4316 66.7734 18.1152C66.4362 18.7897 66.2676 19.5781 66.2676 20.4805C66.2676 21.3828 66.4362 22.1849 66.7734 22.8867C67.1107 23.5794 67.5755 24.1263 68.168 24.5273C68.7695 24.9284 69.4577 25.1289 70.2324 25.1289ZM87.0898 28.2188C85.6133 28.2188 84.3236 27.9043 83.2207 27.2754C82.1178 26.6374 81.2565 25.7533 80.6367 24.623C80.0169 23.4928 79.707 22.1895 79.707 20.7129C79.707 19.1816 80.0169 17.8555 80.6367 16.7344C81.2565 15.6133 82.0905 14.7474 83.1387 14.1367C84.1868 13.5169 85.349 13.207 86.625 13.207C87.8464 13.207 88.9492 13.4896 89.9336 14.0547C90.9271 14.6198 91.7155 15.4082 92.2988 16.4199C92.8822 17.4225 93.1738 18.5983 93.1738 19.9473C93.1738 20.2936 93.1556 20.6172 93.1191 20.918C93.0827 21.2188 93.0371 21.5195 92.9824 21.8203H82.127V19.5371H90.1523C90.1523 18.8444 90.0065 18.2292 89.7148 17.6914C89.4232 17.1445 89.013 16.7161 88.4844 16.4062C87.9557 16.0872 87.3359 15.9277 86.625 15.9277C85.8229 15.9277 85.1211 16.1283 84.5195 16.5293C83.9271 16.9212 83.4622 17.4727 83.125 18.1836C82.7969 18.8854 82.6328 19.7057 82.6328 20.6445C82.6328 21.6016 82.8105 22.4447 83.166 23.1738C83.5306 23.903 84.041 24.4727 84.6973 24.8828C85.3626 25.293 86.151 25.498 87.0625 25.498C87.582 25.498 88.0742 25.4342 88.5391 25.3066C89.0039 25.179 89.4277 25.015 89.8105 24.8145C90.1934 24.6048 90.5215 24.3861 90.7949 24.1582L91.9023 26.8105C91.3281 27.2207 90.6217 27.5579 89.7832 27.8223C88.9538 28.0866 88.056 28.2188 87.0898 28.2188ZM95.8262 28V13.4121H98.957V15.2031H99.4629L98.2871 16.625C98.6973 15.5312 99.3079 14.6882 100.119 14.0957C100.93 13.4941 101.883 13.1934 102.977 13.1934C103.997 13.1934 104.859 13.4531 105.561 13.9727C106.271 14.4831 106.773 15.1712 107.064 16.0371L106.203 15.2441H107.379L106.326 16.0371C106.782 15.0801 107.452 14.3691 108.336 13.9043C109.22 13.4303 110.182 13.1934 111.221 13.1934C112.105 13.1934 112.857 13.3438 113.477 13.6445C114.105 13.9453 114.611 14.3509 114.994 14.8613C115.386 15.3717 115.673 15.9505 115.855 16.5977C116.047 17.2357 116.143 17.8965 116.143 18.5801V28H112.902V19.0859C112.902 18.0742 112.674 17.3086 112.219 16.7891C111.763 16.2604 111.143 15.9961 110.359 15.9961C109.858 15.9961 109.398 16.11 108.979 16.3379C108.559 16.5658 108.222 16.9076 107.967 17.3633C107.721 17.819 107.598 18.3932 107.598 19.0859V28H104.371V19.0859C104.371 18.0742 104.139 17.3086 103.674 16.7891C103.218 16.2604 102.598 15.9961 101.814 15.9961C101.058 15.9961 100.406 16.2604 99.8594 16.7891C99.3216 17.3177 99.0527 18.1061 99.0527 19.1543V28H95.8262ZM125.891 28.2188C124.414 28.2188 123.124 27.9043 122.021 27.2754C120.919 26.6374 120.057 25.7533 119.438 24.623C118.818 23.4928 118.508 22.1895 118.508 20.7129C118.508 19.1816 118.818 17.8555 119.438 16.7344C120.057 15.6133 120.891 14.7474 121.939 14.1367C122.988 13.5169 124.15 13.207 125.426 13.207C126.647 13.207 127.75 13.4896 128.734 14.0547C129.728 14.6198 130.516 15.4082 131.1 16.4199C131.683 17.4225 131.975 18.5983 131.975 19.9473C131.975 20.2936 131.956 20.6172 131.92 20.918C131.883 21.2188 131.838 21.5195 131.783 21.8203H120.928V19.5371H128.953C128.953 18.8444 128.807 18.2292 128.516 17.6914C128.224 17.1445 127.814 16.7161 127.285 16.4062C126.757 16.0872 126.137 15.9277 125.426 15.9277C124.624 15.9277 123.922 16.1283 123.32 16.5293C122.728 16.9212 122.263 17.4727 121.926 18.1836C121.598 18.8854 121.434 19.7057 121.434 20.6445C121.434 21.6016 121.611 22.4447 121.967 23.1738C122.331 23.903 122.842 24.4727 123.498 24.8828C124.163 25.293 124.952 25.498 125.863 25.498C126.383 25.498 126.875 25.4342 127.34 25.3066C127.805 25.179 128.229 25.015 128.611 24.8145C128.994 24.6048 129.322 24.3861 129.596 24.1582L130.703 26.8105C130.129 27.2207 129.423 27.5579 128.584 27.8223C127.755 28.0866 126.857 28.2188 125.891 28.2188ZM134.641 28V13.4121H137.799V15.2578H138.4L137.279 16.502C137.498 15.7728 137.854 15.1667 138.346 14.6836C138.847 14.1914 139.435 13.8223 140.109 13.5762C140.793 13.321 141.527 13.1934 142.311 13.1934C143.423 13.1934 144.343 13.444 145.072 13.9453C145.811 14.4466 146.362 15.1029 146.727 15.9141C147.091 16.7253 147.273 17.6048 147.273 18.5527V28H144.047V19.25C144.047 18.1745 143.783 17.3633 143.254 16.8164C142.725 16.2695 142.005 15.9961 141.094 15.9961C140.492 15.9961 139.945 16.1237 139.453 16.3789C138.961 16.625 138.574 16.9896 138.291 17.4727C138.008 17.9557 137.867 18.5527 137.867 19.2637V28H134.641ZM156.283 28.2188C154.734 28.2188 153.562 27.7812 152.77 26.9062C151.986 26.0312 151.594 24.9102 151.594 23.543V8.92773H154.82V23.3105C154.82 24.0124 154.984 24.5273 155.312 24.8555C155.641 25.1836 156.051 25.3477 156.543 25.3477C156.762 25.3477 156.967 25.3203 157.158 25.2656C157.35 25.2018 157.523 25.1289 157.678 25.0469L158.785 27.6855C158.448 27.8496 158.07 27.9772 157.65 28.0684C157.231 28.1686 156.775 28.2188 156.283 28.2188ZM149.188 16.1055V13.4121H158.32V16.1055H149.188ZM174.645 28.2188C173.523 28.2188 172.48 28 171.514 27.5625C170.557 27.1159 169.741 26.5326 169.066 25.8125C168.392 25.0833 167.918 24.3086 167.645 23.4883L170.803 22.1484C170.976 22.6497 171.236 23.1328 171.582 23.5977C171.938 24.0534 172.366 24.4271 172.867 24.7188C173.378 25.0104 173.952 25.1562 174.59 25.1562C175.146 25.1562 175.665 25.0378 176.148 24.8008C176.632 24.5638 177.019 24.2357 177.311 23.8164C177.611 23.388 177.762 22.9095 177.762 22.3809C177.762 21.8158 177.607 21.3372 177.297 20.9453C176.987 20.5443 176.6 20.2116 176.135 19.9473C175.679 19.6829 175.21 19.4642 174.727 19.291C174.253 19.1087 173.838 18.9583 173.482 18.8398C172.58 18.5299 171.737 18.1289 170.953 17.6367C170.169 17.1354 169.536 16.5065 169.053 15.75C168.57 14.9935 168.328 14.0729 168.328 12.9883C168.328 11.8945 168.579 10.9466 169.08 10.1445C169.59 9.34245 170.292 8.72266 171.186 8.28516C172.088 7.84766 173.122 7.62891 174.289 7.62891C175.383 7.62891 176.34 7.80664 177.16 8.16211C177.98 8.51758 178.669 8.99154 179.225 9.58398C179.79 10.1673 180.218 10.8008 180.51 11.4844L177.461 12.7148C177.333 12.4505 177.128 12.1589 176.846 11.8398C176.572 11.5208 176.221 11.2428 175.793 11.0059C175.374 10.7689 174.882 10.6504 174.316 10.6504C173.642 10.6504 173.027 10.8509 172.471 11.252C171.915 11.6439 171.637 12.2318 171.637 13.0156C171.637 13.5443 171.769 13.9954 172.033 14.3691C172.307 14.7428 172.648 15.0618 173.059 15.3262C173.469 15.5814 173.893 15.7956 174.33 15.9688C174.777 16.1419 175.173 16.2878 175.52 16.4062C175.921 16.5339 176.431 16.7298 177.051 16.9941C177.671 17.2493 178.286 17.6003 178.896 18.0469C179.507 18.4935 180.022 19.0632 180.441 19.7559C180.861 20.4486 181.07 21.2962 181.07 22.2988C181.07 23.4382 180.779 24.4544 180.195 25.3477C179.621 26.2409 178.846 26.9427 177.871 27.4531C176.905 27.9635 175.829 28.2188 174.645 28.2188ZM184.037 33.7422V13.4121H187.168V15.1074H187.592L186.881 16.5566V24.623L187.797 26.291H187.264V33.7422H184.037ZM191.68 28.2188C190.458 28.2188 189.365 27.8861 188.398 27.2207C187.441 26.5553 186.685 25.6484 186.129 24.5C185.573 23.3516 185.29 22.0618 185.281 20.6309C185.29 19.1999 185.564 17.9238 186.102 16.8027C186.648 15.6725 187.396 14.7839 188.344 14.1367C189.301 13.4896 190.395 13.166 191.625 13.166C192.764 13.166 193.835 13.4622 194.838 14.0547C195.84 14.6471 196.647 15.5039 197.258 16.625C197.878 17.7461 198.178 19.1087 198.16 20.7129C198.169 21.9069 197.996 22.9733 197.641 23.9121C197.285 24.8418 196.802 25.6257 196.191 26.2637C195.581 26.9017 194.883 27.3893 194.1 27.7266C193.325 28.0547 192.518 28.2188 191.68 28.2188ZM191.01 25.4297C191.775 25.4297 192.459 25.2246 193.061 24.8145C193.662 24.4043 194.127 23.8438 194.455 23.1328C194.792 22.4128 194.956 21.5924 194.947 20.6719C194.956 19.724 194.792 18.8991 194.455 18.1973C194.118 17.4863 193.644 16.9349 193.033 16.543C192.432 16.151 191.743 15.9596 190.969 15.9688C190.24 15.9596 189.579 16.1465 188.986 16.5293C188.403 16.903 187.934 17.4408 187.578 18.1426C187.232 18.8444 187.059 19.6875 187.059 20.6719C187.059 21.5924 187.227 22.4128 187.564 23.1328C187.911 23.8438 188.38 24.4043 188.973 24.8145C189.565 25.2246 190.244 25.4297 191.01 25.4297ZM200.812 28V13.4121H204.039V28H200.812ZM202.426 11.375C201.815 11.375 201.3 11.1654 200.881 10.7461C200.471 10.3268 200.266 9.81641 200.266 9.21484C200.266 8.61328 200.471 8.10286 200.881 7.68359C201.3 7.26432 201.815 7.05469 202.426 7.05469C203.027 7.05469 203.538 7.26432 203.957 7.68359C204.376 8.10286 204.586 8.61328 204.586 9.21484C204.586 9.81641 204.376 10.3268 203.957 10.7461C203.538 11.1654 203.027 11.375 202.426 11.375ZM207.443 28V6.94531H210.67V19.2773H211.846L210.656 19.9336L216.439 13.3984H220.432L213.268 21.2734V19.4551L220.814 28H216.85L210.629 20.877L211.846 21.5605H210.67V28H207.443ZM228.129 28.2188C226.652 28.2188 225.363 27.9043 224.26 27.2754C223.157 26.6374 222.296 25.7533 221.676 24.623C221.056 23.4928 220.746 22.1895 220.746 20.7129C220.746 19.1816 221.056 17.8555 221.676 16.7344C222.296 15.6133 223.13 14.7474 224.178 14.1367C225.226 13.5169 226.388 13.207 227.664 13.207C228.885 13.207 229.988 13.4896 230.973 14.0547C231.966 14.6198 232.755 15.4082 233.338 16.4199C233.921 17.4225 234.213 18.5983 234.213 19.9473C234.213 20.2936 234.195 20.6172 234.158 20.918C234.122 21.2188 234.076 21.5195 234.021 21.8203H223.166V19.5371H231.191C231.191 18.8444 231.046 18.2292 230.754 17.6914C230.462 17.1445 230.052 16.7161 229.523 16.4062C228.995 16.0872 228.375 15.9277 227.664 15.9277C226.862 15.9277 226.16 16.1283 225.559 16.5293C224.966 16.9212 224.501 17.4727 224.164 18.1836C223.836 18.8854 223.672 19.7057 223.672 20.6445C223.672 21.6016 223.85 22.4447 224.205 23.1738C224.57 23.903 225.08 24.4727 225.736 24.8828C226.402 25.293 227.19 25.498 228.102 25.498C228.621 25.498 229.113 25.4342 229.578 25.3066C230.043 25.179 230.467 25.015 230.85 24.8145C231.232 24.6048 231.561 24.3861 231.834 24.1582L232.941 26.8105C232.367 27.2207 231.661 27.5579 230.822 27.8223C229.993 28.0866 229.095 28.2188 228.129 28.2188ZM241.377 28.2188C240.502 28.2188 239.691 28.0592 238.943 27.7402C238.196 27.4212 237.553 26.9974 237.016 26.4688C236.487 25.931 236.104 25.3477 235.867 24.7188L238.602 23.543C238.802 24.0534 239.153 24.5091 239.654 24.9102C240.165 25.3112 240.739 25.5117 241.377 25.5117C241.769 25.5117 242.129 25.4388 242.457 25.293C242.785 25.138 243.049 24.9329 243.25 24.6777C243.451 24.4225 243.551 24.14 243.551 23.8301C243.551 23.4837 243.432 23.1875 243.195 22.9414C242.967 22.6862 242.676 22.472 242.32 22.2988C241.974 22.1257 241.609 21.9798 241.227 21.8613C240.853 21.7428 240.525 21.638 240.242 21.5469C239.622 21.3555 239.007 21.0911 238.396 20.7539C237.795 20.4167 237.294 19.9746 236.893 19.4277C236.492 18.8717 236.291 18.1745 236.291 17.3359C236.291 16.4883 236.51 15.7546 236.947 15.1348C237.385 14.5059 237.968 14.0273 238.697 13.6992C239.426 13.362 240.233 13.1934 241.117 13.1934C242.339 13.1934 243.391 13.4896 244.275 14.082C245.16 14.6654 245.784 15.3672 246.148 16.1875L243.469 17.3086C243.286 16.9714 243.013 16.6432 242.648 16.3242C242.284 16.0052 241.801 15.8457 241.199 15.8457C240.68 15.8457 240.233 15.9824 239.859 16.2559C239.495 16.5202 239.312 16.8939 239.312 17.377C239.312 17.7871 239.445 18.1198 239.709 18.375C239.982 18.6211 240.342 18.8307 240.789 19.0039C241.236 19.168 241.719 19.3366 242.238 19.5098C242.621 19.6283 243.054 19.7878 243.537 19.9883C244.029 20.1797 244.503 20.4349 244.959 20.7539C245.424 21.0729 245.802 21.4785 246.094 21.9707C246.395 22.4538 246.545 23.0462 246.545 23.748C246.545 24.623 246.308 25.3978 245.834 26.0723C245.36 26.7467 244.731 27.2754 243.947 27.6582C243.163 28.0319 242.307 28.2188 241.377 28.2188Z" fill="#1E1E1E"/>
<path d="M2.12109 76V58.7266H4.61719V76H2.12109ZM19.3711 76.1875C18.8711 75.9688 18.4648 75.7422 18.1523 75.5078C17.8398 75.2734 17.6055 75.0156 17.4492 74.7344C17.293 74.4531 17.207 74.1328 17.1914 73.7734L17.6953 74.043H16.5703L17.1797 72.6367V66.2031L16.5938 64.9492H16.8633V57.9531H19.2539V72.3555C19.2539 72.8555 19.3203 73.2266 19.4531 73.4688C19.5938 73.7031 19.8633 73.9062 20.2617 74.0781L19.3711 76.1875ZM12.9961 76.1875C12.2539 76.1875 11.5469 76.043 10.875 75.7539C10.2031 75.457 9.60547 75.0312 9.08203 74.4766C8.56641 73.9219 8.15625 73.25 7.85156 72.4609C7.55469 71.6641 7.41016 70.7617 7.41797 69.7539C7.41016 68.418 7.66406 67.2695 8.17969 66.3086C8.70312 65.3477 9.39062 64.6133 10.2422 64.1055C11.1016 63.5898 12.0273 63.332 13.0195 63.332C14.0664 63.332 14.9961 63.6055 15.8086 64.1523C16.6211 64.6992 17.2578 65.4531 17.7188 66.4141C18.1875 67.375 18.4258 68.4805 18.4336 69.7305C18.4258 70.957 18.1875 72.0586 17.7188 73.0352C17.25 74.0117 16.6055 74.7812 15.7852 75.3438C14.9727 75.9062 14.043 76.1875 12.9961 76.1875ZM13.4648 74.0781C14.1523 74.0781 14.7656 73.8906 15.3047 73.5156C15.8516 73.1406 16.2812 72.6289 16.5938 71.9805C16.9062 71.3242 17.0625 70.5781 17.0625 69.7422C17.0625 68.8516 16.8984 68.0859 16.5703 67.4453C16.25 66.7969 15.8164 66.3008 15.2695 65.957C14.7305 65.6133 14.1328 65.4414 13.4766 65.4414C12.7656 65.4414 12.1328 65.6211 11.5781 65.9805C11.0234 66.3398 10.5898 66.8438 10.2773 67.4922C9.96484 68.1406 9.8125 68.8906 9.82031 69.7422C9.8125 70.5781 9.96484 71.3242 10.2773 71.9805C10.5898 72.6289 11.0195 73.1406 11.5664 73.5156C12.1211 73.8906 12.7539 74.0781 13.4648 74.0781ZM28.0898 76.1875C26.8789 76.1875 25.8086 75.9219 24.8789 75.3906C23.957 74.8516 23.2344 74.1016 22.7109 73.1406C22.1875 72.1719 21.9258 71.043 21.9258 69.7539C21.9258 68.4492 22.1836 67.3203 22.6992 66.3672C23.2148 65.4141 23.9141 64.6758 24.7969 64.1523C25.6797 63.6211 26.6641 63.3555 27.75 63.3555C28.8125 63.3555 29.7578 63.5977 30.5859 64.082C31.4219 64.5664 32.082 65.2422 32.5664 66.1094C33.0508 66.9688 33.293 67.9648 33.293 69.0977C33.293 69.4102 33.2734 69.6992 33.2344 69.9648C33.2031 70.2227 33.168 70.4492 33.1289 70.6445H23.7305V68.8398H31.0078C31.0078 68.2148 30.875 67.6484 30.6094 67.1406C30.3438 66.625 29.9648 66.2188 29.4727 65.9219C28.9883 65.6172 28.4141 65.4648 27.75 65.4648C27.0391 65.4648 26.4141 65.6445 25.875 66.0039C25.3359 66.3555 24.9141 66.8516 24.6094 67.4922C24.3125 68.1328 24.1641 68.8789 24.1641 69.7305C24.1641 70.5977 24.3242 71.3594 24.6445 72.0156C24.9648 72.6641 25.4219 73.1719 26.0156 73.5391C26.6094 73.8984 27.3125 74.0781 28.125 74.0781C28.5938 74.0781 29.0312 74.0195 29.4375 73.9023C29.8438 73.7852 30.207 73.6367 30.5273 73.457C30.8477 73.2695 31.1211 73.082 31.3477 72.8945L32.2148 74.9453C31.7305 75.2891 31.1289 75.582 30.4102 75.8242C29.6992 76.0664 28.9258 76.1875 28.0898 76.1875ZM35.7656 76V63.5312H38.1328V65.0898H38.6133L37.7109 66.0508C37.9062 65.4648 38.2109 64.9727 38.625 64.5742C39.0469 64.168 39.543 63.8633 40.1133 63.6602C40.6914 63.4492 41.3086 63.3438 41.9648 63.3438C42.9727 63.3438 43.793 63.5664 44.4258 64.0117C45.0664 64.457 45.5352 65.0312 45.832 65.7344C46.1367 66.4375 46.2891 67.1797 46.2891 67.9609V76H43.8984V68.4766C43.8984 67.4844 43.6523 66.7383 43.1602 66.2383C42.6758 65.7383 42.0117 65.4883 41.168 65.4883C40.6055 65.4883 40.0938 65.6055 39.6328 65.8398C39.1797 66.0664 38.8203 66.4023 38.5547 66.8477C38.2891 67.293 38.1562 67.8359 38.1562 68.4766V76H35.7656ZM53.9531 76.1875C52.7031 76.1875 51.7617 75.832 51.1289 75.1211C50.4961 74.4023 50.1797 73.4844 50.1797 72.3672V59.6172H52.5703V72.168C52.5703 72.7852 52.7109 73.25 52.9922 73.5625C53.2812 73.8672 53.6484 74.0195 54.0938 74.0195C54.2891 74.0195 54.4688 73.9922 54.6328 73.9375C54.7969 73.8828 54.9492 73.8203 55.0898 73.75L55.9453 75.7656C55.6797 75.8828 55.3828 75.9805 55.0547 76.0586C54.7344 76.1445 54.3672 76.1875 53.9531 76.1875ZM48.1172 65.6055V63.5312H55.6055V65.6055H48.1172ZM58.1133 76V63.543H60.5039V76H58.1133ZM59.3086 61.668C58.832 61.668 58.4297 61.5039 58.1016 61.1758C57.7812 60.8477 57.6211 60.4492 57.6211 59.9805C57.6211 59.5117 57.7812 59.1133 58.1016 58.7852C58.4297 58.457 58.832 58.293 59.3086 58.293C59.7773 58.293 60.1758 58.457 60.5039 58.7852C60.832 59.1133 60.9961 59.5117 60.9961 59.9805C60.9961 60.4492 60.832 60.8477 60.5039 61.1758C60.1758 61.5039 59.7773 61.668 59.3086 61.668ZM62.7422 65.6641V63.543H70.4062V65.6641H62.7422ZM64.957 76V61.5508C64.957 60.4258 65.2852 59.5078 65.9414 58.7969C66.5977 58.0859 67.5586 57.7305 68.8242 57.7305C69.2305 57.7305 69.5938 57.7656 69.9141 57.8359C70.2422 57.8984 70.5352 57.9883 70.793 58.1055L69.9375 60.168C69.7969 60.0664 69.6328 60 69.4453 59.9688C69.2656 59.9297 69.0859 59.9102 68.9062 59.9102C68.4219 59.9102 68.0391 60.0703 67.7578 60.3906C67.4844 60.7031 67.3477 61.1562 67.3477 61.75V76H64.957ZM74.0508 81.1094C73.5742 81.1094 73.1211 81.0547 72.6914 80.9453C72.2617 80.8438 71.9492 80.7461 71.7539 80.6523L72.6328 78.5664C72.8672 78.6836 73.1094 78.7773 73.3594 78.8477C73.6172 78.9258 73.8555 78.9648 74.0742 78.9648C74.5273 78.9727 74.8984 78.8633 75.1875 78.6367C75.4844 78.418 75.7109 78.1602 75.8672 77.8633C76.0312 77.5664 76.1484 77.3086 76.2188 77.0898L76.8398 75.2031L76.8164 76.5859L71.4141 63.543H73.9922L76.793 70.9844L77.6719 73.375H77.7656L78.5625 70.9844L81.1289 63.543H83.6484L78.3047 77.6641C78.1953 77.9609 78.043 78.3047 77.8477 78.6953C77.6602 79.0859 77.4062 79.4648 77.0859 79.832C76.7656 80.1992 76.3594 80.5039 75.8672 80.7461C75.3828 80.9883 74.7773 81.1094 74.0508 81.1094ZM94.1953 76L90.5625 63.543H93.0117L94.7109 70.0234L95.4375 72.9297H95.5312L96.4453 70.5156L98.7422 64.3633H99.9492L102.234 70.5156L103.148 72.9297H103.242L103.992 70.0234L105.691 63.543H108.129L104.473 76H102.34L101.086 72.7656L99.3867 68.418H99.293L97.5938 72.7656L96.3398 76H94.1953ZM110.203 76V57.9531H112.594V64.9023H113.098L112.113 65.9102C112.301 65.3633 112.598 64.8984 113.004 64.5156C113.418 64.1328 113.91 63.8438 114.48 63.6484C115.051 63.4531 115.668 63.3555 116.332 63.3555C117.371 63.3555 118.211 63.582 118.852 64.0352C119.5 64.4805 119.973 65.0547 120.27 65.7578C120.566 66.4609 120.715 67.1953 120.715 67.9609V76H118.324V68.4766C118.324 67.4844 118.07 66.7383 117.562 66.2383C117.062 65.7383 116.398 65.4883 115.57 65.4883C115.016 65.4883 114.512 65.6016 114.059 65.8281C113.613 66.0469 113.258 66.3789 112.992 66.8242C112.727 67.2695 112.594 67.8203 112.594 68.4766V76H110.203ZM129.105 76.1875C127.895 76.1875 126.824 75.9219 125.895 75.3906C124.973 74.8516 124.25 74.1016 123.727 73.1406C123.203 72.1719 122.941 71.043 122.941 69.7539C122.941 68.4492 123.199 67.3203 123.715 66.3672C124.23 65.4141 124.93 64.6758 125.812 64.1523C126.695 63.6211 127.68 63.3555 128.766 63.3555C129.828 63.3555 130.773 63.5977 131.602 64.082C132.438 64.5664 133.098 65.2422 133.582 66.1094C134.066 66.9688 134.309 67.9648 134.309 69.0977C134.309 69.4102 134.289 69.6992 134.25 69.9648C134.219 70.2227 134.184 70.4492 134.145 70.6445H124.746V68.8398H132.023C132.023 68.2148 131.891 67.6484 131.625 67.1406C131.359 66.625 130.98 66.2188 130.488 65.9219C130.004 65.6172 129.43 65.4648 128.766 65.4648C128.055 65.4648 127.43 65.6445 126.891 66.0039C126.352 66.3555 125.93 66.8516 125.625 67.4922C125.328 68.1328 125.18 68.8789 125.18 69.7305C125.18 70.5977 125.34 71.3594 125.66 72.0156C125.98 72.6641 126.438 73.1719 127.031 73.5391C127.625 73.8984 128.328 74.0781 129.141 74.0781C129.609 74.0781 130.047 74.0195 130.453 73.9023C130.859 73.7852 131.223 73.6367 131.543 73.457C131.863 73.2695 132.137 73.082 132.363 72.8945L133.23 74.9453C132.746 75.2891 132.145 75.582 131.426 75.8242C130.715 76.0664 129.941 76.1875 129.105 76.1875ZM136.781 76V63.5312H139.148V65.0898H139.629L138.727 66.0508C138.922 65.4648 139.227 64.9727 139.641 64.5742C140.062 64.168 140.559 63.8633 141.129 63.6602C141.707 63.4492 142.324 63.3438 142.98 63.3438C143.988 63.3438 144.809 63.5664 145.441 64.0117C146.082 64.457 146.551 65.0312 146.848 65.7344C147.152 66.4375 147.305 67.1797 147.305 67.9609V76H144.914V68.4766C144.914 67.4844 144.668 66.7383 144.176 66.2383C143.691 65.7383 143.027 65.4883 142.184 65.4883C141.621 65.4883 141.109 65.6055 140.648 65.8398C140.195 66.0664 139.836 66.4023 139.57 66.8477C139.305 67.293 139.172 67.8359 139.172 68.4766V76H136.781ZM157.934 81.1094C157.457 81.1094 157.004 81.0547 156.574 80.9453C156.145 80.8438 155.832 80.7461 155.637 80.6523L156.516 78.5664C156.75 78.6836 156.992 78.7773 157.242 78.8477C157.5 78.9258 157.738 78.9648 157.957 78.9648C158.41 78.9727 158.781 78.8633 159.07 78.6367C159.367 78.418 159.594 78.1602 159.75 77.8633C159.914 77.5664 160.031 77.3086 160.102 77.0898L160.723 75.2031L160.699 76.5859L155.297 63.543H157.875L160.676 70.9844L161.555 73.375H161.648L162.445 70.9844L165.012 63.543H167.531L162.188 77.6641C162.078 77.9609 161.926 78.3047 161.73 78.6953C161.543 79.0859 161.289 79.4648 160.969 79.832C160.648 80.1992 160.242 80.5039 159.75 80.7461C159.266 80.9883 158.66 81.1094 157.934 81.1094ZM174.551 76.1875C173.379 76.1875 172.328 75.9141 171.398 75.3672C170.469 74.8203 169.734 74.0586 169.195 73.082C168.656 72.1055 168.387 70.9805 168.387 69.707C168.387 68.457 168.656 67.3555 169.195 66.4023C169.734 65.4414 170.469 64.6953 171.398 64.1641C172.328 63.625 173.379 63.3555 174.551 63.3555C175.738 63.3555 176.797 63.625 177.727 64.1641C178.656 64.6953 179.387 65.4414 179.918 66.4023C180.449 67.3555 180.715 68.457 180.715 69.707C180.715 70.9805 180.445 72.1055 179.906 73.082C179.367 74.0586 178.633 74.8203 177.703 75.3672C176.773 75.9141 175.723 76.1875 174.551 76.1875ZM174.551 74.0312C175.285 74.0312 175.938 73.8516 176.508 73.4922C177.078 73.125 177.523 72.6211 177.844 71.9805C178.164 71.332 178.324 70.5742 178.324 69.707C178.324 68.8711 178.164 68.1367 177.844 67.5039C177.523 66.8711 177.078 66.3828 176.508 66.0391C175.938 65.6875 175.285 65.5117 174.551 65.5117C173.832 65.5117 173.188 65.6875 172.617 66.0391C172.047 66.3828 171.598 66.8711 171.27 67.5039C170.941 68.1289 170.777 68.8633 170.777 69.707C170.777 70.5742 170.938 71.332 171.258 71.9805C171.586 72.6211 172.031 73.125 172.594 73.4922C173.164 73.8516 173.816 74.0312 174.551 74.0312ZM187.676 76.1875C186.77 76.1875 185.965 75.9961 185.262 75.6133C184.566 75.2227 184.02 74.6602 183.621 73.9258C183.223 73.1914 183.023 72.3008 183.023 71.2539V63.543H185.414V71.0781C185.414 72.0625 185.684 72.8008 186.223 73.293C186.762 73.7852 187.41 74.0312 188.168 74.0312C188.754 74.0312 189.27 73.9023 189.715 73.6445C190.16 73.3789 190.504 73.0234 190.746 72.5781C190.996 72.125 191.121 71.625 191.121 71.0781V63.543H193.512V72.2852C193.512 72.8086 193.578 73.1992 193.711 73.457C193.844 73.7148 194.113 73.9219 194.52 74.0781L193.629 76.1875C192.98 75.9219 192.469 75.5859 192.094 75.1797C191.727 74.7734 191.539 74.3438 191.531 73.8906L192.457 74.4062H190.887L192.094 73.6211C191.734 74.3086 191.188 74.9102 190.453 75.4258C189.719 75.9336 188.793 76.1875 187.676 76.1875ZM196.852 76V63.543H199.219V65.4062H199.547L198.832 66.2031C199.051 65.7188 199.352 65.2578 199.734 64.8203C200.125 64.3828 200.594 64.0312 201.141 63.7656C201.695 63.4922 202.332 63.3555 203.051 63.3555C203.332 63.3555 203.594 63.375 203.836 63.4141C204.078 63.4531 204.25 63.4922 204.352 63.5312L203.379 65.8398C203.324 65.8086 203.211 65.7812 203.039 65.7578C202.867 65.7266 202.676 65.7109 202.465 65.7109C202.121 65.7109 201.762 65.7852 201.387 65.9336C201.012 66.082 200.66 66.2969 200.332 66.5781C200.012 66.8516 199.75 67.1953 199.547 67.6094C199.344 68.0234 199.242 68.5 199.242 69.0391V76H196.852ZM215.426 76.1875C214.637 76.1875 213.93 76.0352 213.305 75.7305C212.68 75.418 212.188 74.9805 211.828 74.418C211.469 73.8555 211.289 73.1953 211.289 72.4375C211.289 71.6406 211.504 70.9531 211.934 70.375C212.371 69.7969 213.008 69.3555 213.844 69.0508C214.68 68.7461 215.695 68.5938 216.891 68.5938H219.539V70.3633H216.996C215.918 70.3633 215.082 70.5391 214.488 70.8906C213.902 71.2344 213.609 71.7383 213.609 72.4023C213.609 72.7852 213.707 73.1133 213.902 73.3867C214.098 73.6523 214.359 73.8594 214.688 74.0078C215.023 74.1484 215.398 74.2188 215.812 74.2188C216.273 74.2188 216.762 74.1172 217.277 73.9141C217.793 73.7109 218.234 73.4062 218.602 73C218.969 72.5859 219.152 72.0742 219.152 71.4648V70.1758L219.047 69.4844V68.0312C219.047 67.8047 219.023 67.5469 218.977 67.2578C218.938 66.9609 218.836 66.6797 218.672 66.4141C218.516 66.1406 218.27 65.9141 217.934 65.7344C217.598 65.5547 217.141 65.4648 216.562 65.4648C216.18 65.4648 215.766 65.5117 215.32 65.6055C214.883 65.6992 214.457 65.8281 214.043 65.9922C213.637 66.1562 213.277 66.3438 212.965 66.5547L212.109 64.5391C212.492 64.3125 212.941 64.1094 213.457 63.9297C213.973 63.7422 214.52 63.5977 215.098 63.4961C215.676 63.3945 216.254 63.3438 216.832 63.3438C217.77 63.3438 218.531 63.4766 219.117 63.7422C219.711 64.0078 220.168 64.3672 220.488 64.8203C220.809 65.2734 221.027 65.7734 221.145 66.3203C221.27 66.8672 221.332 67.4219 221.332 67.9844V72.2031C221.332 72.7109 221.387 73.1094 221.496 73.3984C221.605 73.6797 221.805 73.875 222.094 73.9844L222.34 74.0781L221.449 76.1875L221.109 76.0469C220.594 75.8359 220.18 75.5508 219.867 75.1914C219.555 74.832 219.391 74.4727 219.375 74.1133L219.832 74.3359H218.988L219.562 74.0078C219.266 74.6016 218.746 75.1133 218.004 75.543C217.27 75.9727 216.41 76.1875 215.426 76.1875ZM229.113 76.1875C228.207 76.1875 227.402 75.9961 226.699 75.6133C226.004 75.2227 225.457 74.6602 225.059 73.9258C224.66 73.1914 224.461 72.3008 224.461 71.2539V63.543H226.852V71.0781C226.852 72.0625 227.121 72.8008 227.66 73.293C228.199 73.7852 228.848 74.0312 229.605 74.0312C230.191 74.0312 230.707 73.9023 231.152 73.6445C231.598 73.3789 231.941 73.0234 232.184 72.5781C232.434 72.125 232.559 71.625 232.559 71.0781V63.543H234.949V72.2852C234.949 72.8086 235.016 73.1992 235.148 73.457C235.281 73.7148 235.551 73.9219 235.957 74.0781L235.066 76.1875C234.418 75.9219 233.906 75.5859 233.531 75.1797C233.164 74.7734 232.977 74.3438 232.969 73.8906L233.895 74.4062H232.324L233.531 73.6211C233.172 74.3086 232.625 74.9102 231.891 75.4258C231.156 75.9336 230.23 76.1875 229.113 76.1875ZM249.387 76.1875C248.887 75.9688 248.48 75.7422 248.168 75.5078C247.855 75.2734 247.621 75.0156 247.465 74.7344C247.309 74.4531 247.223 74.1328 247.207 73.7734L247.711 74.043H246.586L247.195 72.6367V66.2031L246.609 64.9492H246.879V57.9531H249.27V72.3555C249.27 72.8555 249.336 73.2266 249.469 73.4688C249.609 73.7031 249.879 73.9062 250.277 74.0781L249.387 76.1875ZM243.012 76.1875C242.27 76.1875 241.562 76.043 240.891 75.7539C240.219 75.457 239.621 75.0312 239.098 74.4766C238.582 73.9219 238.172 73.25 237.867 72.4609C237.57 71.6641 237.426 70.7617 237.434 69.7539C237.426 68.418 237.68 67.2695 238.195 66.3086C238.719 65.3477 239.406 64.6133 240.258 64.1055C241.117 63.5898 242.043 63.332 243.035 63.332C244.082 63.332 245.012 63.6055 245.824 64.1523C246.637 64.6992 247.273 65.4531 247.734 66.4141C248.203 67.375 248.441 68.4805 248.449 69.7305C248.441 70.957 248.203 72.0586 247.734 73.0352C247.266 74.0117 246.621 74.7812 245.801 75.3438C244.988 75.9062 244.059 76.1875 243.012 76.1875ZM243.48 74.0781C244.168 74.0781 244.781 73.8906 245.32 73.5156C245.867 73.1406 246.297 72.6289 246.609 71.9805C246.922 71.3242 247.078 70.5781 247.078 69.7422C247.078 68.8516 246.914 68.0859 246.586 67.4453C246.266 66.7969 245.832 66.3008 245.285 65.957C244.746 65.6133 244.148 65.4414 243.492 65.4414C242.781 65.4414 242.148 65.6211 241.594 65.9805C241.039 66.3398 240.605 66.8438 240.293 67.4922C239.98 68.1406 239.828 68.8906 239.836 69.7422C239.828 70.5781 239.98 71.3242 240.293 71.9805C240.605 72.6289 241.035 73.1406 241.582 73.5156C242.137 73.8906 242.77 74.0781 243.48 74.0781ZM252.855 76V63.543H255.246V76H252.855ZM254.051 61.668C253.574 61.668 253.172 61.5039 252.844 61.1758C252.523 60.8477 252.363 60.4492 252.363 59.9805C252.363 59.5117 252.523 59.1133 252.844 58.7852C253.172 58.457 253.574 58.293 254.051 58.293C254.52 58.293 254.918 58.457 255.246 58.7852C255.574 59.1133 255.738 59.5117 255.738 59.9805C255.738 60.4492 255.574 60.8477 255.246 61.1758C254.918 61.5039 254.52 61.668 254.051 61.668ZM263.848 76.1875C262.637 76.1875 261.566 75.9219 260.637 75.3906C259.715 74.8516 258.992 74.1016 258.469 73.1406C257.945 72.1719 257.684 71.043 257.684 69.7539C257.684 68.4492 257.941 67.3203 258.457 66.3672C258.973 65.4141 259.672 64.6758 260.555 64.1523C261.438 63.6211 262.422 63.3555 263.508 63.3555C264.57 63.3555 265.516 63.5977 266.344 64.082C267.18 64.5664 267.84 65.2422 268.324 66.1094C268.809 66.9688 269.051 67.9648 269.051 69.0977C269.051 69.4102 269.031 69.6992 268.992 69.9648C268.961 70.2227 268.926 70.4492 268.887 70.6445H259.488V68.8398H266.766C266.766 68.2148 266.633 67.6484 266.367 67.1406C266.102 66.625 265.723 66.2188 265.23 65.9219C264.746 65.6172 264.172 65.4648 263.508 65.4648C262.797 65.4648 262.172 65.6445 261.633 66.0039C261.094 66.3555 260.672 66.8516 260.367 67.4922C260.07 68.1328 259.922 68.8789 259.922 69.7305C259.922 70.5977 260.082 71.3594 260.402 72.0156C260.723 72.6641 261.18 73.1719 261.773 73.5391C262.367 73.8984 263.07 74.0781 263.883 74.0781C264.352 74.0781 264.789 74.0195 265.195 73.9023C265.602 73.7852 265.965 73.6367 266.285 73.457C266.605 73.2695 266.879 73.082 267.105 72.8945L267.973 74.9453C267.488 75.2891 266.887 75.582 266.168 75.8242C265.457 76.0664 264.684 76.1875 263.848 76.1875ZM271.523 76V63.5312H273.891V65.0898H274.371L273.469 66.0508C273.664 65.4648 273.969 64.9727 274.383 64.5742C274.805 64.168 275.301 63.8633 275.871 63.6602C276.449 63.4492 277.066 63.3438 277.723 63.3438C278.73 63.3438 279.551 63.5664 280.184 64.0117C280.824 64.457 281.293 65.0312 281.59 65.7344C281.895 66.4375 282.047 67.1797 282.047 67.9609V76H279.656V68.4766C279.656 67.4844 279.41 66.7383 278.918 66.2383C278.434 65.7383 277.77 65.4883 276.926 65.4883C276.363 65.4883 275.852 65.6055 275.391 65.8398C274.938 66.0664 274.578 66.4023 274.312 66.8477C274.047 67.293 273.914 67.8359 273.914 68.4766V76H271.523ZM290.59 76.1406C289.699 76.1406 288.871 75.9805 288.105 75.6602C287.34 75.332 286.668 74.875 286.09 74.2891C285.512 73.7031 285.062 73.0195 284.742 72.2383C284.422 71.457 284.262 70.6133 284.262 69.707C284.262 68.7695 284.426 67.9141 284.754 67.1406C285.082 66.3594 285.535 65.6875 286.113 65.125C286.699 64.5547 287.367 64.1133 288.117 63.8008C288.867 63.4883 289.668 63.332 290.52 63.332C291.246 63.332 291.949 63.4414 292.629 63.6602C293.309 63.8789 293.902 64.1719 294.41 64.5391L293.508 66.5312C293.281 66.3203 293.004 66.1406 292.676 65.9922C292.355 65.8359 292.012 65.7148 291.645 65.6289C291.277 65.543 290.922 65.5 290.578 65.5C289.844 65.5 289.18 65.6797 288.586 66.0391C287.992 66.3906 287.52 66.8867 287.168 67.5273C286.824 68.1602 286.652 68.8984 286.652 69.7422C286.652 70.5469 286.82 71.2695 287.156 71.9102C287.492 72.543 287.957 73.0469 288.551 73.4219C289.152 73.7891 289.836 73.9727 290.602 73.9727C291.211 73.9727 291.777 73.8711 292.301 73.668C292.832 73.4648 293.25 73.2148 293.555 72.918L294.445 74.9453C294 75.2812 293.441 75.5664 292.77 75.8008C292.098 76.0273 291.371 76.1406 290.59 76.1406ZM301.652 76.1875C300.441 76.1875 299.371 75.9219 298.441 75.3906C297.52 74.8516 296.797 74.1016 296.273 73.1406C295.75 72.1719 295.488 71.043 295.488 69.7539C295.488 68.4492 295.746 67.3203 296.262 66.3672C296.777 65.4141 297.477 64.6758 298.359 64.1523C299.242 63.6211 300.227 63.3555 301.312 63.3555C302.375 63.3555 303.32 63.5977 304.148 64.082C304.984 64.5664 305.645 65.2422 306.129 66.1094C306.613 66.9688 306.855 67.9648 306.855 69.0977C306.855 69.4102 306.836 69.6992 306.797 69.9648C306.766 70.2227 306.73 70.4492 306.691 70.6445H297.293V68.8398H304.57C304.57 68.2148 304.438 67.6484 304.172 67.1406C303.906 66.625 303.527 66.2188 303.035 65.9219C302.551 65.6172 301.977 65.4648 301.312 65.4648C300.602 65.4648 299.977 65.6445 299.438 66.0039C298.898 66.3555 298.477 66.8516 298.172 67.4922C297.875 68.1328 297.727 68.8789 297.727 69.7305C297.727 70.5977 297.887 71.3594 298.207 72.0156C298.527 72.6641 298.984 73.1719 299.578 73.5391C300.172 73.8984 300.875 74.0781 301.688 74.0781C302.156 74.0781 302.594 74.0195 303 73.9023C303.406 73.7852 303.77 73.6367 304.09 73.457C304.41 73.2695 304.684 73.082 304.91 72.8945L305.777 74.9453C305.293 75.2891 304.691 75.582 303.973 75.8242C303.262 76.0664 302.488 76.1875 301.652 76.1875ZM315.387 76V63.543H317.777V76H315.387ZM316.582 61.668C316.105 61.668 315.703 61.5039 315.375 61.1758C315.055 60.8477 314.895 60.4492 314.895 59.9805C314.895 59.5117 315.055 59.1133 315.375 58.7852C315.703 58.457 316.105 58.293 316.582 58.293C317.051 58.293 317.449 58.457 317.777 58.7852C318.105 59.1133 318.27 59.5117 318.27 59.9805C318.27 60.4492 318.105 60.8477 317.777 61.1758C317.449 61.5039 317.051 61.668 316.582 61.668ZM324.668 76.1875C323.918 76.1875 323.234 76.0508 322.617 75.7773C322 75.4961 321.473 75.1328 321.035 74.6875C320.605 74.2344 320.301 73.7539 320.121 73.2461L322.207 72.3672C322.379 72.8203 322.688 73.2227 323.133 73.5742C323.586 73.918 324.098 74.0898 324.668 74.0898C325.02 74.0898 325.348 74.0234 325.652 73.8906C325.965 73.75 326.215 73.5625 326.402 73.3281C326.598 73.0859 326.695 72.8047 326.695 72.4844C326.695 72.1641 326.598 71.8906 326.402 71.6641C326.207 71.4297 325.957 71.2344 325.652 71.0781C325.348 70.9141 325.031 70.7773 324.703 70.668C324.375 70.5586 324.082 70.4609 323.824 70.375C323.324 70.2109 322.816 69.9922 322.301 69.7188C321.785 69.4453 321.348 69.0781 320.988 68.6172C320.637 68.1484 320.461 67.5508 320.461 66.8242C320.461 66.0977 320.645 65.4766 321.012 64.9609C321.387 64.4375 321.879 64.0391 322.488 63.7656C323.105 63.4844 323.77 63.3438 324.48 63.3438C325.504 63.3438 326.371 63.6016 327.082 64.1172C327.801 64.625 328.309 65.2109 328.605 65.875L326.543 66.7422C326.371 66.4141 326.125 66.1094 325.805 65.8281C325.484 65.5391 325.055 65.3945 324.516 65.3945C324.047 65.3945 323.633 65.5195 323.273 65.7695C322.922 66.0195 322.746 66.375 322.746 66.8359C322.746 67.2266 322.871 67.543 323.121 67.7852C323.379 68.0195 323.699 68.2148 324.082 68.3711C324.465 68.5195 324.855 68.6562 325.254 68.7812C325.582 68.8828 325.953 69.0195 326.367 69.1914C326.789 69.3633 327.195 69.5859 327.586 69.8594C327.984 70.1328 328.312 70.4766 328.57 70.8906C328.836 71.3047 328.969 71.8125 328.969 72.4141C328.969 73.1484 328.77 73.8008 328.371 74.3711C327.973 74.9414 327.445 75.3867 326.789 75.707C326.141 76.0273 325.434 76.1875 324.668 76.1875ZM337.383 76V63.543H339.727V65.043H340.137L339.199 66.2031C339.52 65.2969 340.027 64.5977 340.723 64.1055C341.418 63.6055 342.227 63.3555 343.148 63.3555C344.055 63.3555 344.82 63.5859 345.445 64.0469C346.07 64.5078 346.496 65.1094 346.723 65.8516L345.902 65.1133H347.051L346.043 65.8516C346.418 65.0156 346.984 64.3906 347.742 63.9766C348.508 63.5625 349.34 63.3555 350.238 63.3555C350.957 63.3555 351.582 63.4766 352.113 63.7188C352.652 63.9609 353.094 64.2969 353.438 64.7266C353.789 65.1484 354.047 65.6328 354.211 66.1797C354.383 66.7266 354.469 67.3008 354.469 67.9023V76H352.078V68.3359C352.078 67.3984 351.863 66.6914 351.434 66.2148C351.004 65.7305 350.426 65.4883 349.699 65.4883C349.238 65.4883 348.812 65.5938 348.422 65.8047C348.031 66.0156 347.715 66.332 347.473 66.7539C347.238 67.168 347.121 67.6953 347.121 68.3359V76H344.73V68.3359C344.73 67.3984 344.512 66.6914 344.074 66.2148C343.637 65.7305 343.055 65.4883 342.328 65.4883C341.641 65.4883 341.043 65.7305 340.535 66.2148C340.027 66.6992 339.773 67.4336 339.773 68.418V76H337.383ZM362.848 76.1875C361.676 76.1875 360.625 75.9141 359.695 75.3672C358.766 74.8203 358.031 74.0586 357.492 73.082C356.953 72.1055 356.684 70.9805 356.684 69.707C356.684 68.457 356.953 67.3555 357.492 66.4023C358.031 65.4414 358.766 64.6953 359.695 64.1641C360.625 63.625 361.676 63.3555 362.848 63.3555C364.035 63.3555 365.094 63.625 366.023 64.1641C366.953 64.6953 367.684 65.4414 368.215 66.4023C368.746 67.3555 369.012 68.457 369.012 69.707C369.012 70.9805 368.742 72.1055 368.203 73.082C367.664 74.0586 366.93 74.8203 366 75.3672C365.07 75.9141 364.02 76.1875 362.848 76.1875ZM362.848 74.0312C363.582 74.0312 364.234 73.8516 364.805 73.4922C365.375 73.125 365.82 72.6211 366.141 71.9805C366.461 71.332 366.621 70.5742 366.621 69.707C366.621 68.8711 366.461 68.1367 366.141 67.5039C365.82 66.8711 365.375 66.3828 364.805 66.0391C364.234 65.6875 363.582 65.5117 362.848 65.5117C362.129 65.5117 361.484 65.6875 360.914 66.0391C360.344 66.3828 359.895 66.8711 359.566 67.5039C359.238 68.1289 359.074 68.8633 359.074 69.707C359.074 70.5742 359.234 71.332 359.555 71.9805C359.883 72.6211 360.328 73.125 360.891 73.4922C361.461 73.8516 362.113 74.0312 362.848 74.0312ZM375.105 76.1875C374.355 76.1875 373.672 76.0508 373.055 75.7773C372.438 75.4961 371.91 75.1328 371.473 74.6875C371.043 74.2344 370.738 73.7539 370.559 73.2461L372.645 72.3672C372.816 72.8203 373.125 73.2227 373.57 73.5742C374.023 73.918 374.535 74.0898 375.105 74.0898C375.457 74.0898 375.785 74.0234 376.09 73.8906C376.402 73.75 376.652 73.5625 376.84 73.3281C377.035 73.0859 377.133 72.8047 377.133 72.4844C377.133 72.1641 377.035 71.8906 376.84 71.6641C376.645 71.4297 376.395 71.2344 376.09 71.0781C375.785 70.9141 375.469 70.7773 375.141 70.668C374.812 70.5586 374.52 70.4609 374.262 70.375C373.762 70.2109 373.254 69.9922 372.738 69.7188C372.223 69.4453 371.785 69.0781 371.426 68.6172C371.074 68.1484 370.898 67.5508 370.898 66.8242C370.898 66.0977 371.082 65.4766 371.449 64.9609C371.824 64.4375 372.316 64.0391 372.926 63.7656C373.543 63.4844 374.207 63.3438 374.918 63.3438C375.941 63.3438 376.809 63.6016 377.52 64.1172C378.238 64.625 378.746 65.2109 379.043 65.875L376.98 66.7422C376.809 66.4141 376.562 66.1094 376.242 65.8281C375.922 65.5391 375.492 65.3945 374.953 65.3945C374.484 65.3945 374.07 65.5195 373.711 65.7695C373.359 66.0195 373.184 66.375 373.184 66.8359C373.184 67.2266 373.309 67.543 373.559 67.7852C373.816 68.0195 374.137 68.2148 374.52 68.3711C374.902 68.5195 375.293 68.6562 375.691 68.7812C376.02 68.8828 376.391 69.0195 376.805 69.1914C377.227 69.3633 377.633 69.5859 378.023 69.8594C378.422 70.1328 378.75 70.4766 379.008 70.8906C379.273 71.3047 379.406 71.8125 379.406 72.4141C379.406 73.1484 379.207 73.8008 378.809 74.3711C378.41 74.9414 377.883 75.3867 377.227 75.707C376.578 76.0273 375.871 76.1875 375.105 76.1875ZM386.555 76.1875C385.305 76.1875 384.363 75.832 383.73 75.1211C383.098 74.4023 382.781 73.4844 382.781 72.3672V59.6172H385.172V72.168C385.172 72.7852 385.312 73.25 385.594 73.5625C385.883 73.8672 386.25 74.0195 386.695 74.0195C386.891 74.0195 387.07 73.9922 387.234 73.9375C387.398 73.8828 387.551 73.8203 387.691 73.75L388.547 75.7656C388.281 75.8828 387.984 75.9805 387.656 76.0586C387.336 76.1445 386.969 76.1875 386.555 76.1875ZM380.719 65.6055V63.5312H388.207V65.6055H380.719ZM400.16 76.1875C399.371 76.1875 398.664 76.0352 398.039 75.7305C397.414 75.418 396.922 74.9805 396.562 74.418C396.203 73.8555 396.023 73.1953 396.023 72.4375C396.023 71.6406 396.238 70.9531 396.668 70.375C397.105 69.7969 397.742 69.3555 398.578 69.0508C399.414 68.7461 400.43 68.5938 401.625 68.5938H404.273V70.3633H401.73C400.652 70.3633 399.816 70.5391 399.223 70.8906C398.637 71.2344 398.344 71.7383 398.344 72.4023C398.344 72.7852 398.441 73.1133 398.637 73.3867C398.832 73.6523 399.094 73.8594 399.422 74.0078C399.758 74.1484 400.133 74.2188 400.547 74.2188C401.008 74.2188 401.496 74.1172 402.012 73.9141C402.527 73.7109 402.969 73.4062 403.336 73C403.703 72.5859 403.887 72.0742 403.887 71.4648V70.1758L403.781 69.4844V68.0312C403.781 67.8047 403.758 67.5469 403.711 67.2578C403.672 66.9609 403.57 66.6797 403.406 66.4141C403.25 66.1406 403.004 65.9141 402.668 65.7344C402.332 65.5547 401.875 65.4648 401.297 65.4648C400.914 65.4648 400.5 65.5117 400.055 65.6055C399.617 65.6992 399.191 65.8281 398.777 65.9922C398.371 66.1562 398.012 66.3438 397.699 66.5547L396.844 64.5391C397.227 64.3125 397.676 64.1094 398.191 63.9297C398.707 63.7422 399.254 63.5977 399.832 63.4961C400.41 63.3945 400.988 63.3438 401.566 63.3438C402.504 63.3438 403.266 63.4766 403.852 63.7422C404.445 64.0078 404.902 64.3672 405.223 64.8203C405.543 65.2734 405.762 65.7734 405.879 66.3203C406.004 66.8672 406.066 67.4219 406.066 67.9844V72.2031C406.066 72.7109 406.121 73.1094 406.23 73.3984C406.34 73.6797 406.539 73.875 406.828 73.9844L407.074 74.0781L406.184 76.1875L405.844 76.0469C405.328 75.8359 404.914 75.5508 404.602 75.1914C404.289 74.832 404.125 74.4727 404.109 74.1133L404.566 74.3359H403.723L404.297 74.0078C404 74.6016 403.48 75.1133 402.738 75.543C402.004 75.9727 401.145 76.1875 400.16 76.1875ZM414.879 76.1406C413.988 76.1406 413.16 75.9805 412.395 75.6602C411.629 75.332 410.957 74.875 410.379 74.2891C409.801 73.7031 409.352 73.0195 409.031 72.2383C408.711 71.457 408.551 70.6133 408.551 69.707C408.551 68.7695 408.715 67.9141 409.043 67.1406C409.371 66.3594 409.824 65.6875 410.402 65.125C410.988 64.5547 411.656 64.1133 412.406 63.8008C413.156 63.4883 413.957 63.332 414.809 63.332C415.535 63.332 416.238 63.4414 416.918 63.6602C417.598 63.8789 418.191 64.1719 418.699 64.5391L417.797 66.5312C417.57 66.3203 417.293 66.1406 416.965 65.9922C416.645 65.8359 416.301 65.7148 415.934 65.6289C415.566 65.543 415.211 65.5 414.867 65.5C414.133 65.5 413.469 65.6797 412.875 66.0391C412.281 66.3906 411.809 66.8867 411.457 67.5273C411.113 68.1602 410.941 68.8984 410.941 69.7422C410.941 70.5469 411.109 71.2695 411.445 71.9102C411.781 72.543 412.246 73.0469 412.84 73.4219C413.441 73.7891 414.125 73.9727 414.891 73.9727C415.5 73.9727 416.066 73.8711 416.59 73.668C417.121 73.4648 417.539 73.2148 417.844 72.918L418.734 74.9453C418.289 75.2812 417.73 75.5664 417.059 75.8008C416.387 76.0273 415.66 76.1406 414.879 76.1406ZM425.719 76.1875C424.469 76.1875 423.527 75.832 422.895 75.1211C422.262 74.4023 421.945 73.4844 421.945 72.3672V59.6172H424.336V72.168C424.336 72.7852 424.477 73.25 424.758 73.5625C425.047 73.8672 425.414 74.0195 425.859 74.0195C426.055 74.0195 426.234 73.9922 426.398 73.9375C426.562 73.8828 426.715 73.8203 426.855 73.75L427.711 75.7656C427.445 75.8828 427.148 75.9805 426.82 76.0586C426.5 76.1445 426.133 76.1875 425.719 76.1875ZM419.883 65.6055V63.5312H427.371V65.6055H419.883ZM429.879 76V63.543H432.27V76H429.879ZM431.074 61.668C430.598 61.668 430.195 61.5039 429.867 61.1758C429.547 60.8477 429.387 60.4492 429.387 59.9805C429.387 59.5117 429.547 59.1133 429.867 58.7852C430.195 58.457 430.598 58.293 431.074 58.293C431.543 58.293 431.941 58.457 432.27 58.7852C432.598 59.1133 432.762 59.5117 432.762 59.9805C432.762 60.4492 432.598 60.8477 432.27 61.1758C431.941 61.5039 431.543 61.668 431.074 61.668ZM439.102 76L434.215 63.543H436.863L439.184 70.2812L440.191 73.2695H440.285L441.305 70.2812L443.648 63.543H446.273L441.375 76H439.102ZM453.223 76.1875C452.012 76.1875 450.941 75.9219 450.012 75.3906C449.09 74.8516 448.367 74.1016 447.844 73.1406C447.32 72.1719 447.059 71.043 447.059 69.7539C447.059 68.4492 447.316 67.3203 447.832 66.3672C448.348 65.4141 449.047 64.6758 449.93 64.1523C450.812 63.6211 451.797 63.3555 452.883 63.3555C453.945 63.3555 454.891 63.5977 455.719 64.082C456.555 64.5664 457.215 65.2422 457.699 66.1094C458.184 66.9688 458.426 67.9648 458.426 69.0977C458.426 69.4102 458.406 69.6992 458.367 69.9648C458.336 70.2227 458.301 70.4492 458.262 70.6445H448.863V68.8398H456.141C456.141 68.2148 456.008 67.6484 455.742 67.1406C455.477 66.625 455.098 66.2188 454.605 65.9219C454.121 65.6172 453.547 65.4648 452.883 65.4648C452.172 65.4648 451.547 65.6445 451.008 66.0039C450.469 66.3555 450.047 66.8516 449.742 67.4922C449.445 68.1328 449.297 68.8789 449.297 69.7305C449.297 70.5977 449.457 71.3594 449.777 72.0156C450.098 72.6641 450.555 73.1719 451.148 73.5391C451.742 73.8984 452.445 74.0781 453.258 74.0781C453.727 74.0781 454.164 74.0195 454.57 73.9023C454.977 73.7852 455.34 73.6367 455.66 73.457C455.98 73.2695 456.254 73.082 456.48 72.8945L457.348 74.9453C456.863 75.2891 456.262 75.582 455.543 75.8242C454.832 76.0664 454.059 76.1875 453.223 76.1875Z" fill="#6B6B6B"/>
<line x1="15" y1="122.25" x2="601" y2="122.25" stroke="#F5F5F5" stroke-width="1.5"/>
<line x1="15" y1="222.25" x2="601" y2="222.25" stroke="#F5F5F5" stroke-width="1.5"/>
<line x1="15" y1="522.25" x2="601" y2="522.25" stroke="#F5F5F5" stroke-width="1.5"/>
<line x1="15" y1="322.25" x2="601" y2="322.25" stroke="#F5F5F5" stroke-width="1.5"/>
<line x1="15" y1="422.25" x2="601" y2="422.25" stroke="#F5F5F5" stroke-width="1.5"/>
<circle cx="77.5" cy="549.5" r="7.5" fill="#F5F5F5"/>
<circle cx="155.5" cy="549.5" r="7.5" fill="#F5F5F5"/>
<circle cx="235.5" cy="549.5" r="7.5" fill="#F5F5F5"/>
<circle cx="316.5" cy="549.5" r="7.5" fill="#F5F5F5"/>
<circle cx="388.5" cy="549.5" r="7.5" fill="#F5F5F5"/>
<circle cx="462.5" cy="549.5" r="7.5" fill="#F5F5F5"/>
<circle cx="538.5" cy="549.5" r="7.5" fill="#F5F5F5"/>
<rect x="53" y="363" width="50" height="150" rx="10" fill="#D9D9D9"/>
<rect x="128" y="413" width="50" height="100" rx="10" fill="#D9D9D9"/>
<rect x="209" y="323" width="50" height="190" rx="10" fill="#D9D9D9"/>
<rect x="292" y="263" width="50" height="250" rx="10" fill="#D9D9D9"/>
<rect x="365" y="313" width="50" height="200" rx="10" fill="#D9D9D9"/>
<rect x="437" y="113" width="50" height="400" rx="10" fill="#FFCD04"/>
<rect x="513" y="253" width="50" height="260" rx="10" fill="#D9D9D9"/>
</svg>
