<svg width="620" height="633" viewBox="0 0 620 633" fill="none" xmlns="http://www.w3.org/2000/svg">
<path d="M11.0469 28.2188C9.60677 28.2188 8.27148 27.9681 7.04102 27.4668C5.81966 26.9655 4.75326 26.2546 3.8418 25.334C2.93034 24.4134 2.2194 23.3288 1.70898 22.0801C1.20768 20.8223 0.957031 19.446 0.957031 17.9512C0.957031 16.4837 1.20768 15.1211 1.70898 13.8633C2.21029 12.6055 2.91667 11.5117 3.82812 10.582C4.7487 9.65234 5.83789 8.92773 7.0957 8.4082C8.36263 7.88867 9.7526 7.62891 11.2656 7.62891C12.4688 7.62891 13.6035 7.78841 14.6699 8.10742C15.7454 8.41732 16.7116 8.85482 17.5684 9.41992L16.2695 12.4824C15.7409 11.9447 15.0391 11.5117 14.1641 11.1836C13.2891 10.8555 12.3229 10.6914 11.2656 10.6914C9.92578 10.6914 8.73177 10.9922 7.68359 11.5938C6.63542 12.1953 5.81055 13.0384 5.20898 14.123C4.60742 15.1986 4.30664 16.4473 4.30664 17.8691C4.30664 18.9538 4.47526 19.9427 4.8125 20.8359C5.15885 21.7292 5.63737 22.5039 6.24805 23.1602C6.86784 23.8073 7.58789 24.3086 8.4082 24.6641C9.22852 25.0195 10.1172 25.1973 11.0742 25.1973C12.2227 25.1973 13.2161 24.9512 14.0547 24.459C14.9023 23.9577 15.554 23.2878 16.0098 22.4492C16.4746 21.6107 16.707 20.6719 16.707 19.6328H10.459V16.7344H19.9473V19.168C19.9473 20.9089 19.5827 22.4629 18.8535 23.8301C18.1243 25.1882 17.0944 26.2591 15.7637 27.043C14.4329 27.8268 12.8607 28.2188 11.0469 28.2188ZM22.6816 28V13.4121H25.8535V15.5586H26.2637L25.375 16.5156C25.6211 15.987 25.9674 15.4674 26.4141 14.957C26.8607 14.4466 27.4121 14.0273 28.0684 13.6992C28.7246 13.362 29.4811 13.1934 30.3379 13.1934C30.6842 13.1934 30.9987 13.2207 31.2812 13.2754C31.5729 13.321 31.778 13.3757 31.8965 13.4395L30.5977 16.5293C30.5247 16.4928 30.3835 16.4564 30.1738 16.4199C29.9733 16.3835 29.7409 16.3652 29.4766 16.3652C29.0938 16.3652 28.6927 16.4427 28.2734 16.5977C27.8633 16.7526 27.4759 16.985 27.1113 17.2949C26.7559 17.6048 26.4642 17.9922 26.2363 18.457C26.0176 18.9128 25.9082 19.4414 25.9082 20.043V28H22.6816ZM39.293 28.2188C37.9076 28.2188 36.6634 27.8997 35.5605 27.2617C34.4577 26.6146 33.5827 25.7259 32.9355 24.5957C32.2884 23.4564 31.9648 22.1439 31.9648 20.6582C31.9648 19.1816 32.2884 17.8828 32.9355 16.7617C33.5827 15.6406 34.4577 14.7656 35.5605 14.1367C36.6634 13.5078 37.9076 13.1934 39.293 13.1934C40.6966 13.1934 41.9499 13.5078 43.0527 14.1367C44.1556 14.7656 45.026 15.6406 45.6641 16.7617C46.3021 17.8828 46.6211 19.1816 46.6211 20.6582C46.6211 22.1439 46.2975 23.4564 45.6504 24.5957C45.0124 25.7259 44.1374 26.6146 43.0254 27.2617C41.9225 27.8997 40.6784 28.2188 39.293 28.2188ZM39.293 25.3613C40.0951 25.3613 40.8105 25.1654 41.4395 24.7734C42.0684 24.3815 42.5605 23.8346 42.916 23.1328C43.2806 22.4219 43.4629 21.597 43.4629 20.6582C43.4629 19.7376 43.2852 18.931 42.9297 18.2383C42.5742 17.5456 42.082 17.0078 41.4531 16.625C40.8333 16.2422 40.1178 16.0508 39.3066 16.0508C38.5046 16.0508 37.7891 16.2422 37.1602 16.625C36.5312 17.0078 36.0345 17.5456 35.6699 18.2383C35.3145 18.931 35.1367 19.7376 35.1367 20.6582C35.1367 21.597 35.3145 22.4219 35.6699 23.1328C36.0345 23.8346 36.5267 24.3815 37.1465 24.7734C37.7754 25.1654 38.4909 25.3613 39.293 25.3613ZM51.8027 28L47.5508 13.4121H50.8047L52.6777 20.7676L53.457 23.9395H53.5527L54.5098 21.4512L57.2305 14.3008H58.707L61.4277 21.4512L62.3574 23.9395H62.4668L63.2734 20.7676L65.1602 13.4121H68.3867L64.1211 28H61.332L59.9238 24.459L58.0234 19.7148H57.9141L56.0273 24.459L54.6055 28H51.8027ZM76.5215 28.2188C74.972 28.2188 73.8008 27.7812 73.0078 26.9062C72.224 26.0312 71.832 24.9102 71.832 23.543V8.92773H75.0586V23.3105C75.0586 24.0124 75.2227 24.5273 75.5508 24.8555C75.8789 25.1836 76.2891 25.3477 76.7812 25.3477C77 25.3477 77.2051 25.3203 77.3965 25.2656C77.5879 25.2018 77.7611 25.1289 77.916 25.0469L79.0234 27.6855C78.6862 27.8496 78.3079 27.9772 77.8887 28.0684C77.4694 28.1686 77.0137 28.2188 76.5215 28.2188ZM69.4258 16.1055V13.4121H78.5586V16.1055H69.4258ZM81.1973 28V6.94531H84.4238V14.9434H85.0801L83.8359 16.2012C84.0365 15.554 84.3783 15.0072 84.8613 14.5605C85.3535 14.1048 85.9323 13.763 86.5977 13.5352C87.2721 13.3073 87.9876 13.1934 88.7441 13.1934C89.9199 13.1934 90.8815 13.4486 91.6289 13.959C92.3854 14.4603 92.9414 15.1165 93.2969 15.9277C93.6523 16.7389 93.8301 17.6139 93.8301 18.5527V28H90.6035V19.2363C90.6035 18.1608 90.3301 17.3542 89.7832 16.8164C89.2454 16.2695 88.5299 15.9961 87.6367 15.9961C87.0352 15.9961 86.4928 16.1191 86.0098 16.3652C85.5358 16.6113 85.153 16.9759 84.8613 17.459C84.5697 17.9421 84.4238 18.5436 84.4238 19.2637V28H81.1973ZM108.391 28V10.3223H111.74V28H108.391ZM103.223 10.8691V7.84766H116.895V10.8691H103.223ZM117.893 28V13.4121H121.064V15.5586H121.475L120.586 16.5156C120.832 15.987 121.178 15.4674 121.625 14.957C122.072 14.4466 122.623 14.0273 123.279 13.6992C123.936 13.362 124.692 13.1934 125.549 13.1934C125.895 13.1934 126.21 13.2207 126.492 13.2754C126.784 13.321 126.989 13.3757 127.107 13.4395L125.809 16.5293C125.736 16.4928 125.594 16.4564 125.385 16.4199C125.184 16.3835 124.952 16.3652 124.688 16.3652C124.305 16.3652 123.904 16.4427 123.484 16.5977C123.074 16.7526 122.687 16.985 122.322 17.2949C121.967 17.6048 121.675 17.9922 121.447 18.457C121.229 18.9128 121.119 19.4414 121.119 20.043V28H117.893ZM134.559 28.2188C133.082 28.2188 131.792 27.9043 130.689 27.2754C129.587 26.6374 128.725 25.7533 128.105 24.623C127.486 23.4928 127.176 22.1895 127.176 20.7129C127.176 19.1816 127.486 17.8555 128.105 16.7344C128.725 15.6133 129.559 14.7474 130.607 14.1367C131.656 13.5169 132.818 13.207 134.094 13.207C135.315 13.207 136.418 13.4896 137.402 14.0547C138.396 14.6198 139.184 15.4082 139.768 16.4199C140.351 17.4225 140.643 18.5983 140.643 19.9473C140.643 20.2936 140.624 20.6172 140.588 20.918C140.551 21.2188 140.506 21.5195 140.451 21.8203H129.596V19.5371H137.621C137.621 18.8444 137.475 18.2292 137.184 17.6914C136.892 17.1445 136.482 16.7161 135.953 16.4062C135.424 16.0872 134.805 15.9277 134.094 15.9277C133.292 15.9277 132.59 16.1283 131.988 16.5293C131.396 16.9212 130.931 17.4727 130.594 18.1836C130.266 18.8854 130.102 19.7057 130.102 20.6445C130.102 21.6016 130.279 22.4447 130.635 23.1738C130.999 23.903 131.51 24.4727 132.166 24.8828C132.831 25.293 133.62 25.498 134.531 25.498C135.051 25.498 135.543 25.4342 136.008 25.3066C136.473 25.179 136.896 25.015 137.279 24.8145C137.662 24.6048 137.99 24.3861 138.264 24.1582L139.371 26.8105C138.797 27.2207 138.09 27.5579 137.252 27.8223C136.423 28.0866 135.525 28.2188 134.559 28.2188ZM143.309 28V13.4121H146.467V15.2578H147.068L145.947 16.502C146.166 15.7728 146.521 15.1667 147.014 14.6836C147.515 14.1914 148.103 13.8223 148.777 13.5762C149.461 13.321 150.195 13.1934 150.979 13.1934C152.09 13.1934 153.011 13.444 153.74 13.9453C154.479 14.4466 155.03 15.1029 155.395 15.9141C155.759 16.7253 155.941 17.6048 155.941 18.5527V28H152.715V19.25C152.715 18.1745 152.451 17.3633 151.922 16.8164C151.393 16.2695 150.673 15.9961 149.762 15.9961C149.16 15.9961 148.613 16.1237 148.121 16.3789C147.629 16.625 147.242 16.9896 146.959 17.4727C146.676 17.9557 146.535 18.5527 146.535 19.2637V28H143.309ZM172.402 28.2188C171.792 27.9818 171.286 27.7311 170.885 27.4668C170.493 27.1934 170.192 26.8971 169.982 26.5781C169.782 26.25 169.659 25.89 169.613 25.498L170.146 25.7852H168.834L169.518 24.1172V16.4062L168.834 14.9297H169.176V6.94531H172.402V23.502C172.402 24.0762 172.484 24.4954 172.648 24.7598C172.812 25.015 173.122 25.2383 173.578 25.4297L172.402 28.2188ZM164.773 28.2188C163.935 28.2188 163.124 28.0547 162.34 27.7266C161.565 27.3893 160.868 26.9017 160.248 26.2637C159.637 25.6257 159.154 24.8418 158.799 23.9121C158.452 22.9733 158.284 21.9069 158.293 20.7129C158.275 19.1087 158.571 17.7461 159.182 16.625C159.801 15.5039 160.613 14.6471 161.615 14.0547C162.618 13.4622 163.689 13.166 164.828 13.166C166.059 13.166 167.148 13.4896 168.096 14.1367C169.053 14.7839 169.8 15.6725 170.338 16.8027C170.885 17.9238 171.163 19.1999 171.172 20.6309C171.163 22.0618 170.88 23.3516 170.324 24.5C169.768 25.6484 169.007 26.5553 168.041 27.2207C167.084 27.8861 165.995 28.2188 164.773 28.2188ZM165.443 25.4297C166.209 25.4297 166.888 25.2246 167.48 24.8145C168.073 24.4043 168.538 23.8438 168.875 23.1328C169.212 22.4128 169.385 21.5924 169.395 20.6719C169.385 19.6875 169.208 18.8444 168.861 18.1426C168.515 17.4408 168.046 16.903 167.453 16.5293C166.861 16.1465 166.204 15.9596 165.484 15.9688C164.71 15.9596 164.017 16.151 163.406 16.543C162.805 16.9349 162.335 17.4863 161.998 18.1973C161.661 18.8991 161.497 19.724 161.506 20.6719C161.497 21.5924 161.656 22.4128 161.984 23.1328C162.322 23.8438 162.791 24.4043 163.393 24.8145C163.994 25.2246 164.678 25.4297 165.443 25.4297ZM180.701 28.2188C179.826 28.2188 179.015 28.0592 178.268 27.7402C177.52 27.4212 176.878 26.9974 176.34 26.4688C175.811 25.931 175.428 25.3477 175.191 24.7188L177.926 23.543C178.126 24.0534 178.477 24.5091 178.979 24.9102C179.489 25.3112 180.063 25.5117 180.701 25.5117C181.093 25.5117 181.453 25.4388 181.781 25.293C182.109 25.138 182.374 24.9329 182.574 24.6777C182.775 24.4225 182.875 24.14 182.875 23.8301C182.875 23.4837 182.757 23.1875 182.52 22.9414C182.292 22.6862 182 22.472 181.645 22.2988C181.298 22.1257 180.934 21.9798 180.551 21.8613C180.177 21.7428 179.849 21.638 179.566 21.5469C178.947 21.3555 178.331 21.0911 177.721 20.7539C177.119 20.4167 176.618 19.9746 176.217 19.4277C175.816 18.8717 175.615 18.1745 175.615 17.3359C175.615 16.4883 175.834 15.7546 176.271 15.1348C176.709 14.5059 177.292 14.0273 178.021 13.6992C178.751 13.362 179.557 13.1934 180.441 13.1934C181.663 13.1934 182.715 13.4896 183.6 14.082C184.484 14.6654 185.108 15.3672 185.473 16.1875L182.793 17.3086C182.611 16.9714 182.337 16.6432 181.973 16.3242C181.608 16.0052 181.125 15.8457 180.523 15.8457C180.004 15.8457 179.557 15.9824 179.184 16.2559C178.819 16.5202 178.637 16.8939 178.637 17.377C178.637 17.7871 178.769 18.1198 179.033 18.375C179.307 18.6211 179.667 18.8307 180.113 19.0039C180.56 19.168 181.043 19.3366 181.562 19.5098C181.945 19.6283 182.378 19.7878 182.861 19.9883C183.354 20.1797 183.827 20.4349 184.283 20.7539C184.748 21.0729 185.126 21.4785 185.418 21.9707C185.719 22.4538 185.869 23.0462 185.869 23.748C185.869 24.623 185.632 25.3978 185.158 26.0723C184.684 26.7467 184.055 27.2754 183.271 27.6582C182.488 28.0319 181.631 28.2188 180.701 28.2188Z" fill="#1E1E1E"/>
<path d="M5.19141 66V50.5547H7.67578V66H5.19141ZM0.667969 50.9883V48.7266H12.1875V50.9883H0.667969ZM13.2188 66V53.543H15.5859V55.4062H15.9141L15.1992 56.2031C15.418 55.7188 15.7188 55.2578 16.1016 54.8203C16.4922 54.3828 16.9609 54.0312 17.5078 53.7656C18.0625 53.4922 18.6992 53.3555 19.418 53.3555C19.6992 53.3555 19.9609 53.375 20.2031 53.4141C20.4453 53.4531 20.6172 53.4922 20.7188 53.5312L19.7461 55.8398C19.6914 55.8086 19.5781 55.7812 19.4062 55.7578C19.2344 55.7266 19.043 55.7109 18.832 55.7109C18.4883 55.7109 18.1289 55.7852 17.7539 55.9336C17.3789 56.082 17.0273 56.2969 16.6992 56.5781C16.3789 56.8516 16.1172 57.1953 15.9141 57.6094C15.7109 58.0234 15.6094 58.5 15.6094 59.0391V66H13.2188ZM25.1367 66.1875C24.3477 66.1875 23.6406 66.0352 23.0156 65.7305C22.3906 65.418 21.8984 64.9805 21.5391 64.418C21.1797 63.8555 21 63.1953 21 62.4375C21 61.6406 21.2148 60.9531 21.6445 60.375C22.082 59.7969 22.7188 59.3555 23.5547 59.0508C24.3906 58.7461 25.4062 58.5938 26.6016 58.5938H29.25V60.3633H26.707C25.6289 60.3633 24.793 60.5391 24.1992 60.8906C23.6133 61.2344 23.3203 61.7383 23.3203 62.4023C23.3203 62.7852 23.418 63.1133 23.6133 63.3867C23.8086 63.6523 24.0703 63.8594 24.3984 64.0078C24.7344 64.1484 25.1094 64.2188 25.5234 64.2188C25.9844 64.2188 26.4727 64.1172 26.9883 63.9141C27.5039 63.7109 27.9453 63.4062 28.3125 63C28.6797 62.5859 28.8633 62.0742 28.8633 61.4648V60.1758L28.7578 59.4844V58.0312C28.7578 57.8047 28.7344 57.5469 28.6875 57.2578C28.6484 56.9609 28.5469 56.6797 28.3828 56.4141C28.2266 56.1406 27.9805 55.9141 27.6445 55.7344C27.3086 55.5547 26.8516 55.4648 26.2734 55.4648C25.8906 55.4648 25.4766 55.5117 25.0312 55.6055C24.5938 55.6992 24.168 55.8281 23.7539 55.9922C23.3477 56.1562 22.9883 56.3438 22.6758 56.5547L21.8203 54.5391C22.2031 54.3125 22.6523 54.1094 23.168 53.9297C23.6836 53.7422 24.2305 53.5977 24.8086 53.4961C25.3867 53.3945 25.9648 53.3438 26.543 53.3438C27.4805 53.3438 28.2422 53.4766 28.8281 53.7422C29.4219 54.0078 29.8789 54.3672 30.1992 54.8203C30.5195 55.2734 30.7383 55.7734 30.8555 56.3203C30.9805 56.8672 31.043 57.4219 31.043 57.9844V62.2031C31.043 62.7109 31.0977 63.1094 31.207 63.3984C31.3164 63.6797 31.5156 63.875 31.8047 63.9844L32.0508 64.0781L31.1602 66.1875L30.8203 66.0469C30.3047 65.8359 29.8906 65.5508 29.5781 65.1914C29.2656 64.832 29.1016 64.4727 29.0859 64.1133L29.543 64.3359H28.6992L29.2734 64.0078C28.9766 64.6016 28.457 65.1133 27.7148 65.543C26.9805 65.9727 26.1211 66.1875 25.1367 66.1875ZM39.8555 66.1406C38.9648 66.1406 38.1367 65.9805 37.3711 65.6602C36.6055 65.332 35.9336 64.875 35.3555 64.2891C34.7773 63.7031 34.3281 63.0195 34.0078 62.2383C33.6875 61.457 33.5273 60.6133 33.5273 59.707C33.5273 58.7695 33.6914 57.9141 34.0195 57.1406C34.3477 56.3594 34.8008 55.6875 35.3789 55.125C35.9648 54.5547 36.6328 54.1133 37.3828 53.8008C38.1328 53.4883 38.9336 53.332 39.7852 53.332C40.5117 53.332 41.2148 53.4414 41.8945 53.6602C42.5742 53.8789 43.168 54.1719 43.6758 54.5391L42.7734 56.5312C42.5469 56.3203 42.2695 56.1406 41.9414 55.9922C41.6211 55.8359 41.2773 55.7148 40.9102 55.6289C40.543 55.543 40.1875 55.5 39.8438 55.5C39.1094 55.5 38.4453 55.6797 37.8516 56.0391C37.2578 56.3906 36.7852 56.8867 36.4336 57.5273C36.0898 58.1602 35.918 58.8984 35.918 59.7422C35.918 60.5469 36.0859 61.2695 36.4219 61.9102C36.7578 62.543 37.2227 63.0469 37.8164 63.4219C38.418 63.7891 39.1016 63.9727 39.8672 63.9727C40.4766 63.9727 41.043 63.8711 41.5664 63.668C42.0977 63.4648 42.5156 63.2148 42.8203 62.918L43.7109 64.9453C43.2656 65.2812 42.707 65.5664 42.0352 65.8008C41.3633 66.0273 40.6367 66.1406 39.8555 66.1406ZM45.8203 66V47.9531H48.2109V58.5938H49.2188L48.2461 59.1328L53.4141 53.5312H56.4375L50.2852 60.1406V58.8164L56.7891 66H53.7773L48.2344 59.8477L49.2188 60.4336H48.2109V66H45.8203ZM66.2461 71.1094C65.7695 71.1094 65.3164 71.0547 64.8867 70.9453C64.457 70.8438 64.1445 70.7461 63.9492 70.6523L64.8281 68.5664C65.0625 68.6836 65.3047 68.7773 65.5547 68.8477C65.8125 68.9258 66.0508 68.9648 66.2695 68.9648C66.7227 68.9727 67.0938 68.8633 67.3828 68.6367C67.6797 68.418 67.9062 68.1602 68.0625 67.8633C68.2266 67.5664 68.3438 67.3086 68.4141 67.0898L69.0352 65.2031L69.0117 66.5859L63.6094 53.543H66.1875L68.9883 60.9844L69.8672 63.375H69.9609L70.7578 60.9844L73.3242 53.543H75.8438L70.5 67.6641C70.3906 67.9609 70.2383 68.3047 70.043 68.6953C69.8555 69.0859 69.6016 69.4648 69.2812 69.832C68.9609 70.1992 68.5547 70.5039 68.0625 70.7461C67.5781 70.9883 66.9727 71.1094 66.2461 71.1094ZM82.8633 66.1875C81.6914 66.1875 80.6406 65.9141 79.7109 65.3672C78.7812 64.8203 78.0469 64.0586 77.5078 63.082C76.9688 62.1055 76.6992 60.9805 76.6992 59.707C76.6992 58.457 76.9688 57.3555 77.5078 56.4023C78.0469 55.4414 78.7812 54.6953 79.7109 54.1641C80.6406 53.625 81.6914 53.3555 82.8633 53.3555C84.0508 53.3555 85.1094 53.625 86.0391 54.1641C86.9688 54.6953 87.6992 55.4414 88.2305 56.4023C88.7617 57.3555 89.0273 58.457 89.0273 59.707C89.0273 60.9805 88.7578 62.1055 88.2188 63.082C87.6797 64.0586 86.9453 64.8203 86.0156 65.3672C85.0859 65.9141 84.0352 66.1875 82.8633 66.1875ZM82.8633 64.0312C83.5977 64.0312 84.25 63.8516 84.8203 63.4922C85.3906 63.125 85.8359 62.6211 86.1562 61.9805C86.4766 61.332 86.6367 60.5742 86.6367 59.707C86.6367 58.8711 86.4766 58.1367 86.1562 57.5039C85.8359 56.8711 85.3906 56.3828 84.8203 56.0391C84.25 55.6875 83.5977 55.5117 82.8633 55.5117C82.1445 55.5117 81.5 55.6875 80.9297 56.0391C80.3594 56.3828 79.9102 56.8711 79.582 57.5039C79.2539 58.1289 79.0898 58.8633 79.0898 59.707C79.0898 60.5742 79.25 61.332 79.5703 61.9805C79.8984 62.6211 80.3438 63.125 80.9062 63.4922C81.4766 63.8516 82.1289 64.0312 82.8633 64.0312ZM95.9883 66.1875C95.082 66.1875 94.2773 65.9961 93.5742 65.6133C92.8789 65.2227 92.332 64.6602 91.9336 63.9258C91.5352 63.1914 91.3359 62.3008 91.3359 61.2539V53.543H93.7266V61.0781C93.7266 62.0625 93.9961 62.8008 94.5352 63.293C95.0742 63.7852 95.7227 64.0312 96.4805 64.0312C97.0664 64.0312 97.582 63.9023 98.0273 63.6445C98.4727 63.3789 98.8164 63.0234 99.0586 62.5781C99.3086 62.125 99.4336 61.625 99.4336 61.0781V53.543H101.824V62.2852C101.824 62.8086 101.891 63.1992 102.023 63.457C102.156 63.7148 102.426 63.9219 102.832 64.0781L101.941 66.1875C101.293 65.9219 100.781 65.5859 100.406 65.1797C100.039 64.7734 99.8516 64.3438 99.8438 63.8906L100.77 64.4062H99.1992L100.406 63.6211C100.047 64.3086 99.5 64.9102 98.7656 65.4258C98.0312 65.9336 97.1055 66.1875 95.9883 66.1875ZM105.164 66V53.543H107.531V55.4062H107.859L107.145 56.2031C107.363 55.7188 107.664 55.2578 108.047 54.8203C108.438 54.3828 108.906 54.0312 109.453 53.7656C110.008 53.4922 110.645 53.3555 111.363 53.3555C111.645 53.3555 111.906 53.375 112.148 53.4141C112.391 53.4531 112.562 53.4922 112.664 53.5312L111.691 55.8398C111.637 55.8086 111.523 55.7812 111.352 55.7578C111.18 55.7266 110.988 55.7109 110.777 55.7109C110.434 55.7109 110.074 55.7852 109.699 55.9336C109.324 56.082 108.973 56.2969 108.645 56.5781C108.324 56.8516 108.062 57.1953 107.859 57.6094C107.656 58.0234 107.555 58.5 107.555 59.0391V66H105.164ZM125.848 66.1406C124.957 66.1406 124.129 65.9805 123.363 65.6602C122.598 65.332 121.926 64.875 121.348 64.2891C120.77 63.7031 120.32 63.0195 120 62.2383C119.68 61.457 119.52 60.6133 119.52 59.707C119.52 58.7695 119.684 57.9141 120.012 57.1406C120.34 56.3594 120.793 55.6875 121.371 55.125C121.957 54.5547 122.625 54.1133 123.375 53.8008C124.125 53.4883 124.926 53.332 125.777 53.332C126.504 53.332 127.207 53.4414 127.887 53.6602C128.566 53.8789 129.16 54.1719 129.668 54.5391L128.766 56.5312C128.539 56.3203 128.262 56.1406 127.934 55.9922C127.613 55.8359 127.27 55.7148 126.902 55.6289C126.535 55.543 126.18 55.5 125.836 55.5C125.102 55.5 124.438 55.6797 123.844 56.0391C123.25 56.3906 122.777 56.8867 122.426 57.5273C122.082 58.1602 121.91 58.8984 121.91 59.7422C121.91 60.5469 122.078 61.2695 122.414 61.9102C122.75 62.543 123.215 63.0469 123.809 63.4219C124.41 63.7891 125.094 63.9727 125.859 63.9727C126.469 63.9727 127.035 63.8711 127.559 63.668C128.09 63.4648 128.508 63.2148 128.812 62.918L129.703 64.9453C129.258 65.2812 128.699 65.5664 128.027 65.8008C127.355 66.0273 126.629 66.1406 125.848 66.1406ZM131.812 66V47.9531H134.203V54.9023H134.707L133.723 55.9102C133.91 55.3633 134.207 54.8984 134.613 54.5156C135.027 54.1328 135.52 53.8438 136.09 53.6484C136.66 53.4531 137.277 53.3555 137.941 53.3555C138.98 53.3555 139.82 53.582 140.461 54.0352C141.109 54.4805 141.582 55.0547 141.879 55.7578C142.176 56.4609 142.324 57.1953 142.324 57.9609V66H139.934V58.4766C139.934 57.4844 139.68 56.7383 139.172 56.2383C138.672 55.7383 138.008 55.4883 137.18 55.4883C136.625 55.4883 136.121 55.6016 135.668 55.8281C135.223 56.0469 134.867 56.3789 134.602 56.8242C134.336 57.2695 134.203 57.8203 134.203 58.4766V66H131.812ZM148.863 66.1875C148.074 66.1875 147.367 66.0352 146.742 65.7305C146.117 65.418 145.625 64.9805 145.266 64.418C144.906 63.8555 144.727 63.1953 144.727 62.4375C144.727 61.6406 144.941 60.9531 145.371 60.375C145.809 59.7969 146.445 59.3555 147.281 59.0508C148.117 58.7461 149.133 58.5938 150.328 58.5938H152.977V60.3633H150.434C149.355 60.3633 148.52 60.5391 147.926 60.8906C147.34 61.2344 147.047 61.7383 147.047 62.4023C147.047 62.7852 147.145 63.1133 147.34 63.3867C147.535 63.6523 147.797 63.8594 148.125 64.0078C148.461 64.1484 148.836 64.2188 149.25 64.2188C149.711 64.2188 150.199 64.1172 150.715 63.9141C151.23 63.7109 151.672 63.4062 152.039 63C152.406 62.5859 152.59 62.0742 152.59 61.4648V60.1758L152.484 59.4844V58.0312C152.484 57.8047 152.461 57.5469 152.414 57.2578C152.375 56.9609 152.273 56.6797 152.109 56.4141C151.953 56.1406 151.707 55.9141 151.371 55.7344C151.035 55.5547 150.578 55.4648 150 55.4648C149.617 55.4648 149.203 55.5117 148.758 55.6055C148.32 55.6992 147.895 55.8281 147.48 55.9922C147.074 56.1562 146.715 56.3438 146.402 56.5547L145.547 54.5391C145.93 54.3125 146.379 54.1094 146.895 53.9297C147.41 53.7422 147.957 53.5977 148.535 53.4961C149.113 53.3945 149.691 53.3438 150.27 53.3438C151.207 53.3438 151.969 53.4766 152.555 53.7422C153.148 54.0078 153.605 54.3672 153.926 54.8203C154.246 55.2734 154.465 55.7734 154.582 56.3203C154.707 56.8672 154.77 57.4219 154.77 57.9844V62.2031C154.77 62.7109 154.824 63.1094 154.934 63.3984C155.043 63.6797 155.242 63.875 155.531 63.9844L155.777 64.0781L154.887 66.1875L154.547 66.0469C154.031 65.8359 153.617 65.5508 153.305 65.1914C152.992 64.832 152.828 64.4727 152.812 64.1133L153.27 64.3359H152.426L153 64.0078C152.703 64.6016 152.184 65.1133 151.441 65.543C150.707 65.9727 149.848 66.1875 148.863 66.1875ZM158.109 66V53.5312H160.477V55.0898H160.957L160.055 56.0508C160.25 55.4648 160.555 54.9727 160.969 54.5742C161.391 54.168 161.887 53.8633 162.457 53.6602C163.035 53.4492 163.652 53.3438 164.309 53.3438C165.316 53.3438 166.137 53.5664 166.77 54.0117C167.41 54.457 167.879 55.0312 168.176 55.7344C168.48 56.4375 168.633 57.1797 168.633 57.9609V66H166.242V58.4766C166.242 57.4844 165.996 56.7383 165.504 56.2383C165.02 55.7383 164.355 55.4883 163.512 55.4883C162.949 55.4883 162.438 55.6055 161.977 55.8398C161.523 56.0664 161.164 56.4023 160.898 56.8477C160.633 57.293 160.5 57.8359 160.5 58.4766V66H158.109ZM171.609 66V53.5312H173.977V55.0898H174.457L173.555 56.0508C173.75 55.4648 174.055 54.9727 174.469 54.5742C174.891 54.168 175.387 53.8633 175.957 53.6602C176.535 53.4492 177.152 53.3438 177.809 53.3438C178.816 53.3438 179.637 53.5664 180.27 54.0117C180.91 54.457 181.379 55.0312 181.676 55.7344C181.98 56.4375 182.133 57.1797 182.133 57.9609V66H179.742V58.4766C179.742 57.4844 179.496 56.7383 179.004 56.2383C178.52 55.7383 177.855 55.4883 177.012 55.4883C176.449 55.4883 175.938 55.6055 175.477 55.8398C175.023 56.0664 174.664 56.4023 174.398 56.8477C174.133 57.293 174 57.8359 174 58.4766V66H171.609ZM190.512 66.1875C189.301 66.1875 188.23 65.9219 187.301 65.3906C186.379 64.8516 185.656 64.1016 185.133 63.1406C184.609 62.1719 184.348 61.043 184.348 59.7539C184.348 58.4492 184.605 57.3203 185.121 56.3672C185.637 55.4141 186.336 54.6758 187.219 54.1523C188.102 53.6211 189.086 53.3555 190.172 53.3555C191.234 53.3555 192.18 53.5977 193.008 54.082C193.844 54.5664 194.504 55.2422 194.988 56.1094C195.473 56.9688 195.715 57.9648 195.715 59.0977C195.715 59.4102 195.695 59.6992 195.656 59.9648C195.625 60.2227 195.59 60.4492 195.551 60.6445H186.152V58.8398H193.43C193.43 58.2148 193.297 57.6484 193.031 57.1406C192.766 56.625 192.387 56.2188 191.895 55.9219C191.41 55.6172 190.836 55.4648 190.172 55.4648C189.461 55.4648 188.836 55.6445 188.297 56.0039C187.758 56.3555 187.336 56.8516 187.031 57.4922C186.734 58.1328 186.586 58.8789 186.586 59.7305C186.586 60.5977 186.746 61.3594 187.066 62.0156C187.387 62.6641 187.844 63.1719 188.438 63.5391C189.031 63.8984 189.734 64.0781 190.547 64.0781C191.016 64.0781 191.453 64.0195 191.859 63.9023C192.266 63.7852 192.629 63.6367 192.949 63.457C193.27 63.2695 193.543 63.082 193.77 62.8945L194.637 64.9453C194.152 65.2891 193.551 65.582 192.832 65.8242C192.121 66.0664 191.348 66.1875 190.512 66.1875ZM200.941 66.1875C200.324 66.1875 199.816 66.0586 199.418 65.8008C199.02 65.5352 198.723 65.1602 198.527 64.6758C198.332 64.1836 198.234 63.6055 198.234 62.9414V47.9531H200.625V62.8594C200.625 63.0234 200.641 63.1992 200.672 63.3867C200.703 63.5664 200.781 63.7227 200.906 63.8555C201.031 63.9805 201.234 64.043 201.516 64.043C201.617 64.043 201.711 64.0352 201.797 64.0195C201.891 63.9961 201.98 63.9727 202.066 63.9492V66.0117C201.926 66.0664 201.754 66.1094 201.551 66.1406C201.355 66.1719 201.152 66.1875 200.941 66.1875ZM215.379 71.1094C214.449 71.1094 213.566 70.9844 212.73 70.7344C211.902 70.4922 211.246 70.2227 210.762 69.9258L211.629 67.8867C212.02 68.168 212.543 68.4219 213.199 68.6484C213.863 68.8828 214.543 69 215.238 69C215.824 69 216.418 68.8906 217.02 68.6719C217.621 68.4531 218.125 68.0977 218.531 67.6055C218.938 67.1211 219.141 66.4766 219.141 65.6719V64.1367H218.777L219.246 63V56.2148L218.59 55.0195H219.129V53.5312H221.461V65.543C221.461 66.5117 221.293 67.3438 220.957 68.0391C220.621 68.7422 220.164 69.3203 219.586 69.7734C219.016 70.2266 218.367 70.5625 217.641 70.7812C216.922 71 216.168 71.1094 215.379 71.1094ZM215.18 65.9883C214.453 65.9883 213.754 65.8438 213.082 65.5547C212.41 65.2656 211.812 64.8477 211.289 64.3008C210.766 63.7539 210.352 63.0898 210.047 62.3086C209.75 61.5195 209.602 60.6289 209.602 59.6367C209.602 58.3008 209.867 57.1641 210.398 56.2266C210.93 55.2891 211.625 54.5742 212.484 54.082C213.352 53.5898 214.281 53.3438 215.273 53.3438C216.328 53.3438 217.258 53.6094 218.062 54.1406C218.875 54.6719 219.508 55.4062 219.961 56.3438C220.422 57.2812 220.652 58.3516 220.652 59.5547C220.652 60.7812 220.414 61.8789 219.938 62.8477C219.461 63.8164 218.809 64.582 217.98 65.1445C217.16 65.707 216.227 65.9883 215.18 65.9883ZM215.625 63.8555C216.32 63.8555 216.938 63.6758 217.477 63.3164C218.016 62.9492 218.438 62.4453 218.742 61.8047C219.055 61.1641 219.211 60.4219 219.211 59.5781C219.211 58.7422 219.055 58.0195 218.742 57.4102C218.438 56.793 218.016 56.3164 217.477 55.9805C216.945 55.6445 216.332 55.4766 215.637 55.4766C214.918 55.4766 214.285 55.6523 213.738 56.0039C213.191 56.3477 212.766 56.832 212.461 57.457C212.156 58.0742 212.004 58.793 212.004 59.6133C212.004 60.4336 212.156 61.1641 212.461 61.8047C212.773 62.4375 213.203 62.9375 213.75 63.3047C214.297 63.6719 214.922 63.8555 215.625 63.8555ZM224.484 66V53.543H226.852V55.4062H227.18L226.465 56.2031C226.684 55.7188 226.984 55.2578 227.367 54.8203C227.758 54.3828 228.227 54.0312 228.773 53.7656C229.328 53.4922 229.965 53.3555 230.684 53.3555C230.965 53.3555 231.227 53.375 231.469 53.4141C231.711 53.4531 231.883 53.4922 231.984 53.5312L231.012 55.8398C230.957 55.8086 230.844 55.7812 230.672 55.7578C230.5 55.7266 230.309 55.7109 230.098 55.7109C229.754 55.7109 229.395 55.7852 229.02 55.9336C228.645 56.082 228.293 56.2969 227.965 56.5781C227.645 56.8516 227.383 57.1953 227.18 57.6094C226.977 58.0234 226.875 58.5 226.875 59.0391V66H224.484ZM238.254 66.1875C237.082 66.1875 236.031 65.9141 235.102 65.3672C234.172 64.8203 233.438 64.0586 232.898 63.082C232.359 62.1055 232.09 60.9805 232.09 59.707C232.09 58.457 232.359 57.3555 232.898 56.4023C233.438 55.4414 234.172 54.6953 235.102 54.1641C236.031 53.625 237.082 53.3555 238.254 53.3555C239.441 53.3555 240.5 53.625 241.43 54.1641C242.359 54.6953 243.09 55.4414 243.621 56.4023C244.152 57.3555 244.418 58.457 244.418 59.707C244.418 60.9805 244.148 62.1055 243.609 63.082C243.07 64.0586 242.336 64.8203 241.406 65.3672C240.477 65.9141 239.426 66.1875 238.254 66.1875ZM238.254 64.0312C238.988 64.0312 239.641 63.8516 240.211 63.4922C240.781 63.125 241.227 62.6211 241.547 61.9805C241.867 61.332 242.027 60.5742 242.027 59.707C242.027 58.8711 241.867 58.1367 241.547 57.5039C241.227 56.8711 240.781 56.3828 240.211 56.0391C239.641 55.6875 238.988 55.5117 238.254 55.5117C237.535 55.5117 236.891 55.6875 236.32 56.0391C235.75 56.3828 235.301 56.8711 234.973 57.5039C234.645 58.1289 234.48 58.8633 234.48 59.707C234.48 60.5742 234.641 61.332 234.961 61.9805C235.289 62.6211 235.734 63.125 236.297 63.4922C236.867 63.8516 237.52 64.0312 238.254 64.0312ZM248.977 66L245.344 53.543H247.793L249.492 60.0234L250.219 62.9297H250.312L251.227 60.5156L253.523 54.3633H254.73L257.016 60.5156L257.93 62.9297H258.023L258.773 60.0234L260.473 53.543H262.91L259.254 66H257.121L255.867 62.7656L254.168 58.418H254.074L252.375 62.7656L251.121 66H248.977ZM269.883 66.1875C268.633 66.1875 267.691 65.832 267.059 65.1211C266.426 64.4023 266.109 63.4844 266.109 62.3672V49.6172H268.5V62.168C268.5 62.7852 268.641 63.25 268.922 63.5625C269.211 63.8672 269.578 64.0195 270.023 64.0195C270.219 64.0195 270.398 63.9922 270.562 63.9375C270.727 63.8828 270.879 63.8203 271.02 63.75L271.875 65.7656C271.609 65.8828 271.312 65.9805 270.984 66.0586C270.664 66.1445 270.297 66.1875 269.883 66.1875ZM264.047 55.6055V53.5312H271.535V55.6055H264.047ZM273.961 66V47.9531H276.352V54.9023H276.855L275.871 55.9102C276.059 55.3633 276.355 54.8984 276.762 54.5156C277.176 54.1328 277.668 53.8438 278.238 53.6484C278.809 53.4531 279.426 53.3555 280.09 53.3555C281.129 53.3555 281.969 53.582 282.609 54.0352C283.258 54.4805 283.73 55.0547 284.027 55.7578C284.324 56.4609 284.473 57.1953 284.473 57.9609V66H282.082V58.4766C282.082 57.4844 281.828 56.7383 281.32 56.2383C280.82 55.7383 280.156 55.4883 279.328 55.4883C278.773 55.4883 278.27 55.6016 277.816 55.8281C277.371 56.0469 277.016 56.3789 276.75 56.8242C276.484 57.2695 276.352 57.8203 276.352 58.4766V66H273.961ZM296.988 66.1875C296.199 66.1875 295.492 66.0352 294.867 65.7305C294.242 65.418 293.75 64.9805 293.391 64.418C293.031 63.8555 292.852 63.1953 292.852 62.4375C292.852 61.6406 293.066 60.9531 293.496 60.375C293.934 59.7969 294.57 59.3555 295.406 59.0508C296.242 58.7461 297.258 58.5938 298.453 58.5938H301.102V60.3633H298.559C297.48 60.3633 296.645 60.5391 296.051 60.8906C295.465 61.2344 295.172 61.7383 295.172 62.4023C295.172 62.7852 295.27 63.1133 295.465 63.3867C295.66 63.6523 295.922 63.8594 296.25 64.0078C296.586 64.1484 296.961 64.2188 297.375 64.2188C297.836 64.2188 298.324 64.1172 298.84 63.9141C299.355 63.7109 299.797 63.4062 300.164 63C300.531 62.5859 300.715 62.0742 300.715 61.4648V60.1758L300.609 59.4844V58.0312C300.609 57.8047 300.586 57.5469 300.539 57.2578C300.5 56.9609 300.398 56.6797 300.234 56.4141C300.078 56.1406 299.832 55.9141 299.496 55.7344C299.16 55.5547 298.703 55.4648 298.125 55.4648C297.742 55.4648 297.328 55.5117 296.883 55.6055C296.445 55.6992 296.02 55.8281 295.605 55.9922C295.199 56.1562 294.84 56.3438 294.527 56.5547L293.672 54.5391C294.055 54.3125 294.504 54.1094 295.02 53.9297C295.535 53.7422 296.082 53.5977 296.66 53.4961C297.238 53.3945 297.816 53.3438 298.395 53.3438C299.332 53.3438 300.094 53.4766 300.68 53.7422C301.273 54.0078 301.73 54.3672 302.051 54.8203C302.371 55.2734 302.59 55.7734 302.707 56.3203C302.832 56.8672 302.895 57.4219 302.895 57.9844V62.2031C302.895 62.7109 302.949 63.1094 303.059 63.3984C303.168 63.6797 303.367 63.875 303.656 63.9844L303.902 64.0781L303.012 66.1875L302.672 66.0469C302.156 65.8359 301.742 65.5508 301.43 65.1914C301.117 64.832 300.953 64.4727 300.938 64.1133L301.395 64.3359H300.551L301.125 64.0078C300.828 64.6016 300.309 65.1133 299.566 65.543C298.832 65.9727 297.973 66.1875 296.988 66.1875ZM306.234 66V53.5312H308.602V55.0898H309.082L308.18 56.0508C308.375 55.4648 308.68 54.9727 309.094 54.5742C309.516 54.168 310.012 53.8633 310.582 53.6602C311.16 53.4492 311.777 53.3438 312.434 53.3438C313.441 53.3438 314.262 53.5664 314.895 54.0117C315.535 54.457 316.004 55.0312 316.301 55.7344C316.605 56.4375 316.758 57.1797 316.758 57.9609V66H314.367V58.4766C314.367 57.4844 314.121 56.7383 313.629 56.2383C313.145 55.7383 312.48 55.4883 311.637 55.4883C311.074 55.4883 310.562 55.6055 310.102 55.8398C309.648 56.0664 309.289 56.4023 309.023 56.8477C308.758 57.293 308.625 57.8359 308.625 58.4766V66H306.234ZM330.926 66.1875C330.426 65.9688 330.02 65.7422 329.707 65.5078C329.395 65.2734 329.16 65.0156 329.004 64.7344C328.848 64.4531 328.762 64.1328 328.746 63.7734L329.25 64.043H328.125L328.734 62.6367V56.2031L328.148 54.9492H328.418V47.9531H330.809V62.3555C330.809 62.8555 330.875 63.2266 331.008 63.4688C331.148 63.7031 331.418 63.9062 331.816 64.0781L330.926 66.1875ZM324.551 66.1875C323.809 66.1875 323.102 66.043 322.43 65.7539C321.758 65.457 321.16 65.0312 320.637 64.4766C320.121 63.9219 319.711 63.25 319.406 62.4609C319.109 61.6641 318.965 60.7617 318.973 59.7539C318.965 58.418 319.219 57.2695 319.734 56.3086C320.258 55.3477 320.945 54.6133 321.797 54.1055C322.656 53.5898 323.582 53.332 324.574 53.332C325.621 53.332 326.551 53.6055 327.363 54.1523C328.176 54.6992 328.812 55.4531 329.273 56.4141C329.742 57.375 329.98 58.4805 329.988 59.7305C329.98 60.957 329.742 62.0586 329.273 63.0352C328.805 64.0117 328.16 64.7812 327.34 65.3438C326.527 65.9062 325.598 66.1875 324.551 66.1875ZM325.02 64.0781C325.707 64.0781 326.32 63.8906 326.859 63.5156C327.406 63.1406 327.836 62.6289 328.148 61.9805C328.461 61.3242 328.617 60.5781 328.617 59.7422C328.617 58.8516 328.453 58.0859 328.125 57.4453C327.805 56.7969 327.371 56.3008 326.824 55.957C326.285 55.6133 325.688 55.4414 325.031 55.4414C324.32 55.4414 323.688 55.6211 323.133 55.9805C322.578 56.3398 322.145 56.8438 321.832 57.4922C321.52 58.1406 321.367 58.8906 321.375 59.7422C321.367 60.5781 321.52 61.3242 321.832 61.9805C322.145 62.6289 322.574 63.1406 323.121 63.5156C323.676 63.8906 324.309 64.0781 325.02 64.0781ZM340.301 66V53.543H342.691V66H340.301ZM341.496 51.668C341.02 51.668 340.617 51.5039 340.289 51.1758C339.969 50.8477 339.809 50.4492 339.809 49.9805C339.809 49.5117 339.969 49.1133 340.289 48.7852C340.617 48.457 341.02 48.293 341.496 48.293C341.965 48.293 342.363 48.457 342.691 48.7852C343.02 49.1133 343.184 49.5117 343.184 49.9805C343.184 50.4492 343.02 50.8477 342.691 51.1758C342.363 51.5039 341.965 51.668 341.496 51.668ZM357.082 66.1875C356.582 65.9688 356.176 65.7422 355.863 65.5078C355.551 65.2734 355.316 65.0156 355.16 64.7344C355.004 64.4531 354.918 64.1328 354.902 63.7734L355.406 64.043H354.281L354.891 62.6367V56.2031L354.305 54.9492H354.574V47.9531H356.965V62.3555C356.965 62.8555 357.031 63.2266 357.164 63.4688C357.305 63.7031 357.574 63.9062 357.973 64.0781L357.082 66.1875ZM350.707 66.1875C349.965 66.1875 349.258 66.043 348.586 65.7539C347.914 65.457 347.316 65.0312 346.793 64.4766C346.277 63.9219 345.867 63.25 345.562 62.4609C345.266 61.6641 345.121 60.7617 345.129 59.7539C345.121 58.418 345.375 57.2695 345.891 56.3086C346.414 55.3477 347.102 54.6133 347.953 54.1055C348.812 53.5898 349.738 53.332 350.73 53.332C351.777 53.332 352.707 53.6055 353.52 54.1523C354.332 54.6992 354.969 55.4531 355.43 56.4141C355.898 57.375 356.137 58.4805 356.145 59.7305C356.137 60.957 355.898 62.0586 355.43 63.0352C354.961 64.0117 354.316 64.7812 353.496 65.3438C352.684 65.9062 351.754 66.1875 350.707 66.1875ZM351.176 64.0781C351.863 64.0781 352.477 63.8906 353.016 63.5156C353.562 63.1406 353.992 62.6289 354.305 61.9805C354.617 61.3242 354.773 60.5781 354.773 59.7422C354.773 58.8516 354.609 58.0859 354.281 57.4453C353.961 56.7969 353.527 56.3008 352.98 55.957C352.441 55.6133 351.844 55.4414 351.188 55.4414C350.477 55.4414 349.844 55.6211 349.289 55.9805C348.734 56.3398 348.301 56.8438 347.988 57.4922C347.676 58.1406 347.523 58.8906 347.531 59.7422C347.523 60.5781 347.676 61.3242 347.988 61.9805C348.301 62.6289 348.73 63.1406 349.277 63.5156C349.832 63.8906 350.465 64.0781 351.176 64.0781ZM365.801 66.1875C364.59 66.1875 363.52 65.9219 362.59 65.3906C361.668 64.8516 360.945 64.1016 360.422 63.1406C359.898 62.1719 359.637 61.043 359.637 59.7539C359.637 58.4492 359.895 57.3203 360.41 56.3672C360.926 55.4141 361.625 54.6758 362.508 54.1523C363.391 53.6211 364.375 53.3555 365.461 53.3555C366.523 53.3555 367.469 53.5977 368.297 54.082C369.133 54.5664 369.793 55.2422 370.277 56.1094C370.762 56.9688 371.004 57.9648 371.004 59.0977C371.004 59.4102 370.984 59.6992 370.945 59.9648C370.914 60.2227 370.879 60.4492 370.84 60.6445H361.441V58.8398H368.719C368.719 58.2148 368.586 57.6484 368.32 57.1406C368.055 56.625 367.676 56.2188 367.184 55.9219C366.699 55.6172 366.125 55.4648 365.461 55.4648C364.75 55.4648 364.125 55.6445 363.586 56.0039C363.047 56.3555 362.625 56.8516 362.32 57.4922C362.023 58.1328 361.875 58.8789 361.875 59.7305C361.875 60.5977 362.035 61.3594 362.355 62.0156C362.676 62.6641 363.133 63.1719 363.727 63.5391C364.32 63.8984 365.023 64.0781 365.836 64.0781C366.305 64.0781 366.742 64.0195 367.148 63.9023C367.555 63.7852 367.918 63.6367 368.238 63.457C368.559 63.2695 368.832 63.082 369.059 62.8945L369.926 64.9453C369.441 65.2891 368.84 65.582 368.121 65.8242C367.41 66.0664 366.637 66.1875 365.801 66.1875ZM373.477 66V53.5312H375.844V55.0898H376.324L375.422 56.0508C375.617 55.4648 375.922 54.9727 376.336 54.5742C376.758 54.168 377.254 53.8633 377.824 53.6602C378.402 53.4492 379.02 53.3438 379.676 53.3438C380.684 53.3438 381.504 53.5664 382.137 54.0117C382.777 54.457 383.246 55.0312 383.543 55.7344C383.848 56.4375 384 57.1797 384 57.9609V66H381.609V58.4766C381.609 57.4844 381.363 56.7383 380.871 56.2383C380.387 55.7383 379.723 55.4883 378.879 55.4883C378.316 55.4883 377.805 55.6055 377.344 55.8398C376.891 56.0664 376.531 56.4023 376.266 56.8477C376 57.293 375.867 57.8359 375.867 58.4766V66H373.477ZM391.664 66.1875C390.414 66.1875 389.473 65.832 388.84 65.1211C388.207 64.4023 387.891 63.4844 387.891 62.3672V49.6172H390.281V62.168C390.281 62.7852 390.422 63.25 390.703 63.5625C390.992 63.8672 391.359 64.0195 391.805 64.0195C392 64.0195 392.18 63.9922 392.344 63.9375C392.508 63.8828 392.66 63.8203 392.801 63.75L393.656 65.7656C393.391 65.8828 393.094 65.9805 392.766 66.0586C392.445 66.1445 392.078 66.1875 391.664 66.1875ZM385.828 55.6055V53.5312H393.316V55.6055H385.828ZM395.824 66V53.543H398.215V66H395.824ZM397.02 51.668C396.543 51.668 396.141 51.5039 395.812 51.1758C395.492 50.8477 395.332 50.4492 395.332 49.9805C395.332 49.5117 395.492 49.1133 395.812 48.7852C396.141 48.457 396.543 48.293 397.02 48.293C397.488 48.293 397.887 48.457 398.215 48.7852C398.543 49.1133 398.707 49.5117 398.707 49.9805C398.707 50.4492 398.543 50.8477 398.215 51.1758C397.887 51.5039 397.488 51.668 397.02 51.668ZM400.453 55.6641V53.543H408.117V55.6641H400.453ZM402.668 66V51.5508C402.668 50.4258 402.996 49.5078 403.652 48.7969C404.309 48.0859 405.27 47.7305 406.535 47.7305C406.941 47.7305 407.305 47.7656 407.625 47.8359C407.953 47.8984 408.246 47.9883 408.504 48.1055L407.648 50.168C407.508 50.0664 407.344 50 407.156 49.9688C406.977 49.9297 406.797 49.9102 406.617 49.9102C406.133 49.9102 405.75 50.0703 405.469 50.3906C405.195 50.7031 405.059 51.1562 405.059 51.75V66H402.668ZM411.762 71.1094C411.285 71.1094 410.832 71.0547 410.402 70.9453C409.973 70.8438 409.66 70.7461 409.465 70.6523L410.344 68.5664C410.578 68.6836 410.82 68.7773 411.07 68.8477C411.328 68.9258 411.566 68.9648 411.785 68.9648C412.238 68.9727 412.609 68.8633 412.898 68.6367C413.195 68.418 413.422 68.1602 413.578 67.8633C413.742 67.5664 413.859 67.3086 413.93 67.0898L414.551 65.2031L414.527 66.5859L409.125 53.543H411.703L414.504 60.9844L415.383 63.375H415.477L416.273 60.9844L418.84 53.543H421.359L416.016 67.6641C415.906 67.9609 415.754 68.3047 415.559 68.6953C415.371 69.0859 415.117 69.4648 414.797 69.832C414.477 70.1992 414.07 70.5039 413.578 70.7461C413.094 70.9883 412.488 71.1094 411.762 71.1094ZM431.906 66L428.273 53.543H430.723L432.422 60.0234L433.148 62.9297H433.242L434.156 60.5156L436.453 54.3633H437.66L439.945 60.5156L440.859 62.9297H440.953L441.703 60.0234L443.402 53.543H445.84L442.184 66H440.051L438.797 62.7656L437.098 58.418H437.004L435.305 62.7656L434.051 66H431.906ZM447.914 66V47.9531H450.305V54.9023H450.809L449.824 55.9102C450.012 55.3633 450.309 54.8984 450.715 54.5156C451.129 54.1328 451.621 53.8438 452.191 53.6484C452.762 53.4531 453.379 53.3555 454.043 53.3555C455.082 53.3555 455.922 53.582 456.562 54.0352C457.211 54.4805 457.684 55.0547 457.98 55.7578C458.277 56.4609 458.426 57.1953 458.426 57.9609V66H456.035V58.4766C456.035 57.4844 455.781 56.7383 455.273 56.2383C454.773 55.7383 454.109 55.4883 453.281 55.4883C452.727 55.4883 452.223 55.6016 451.77 55.8281C451.324 56.0469 450.969 56.3789 450.703 56.8242C450.438 57.2695 450.305 57.8203 450.305 58.4766V66H447.914ZM464.965 66.1875C464.176 66.1875 463.469 66.0352 462.844 65.7305C462.219 65.418 461.727 64.9805 461.367 64.418C461.008 63.8555 460.828 63.1953 460.828 62.4375C460.828 61.6406 461.043 60.9531 461.473 60.375C461.91 59.7969 462.547 59.3555 463.383 59.0508C464.219 58.7461 465.234 58.5938 466.43 58.5938H469.078V60.3633H466.535C465.457 60.3633 464.621 60.5391 464.027 60.8906C463.441 61.2344 463.148 61.7383 463.148 62.4023C463.148 62.7852 463.246 63.1133 463.441 63.3867C463.637 63.6523 463.898 63.8594 464.227 64.0078C464.562 64.1484 464.938 64.2188 465.352 64.2188C465.812 64.2188 466.301 64.1172 466.816 63.9141C467.332 63.7109 467.773 63.4062 468.141 63C468.508 62.5859 468.691 62.0742 468.691 61.4648V60.1758L468.586 59.4844V58.0312C468.586 57.8047 468.562 57.5469 468.516 57.2578C468.477 56.9609 468.375 56.6797 468.211 56.4141C468.055 56.1406 467.809 55.9141 467.473 55.7344C467.137 55.5547 466.68 55.4648 466.102 55.4648C465.719 55.4648 465.305 55.5117 464.859 55.6055C464.422 55.6992 463.996 55.8281 463.582 55.9922C463.176 56.1562 462.816 56.3438 462.504 56.5547L461.648 54.5391C462.031 54.3125 462.48 54.1094 462.996 53.9297C463.512 53.7422 464.059 53.5977 464.637 53.4961C465.215 53.3945 465.793 53.3438 466.371 53.3438C467.309 53.3438 468.07 53.4766 468.656 53.7422C469.25 54.0078 469.707 54.3672 470.027 54.8203C470.348 55.2734 470.566 55.7734 470.684 56.3203C470.809 56.8672 470.871 57.4219 470.871 57.9844V62.2031C470.871 62.7109 470.926 63.1094 471.035 63.3984C471.145 63.6797 471.344 63.875 471.633 63.9844L471.879 64.0781L470.988 66.1875L470.648 66.0469C470.133 65.8359 469.719 65.5508 469.406 65.1914C469.094 64.832 468.93 64.4727 468.914 64.1133L469.371 64.3359H468.527L469.102 64.0078C468.805 64.6016 468.285 65.1133 467.543 65.543C466.809 65.9727 465.949 66.1875 464.965 66.1875ZM478.781 66.1875C477.531 66.1875 476.59 65.832 475.957 65.1211C475.324 64.4023 475.008 63.4844 475.008 62.3672V49.6172H477.398V62.168C477.398 62.7852 477.539 63.25 477.82 63.5625C478.109 63.8672 478.477 64.0195 478.922 64.0195C479.117 64.0195 479.297 63.9922 479.461 63.9375C479.625 63.8828 479.777 63.8203 479.918 63.75L480.773 65.7656C480.508 65.8828 480.211 65.9805 479.883 66.0586C479.562 66.1445 479.195 66.1875 478.781 66.1875ZM472.945 55.6055V53.5312H480.434V55.6055H472.945ZM494.496 66.1406C493.605 66.1406 492.777 65.9805 492.012 65.6602C491.246 65.332 490.574 64.875 489.996 64.2891C489.418 63.7031 488.969 63.0195 488.648 62.2383C488.328 61.457 488.168 60.6133 488.168 59.707C488.168 58.7695 488.332 57.9141 488.66 57.1406C488.988 56.3594 489.441 55.6875 490.02 55.125C490.605 54.5547 491.273 54.1133 492.023 53.8008C492.773 53.4883 493.574 53.332 494.426 53.332C495.152 53.332 495.855 53.4414 496.535 53.6602C497.215 53.8789 497.809 54.1719 498.316 54.5391L497.414 56.5312C497.188 56.3203 496.91 56.1406 496.582 55.9922C496.262 55.8359 495.918 55.7148 495.551 55.6289C495.184 55.543 494.828 55.5 494.484 55.5C493.75 55.5 493.086 55.6797 492.492 56.0391C491.898 56.3906 491.426 56.8867 491.074 57.5273C490.73 58.1602 490.559 58.8984 490.559 59.7422C490.559 60.5469 490.727 61.2695 491.062 61.9102C491.398 62.543 491.863 63.0469 492.457 63.4219C493.059 63.7891 493.742 63.9727 494.508 63.9727C495.117 63.9727 495.684 63.8711 496.207 63.668C496.738 63.4648 497.156 63.2148 497.461 62.918L498.352 64.9453C497.906 65.2812 497.348 65.5664 496.676 65.8008C496.004 66.0273 495.277 66.1406 494.496 66.1406ZM505.559 66.1875C504.387 66.1875 503.336 65.9141 502.406 65.3672C501.477 64.8203 500.742 64.0586 500.203 63.082C499.664 62.1055 499.395 60.9805 499.395 59.707C499.395 58.457 499.664 57.3555 500.203 56.4023C500.742 55.4414 501.477 54.6953 502.406 54.1641C503.336 53.625 504.387 53.3555 505.559 53.3555C506.746 53.3555 507.805 53.625 508.734 54.1641C509.664 54.6953 510.395 55.4414 510.926 56.4023C511.457 57.3555 511.723 58.457 511.723 59.707C511.723 60.9805 511.453 62.1055 510.914 63.082C510.375 64.0586 509.641 64.8203 508.711 65.3672C507.781 65.9141 506.73 66.1875 505.559 66.1875ZM505.559 64.0312C506.293 64.0312 506.945 63.8516 507.516 63.4922C508.086 63.125 508.531 62.6211 508.852 61.9805C509.172 61.332 509.332 60.5742 509.332 59.707C509.332 58.8711 509.172 58.1367 508.852 57.5039C508.531 56.8711 508.086 56.3828 507.516 56.0391C506.945 55.6875 506.293 55.5117 505.559 55.5117C504.84 55.5117 504.195 55.6875 503.625 56.0391C503.055 56.3828 502.605 56.8711 502.277 57.5039C501.949 58.1289 501.785 58.8633 501.785 59.707C501.785 60.5742 501.945 61.332 502.266 61.9805C502.594 62.6211 503.039 63.125 503.602 63.4922C504.172 63.8516 504.824 64.0312 505.559 64.0312ZM514.102 66V53.5312H516.469V55.0898H516.949L516.047 56.0508C516.242 55.4648 516.547 54.9727 516.961 54.5742C517.383 54.168 517.879 53.8633 518.449 53.6602C519.027 53.4492 519.645 53.3438 520.301 53.3438C521.309 53.3438 522.129 53.5664 522.762 54.0117C523.402 54.457 523.871 55.0312 524.168 55.7344C524.473 56.4375 524.625 57.1797 524.625 57.9609V66H522.234V58.4766C522.234 57.4844 521.988 56.7383 521.496 56.2383C521.012 55.7383 520.348 55.4883 519.504 55.4883C518.941 55.4883 518.43 55.6055 517.969 55.8398C517.516 56.0664 517.156 56.4023 516.891 56.8477C516.625 57.293 516.492 57.8359 516.492 58.4766V66H514.102ZM532.289 66.1875C531.039 66.1875 530.098 65.832 529.465 65.1211C528.832 64.4023 528.516 63.4844 528.516 62.3672V49.6172H530.906V62.168C530.906 62.7852 531.047 63.25 531.328 63.5625C531.617 63.8672 531.984 64.0195 532.43 64.0195C532.625 64.0195 532.805 63.9922 532.969 63.9375C533.133 63.8828 533.285 63.8203 533.426 63.75L534.281 65.7656C534.016 65.8828 533.719 65.9805 533.391 66.0586C533.07 66.1445 532.703 66.1875 532.289 66.1875ZM526.453 55.6055V53.5312H533.941V55.6055H526.453ZM541.418 66.1875C540.207 66.1875 539.137 65.9219 538.207 65.3906C537.285 64.8516 536.562 64.1016 536.039 63.1406C535.516 62.1719 535.254 61.043 535.254 59.7539C535.254 58.4492 535.512 57.3203 536.027 56.3672C536.543 55.4141 537.242 54.6758 538.125 54.1523C539.008 53.6211 539.992 53.3555 541.078 53.3555C542.141 53.3555 543.086 53.5977 543.914 54.082C544.75 54.5664 545.41 55.2422 545.895 56.1094C546.379 56.9688 546.621 57.9648 546.621 59.0977C546.621 59.4102 546.602 59.6992 546.562 59.9648C546.531 60.2227 546.496 60.4492 546.457 60.6445H537.059V58.8398H544.336C544.336 58.2148 544.203 57.6484 543.938 57.1406C543.672 56.625 543.293 56.2188 542.801 55.9219C542.316 55.6172 541.742 55.4648 541.078 55.4648C540.367 55.4648 539.742 55.6445 539.203 56.0039C538.664 56.3555 538.242 56.8516 537.938 57.4922C537.641 58.1328 537.492 58.8789 537.492 59.7305C537.492 60.5977 537.652 61.3594 537.973 62.0156C538.293 62.6641 538.75 63.1719 539.344 63.5391C539.938 63.8984 540.641 64.0781 541.453 64.0781C541.922 64.0781 542.359 64.0195 542.766 63.9023C543.172 63.7852 543.535 63.6367 543.855 63.457C544.176 63.2695 544.449 63.082 544.676 62.8945L545.543 64.9453C545.059 65.2891 544.457 65.582 543.738 65.8242C543.027 66.0664 542.254 66.1875 541.418 66.1875ZM549.094 66V53.5312H551.461V55.0898H551.941L551.039 56.0508C551.234 55.4648 551.539 54.9727 551.953 54.5742C552.375 54.168 552.871 53.8633 553.441 53.6602C554.02 53.4492 554.637 53.3438 555.293 53.3438C556.301 53.3438 557.121 53.5664 557.754 54.0117C558.395 54.457 558.863 55.0312 559.16 55.7344C559.465 56.4375 559.617 57.1797 559.617 57.9609V66H557.227V58.4766C557.227 57.4844 556.98 56.7383 556.488 56.2383C556.004 55.7383 555.34 55.4883 554.496 55.4883C553.934 55.4883 553.422 55.6055 552.961 55.8398C552.508 56.0664 552.148 56.4023 551.883 56.8477C551.617 57.293 551.484 57.8359 551.484 58.4766V66H549.094ZM567.281 66.1875C566.031 66.1875 565.09 65.832 564.457 65.1211C563.824 64.4023 563.508 63.4844 563.508 62.3672V49.6172H565.898V62.168C565.898 62.7852 566.039 63.25 566.32 63.5625C566.609 63.8672 566.977 64.0195 567.422 64.0195C567.617 64.0195 567.797 63.9922 567.961 63.9375C568.125 63.8828 568.277 63.8203 568.418 63.75L569.273 65.7656C569.008 65.8828 568.711 65.9805 568.383 66.0586C568.062 66.1445 567.695 66.1875 567.281 66.1875ZM561.445 55.6055V53.5312H568.934V55.6055H561.445ZM1.52344 101.922V84.543H3.87891V86.0781H4.20703L3.57422 87.2617V93.9883L4.33594 95.418H3.91406V101.922H1.52344ZM7.80469 97.1875C6.75781 97.1875 5.82422 96.9062 5.00391 96.3438C4.19141 95.7812 3.55078 95.0117 3.08203 94.0352C2.61328 93.0586 2.375 91.957 2.36719 90.7305C2.375 89.4805 2.60938 88.375 3.07031 87.4141C3.53906 86.4531 4.17969 85.6992 4.99219 85.1523C5.80469 84.6055 6.73438 84.332 7.78125 84.332C8.77344 84.332 9.69531 84.5898 10.5469 85.1055C11.4062 85.6133 12.0938 86.3477 12.6094 87.3086C13.1328 88.2695 13.3906 89.418 13.3828 90.7539C13.3906 91.7617 13.2422 92.6641 12.9375 93.4609C12.6406 94.25 12.2305 94.9219 11.707 95.4766C11.1914 96.0312 10.5977 96.457 9.92578 96.7539C9.25391 97.043 8.54688 97.1875 7.80469 97.1875ZM7.33594 95.0781C8.04688 95.0781 8.67578 94.8906 9.22266 94.5156C9.77734 94.1406 10.2109 93.6289 10.5234 92.9805C10.8359 92.3242 10.9883 91.5781 10.9805 90.7422C10.9883 89.8906 10.8359 89.1406 10.5234 88.4922C10.2109 87.8438 9.77734 87.3398 9.22266 86.9805C8.66797 86.6211 8.03516 86.4414 7.32422 86.4414C6.66797 86.4414 6.06641 86.6133 5.51953 86.957C4.98047 87.3008 4.54688 87.7969 4.21875 88.4453C3.89844 89.0859 3.73828 89.8516 3.73828 90.7422C3.73828 91.5781 3.89453 92.3242 4.20703 92.9805C4.51953 93.6289 4.94531 94.1406 5.48438 94.5156C6.03125 94.8906 6.64844 95.0781 7.33594 95.0781ZM21.293 97.1875C20.082 97.1875 19.0117 96.9219 18.082 96.3906C17.1602 95.8516 16.4375 95.1016 15.9141 94.1406C15.3906 93.1719 15.1289 92.043 15.1289 90.7539C15.1289 89.4492 15.3867 88.3203 15.9023 87.3672C16.418 86.4141 17.1172 85.6758 18 85.1523C18.8828 84.6211 19.8672 84.3555 20.9531 84.3555C22.0156 84.3555 22.9609 84.5977 23.7891 85.082C24.625 85.5664 25.2852 86.2422 25.7695 87.1094C26.2539 87.9688 26.4961 88.9648 26.4961 90.0977C26.4961 90.4102 26.4766 90.6992 26.4375 90.9648C26.4062 91.2227 26.3711 91.4492 26.332 91.6445H16.9336V89.8398H24.2109C24.2109 89.2148 24.0781 88.6484 23.8125 88.1406C23.5469 87.625 23.168 87.2188 22.6758 86.9219C22.1914 86.6172 21.6172 86.4648 20.9531 86.4648C20.2422 86.4648 19.6172 86.6445 19.0781 87.0039C18.5391 87.3555 18.1172 87.8516 17.8125 88.4922C17.5156 89.1328 17.3672 89.8789 17.3672 90.7305C17.3672 91.5977 17.5273 92.3594 17.8477 93.0156C18.168 93.6641 18.625 94.1719 19.2188 94.5391C19.8125 94.8984 20.5156 95.0781 21.3281 95.0781C21.7969 95.0781 22.2344 95.0195 22.6406 94.9023C23.0469 94.7852 23.4102 94.6367 23.7305 94.457C24.0508 94.2695 24.3242 94.082 24.5508 93.8945L25.418 95.9453C24.9336 96.2891 24.332 96.582 23.6133 96.8242C22.9023 97.0664 22.1289 97.1875 21.293 97.1875ZM28.9688 97V84.543H31.3359V86.4062H31.6641L30.9492 87.2031C31.168 86.7188 31.4688 86.2578 31.8516 85.8203C32.2422 85.3828 32.7109 85.0312 33.2578 84.7656C33.8125 84.4922 34.4492 84.3555 35.168 84.3555C35.4492 84.3555 35.7109 84.375 35.9531 84.4141C36.1953 84.4531 36.3672 84.4922 36.4688 84.5312L35.4961 86.8398C35.4414 86.8086 35.3281 86.7812 35.1562 86.7578C34.9844 86.7266 34.793 86.7109 34.582 86.7109C34.2383 86.7109 33.8789 86.7852 33.5039 86.9336C33.1289 87.082 32.7773 87.2969 32.4492 87.5781C32.1289 87.8516 31.8672 88.1953 31.6641 88.6094C31.4609 89.0234 31.3594 89.5 31.3594 90.0391V97H28.9688ZM37.1484 86.6641V84.543H44.8125V86.6641H37.1484ZM39.3633 97V82.5508C39.3633 81.4258 39.6914 80.5078 40.3477 79.7969C41.0039 79.0859 41.9648 78.7305 43.2305 78.7305C43.6367 78.7305 44 78.7656 44.3203 78.8359C44.6484 78.8984 44.9414 78.9883 45.1992 79.1055L44.3438 81.168C44.2031 81.0664 44.0391 81 43.8516 80.9688C43.6719 80.9297 43.4922 80.9102 43.3125 80.9102C42.8281 80.9102 42.4453 81.0703 42.1641 81.3906C41.8906 81.7031 41.7539 82.1562 41.7539 82.75V97H39.3633ZM51.5508 97.1875C50.3789 97.1875 49.3281 96.9141 48.3984 96.3672C47.4688 95.8203 46.7344 95.0586 46.1953 94.082C45.6562 93.1055 45.3867 91.9805 45.3867 90.707C45.3867 89.457 45.6562 88.3555 46.1953 87.4023C46.7344 86.4414 47.4688 85.6953 48.3984 85.1641C49.3281 84.625 50.3789 84.3555 51.5508 84.3555C52.7383 84.3555 53.7969 84.625 54.7266 85.1641C55.6562 85.6953 56.3867 86.4414 56.918 87.4023C57.4492 88.3555 57.7148 89.457 57.7148 90.707C57.7148 91.9805 57.4453 93.1055 56.9062 94.082C56.3672 95.0586 55.6328 95.8203 54.7031 96.3672C53.7734 96.9141 52.7227 97.1875 51.5508 97.1875ZM51.5508 95.0312C52.2852 95.0312 52.9375 94.8516 53.5078 94.4922C54.0781 94.125 54.5234 93.6211 54.8438 92.9805C55.1641 92.332 55.3242 91.5742 55.3242 90.707C55.3242 89.8711 55.1641 89.1367 54.8438 88.5039C54.5234 87.8711 54.0781 87.3828 53.5078 87.0391C52.9375 86.6875 52.2852 86.5117 51.5508 86.5117C50.832 86.5117 50.1875 86.6875 49.6172 87.0391C49.0469 87.3828 48.5977 87.8711 48.2695 88.5039C47.9414 89.1289 47.7773 89.8633 47.7773 90.707C47.7773 91.5742 47.9375 92.332 48.2578 92.9805C48.5859 93.6211 49.0312 94.125 49.5938 94.4922C50.1641 94.8516 50.8164 95.0312 51.5508 95.0312ZM60.0938 97V84.543H62.4609V86.4062H62.7891L62.0742 87.2031C62.293 86.7188 62.5938 86.2578 62.9766 85.8203C63.3672 85.3828 63.8359 85.0312 64.3828 84.7656C64.9375 84.4922 65.5742 84.3555 66.293 84.3555C66.5742 84.3555 66.8359 84.375 67.0781 84.4141C67.3203 84.4531 67.4922 84.4922 67.5938 84.5312L66.6211 86.8398C66.5664 86.8086 66.4531 86.7812 66.2812 86.7578C66.1094 86.7266 65.918 86.7109 65.707 86.7109C65.3633 86.7109 65.0039 86.7852 64.6289 86.9336C64.2539 87.082 63.9023 87.2969 63.5742 87.5781C63.2539 87.8516 62.9922 88.1953 62.7891 88.6094C62.5859 89.0234 62.4844 89.5 62.4844 90.0391V97H60.0938ZM69.1406 97V84.543H71.4844V86.043H71.8945L70.957 87.2031C71.2773 86.2969 71.7852 85.5977 72.4805 85.1055C73.1758 84.6055 73.9844 84.3555 74.9062 84.3555C75.8125 84.3555 76.5781 84.5859 77.2031 85.0469C77.8281 85.5078 78.2539 86.1094 78.4805 86.8516L77.6602 86.1133H78.8086L77.8008 86.8516C78.1758 86.0156 78.7422 85.3906 79.5 84.9766C80.2656 84.5625 81.0977 84.3555 81.9961 84.3555C82.7148 84.3555 83.3398 84.4766 83.8711 84.7188C84.4102 84.9609 84.8516 85.2969 85.1953 85.7266C85.5469 86.1484 85.8047 86.6328 85.9688 87.1797C86.1406 87.7266 86.2266 88.3008 86.2266 88.9023V97H83.8359V89.3359C83.8359 88.3984 83.6211 87.6914 83.1914 87.2148C82.7617 86.7305 82.1836 86.4883 81.457 86.4883C80.9961 86.4883 80.5703 86.5938 80.1797 86.8047C79.7891 87.0156 79.4727 87.332 79.2305 87.7539C78.9961 88.168 78.8789 88.6953 78.8789 89.3359V97H76.4883V89.3359C76.4883 88.3984 76.2695 87.6914 75.832 87.2148C75.3945 86.7305 74.8125 86.4883 74.0859 86.4883C73.3984 86.4883 72.8008 86.7305 72.293 87.2148C71.7852 87.6992 71.5312 88.4336 71.5312 89.418V97H69.1406ZM92.9883 97.1875C92.2383 97.1875 91.5547 97.0508 90.9375 96.7773C90.3203 96.4961 89.793 96.1328 89.3555 95.6875C88.9258 95.2344 88.6211 94.7539 88.4414 94.2461L90.5273 93.3672C90.6992 93.8203 91.0078 94.2227 91.4531 94.5742C91.9062 94.918 92.418 95.0898 92.9883 95.0898C93.3398 95.0898 93.668 95.0234 93.9727 94.8906C94.2852 94.75 94.5352 94.5625 94.7227 94.3281C94.918 94.0859 95.0156 93.8047 95.0156 93.4844C95.0156 93.1641 94.918 92.8906 94.7227 92.6641C94.5273 92.4297 94.2773 92.2344 93.9727 92.0781C93.668 91.9141 93.3516 91.7773 93.0234 91.668C92.6953 91.5586 92.4023 91.4609 92.1445 91.375C91.6445 91.2109 91.1367 90.9922 90.6211 90.7188C90.1055 90.4453 89.668 90.0781 89.3086 89.6172C88.957 89.1484 88.7812 88.5508 88.7812 87.8242C88.7812 87.0977 88.9648 86.4766 89.332 85.9609C89.707 85.4375 90.1992 85.0391 90.8086 84.7656C91.4258 84.4844 92.0898 84.3438 92.8008 84.3438C93.8242 84.3438 94.6914 84.6016 95.4023 85.1172C96.1211 85.625 96.6289 86.2109 96.9258 86.875L94.8633 87.7422C94.6914 87.4141 94.4453 87.1094 94.125 86.8281C93.8047 86.5391 93.375 86.3945 92.8359 86.3945C92.3672 86.3945 91.9531 86.5195 91.5938 86.7695C91.2422 87.0195 91.0664 87.375 91.0664 87.8359C91.0664 88.2266 91.1914 88.543 91.4414 88.7852C91.6992 89.0195 92.0195 89.2148 92.4023 89.3711C92.7852 89.5195 93.1758 89.6562 93.5742 89.7812C93.9023 89.8828 94.2734 90.0195 94.6875 90.1914C95.1094 90.3633 95.5156 90.5859 95.9062 90.8594C96.3047 91.1328 96.6328 91.4766 96.8906 91.8906C97.1562 92.3047 97.2891 92.8125 97.2891 93.4141C97.2891 94.1484 97.0898 94.8008 96.6914 95.3711C96.293 95.9414 95.7656 96.3867 95.1094 96.707C94.4609 97.0273 93.7539 97.1875 92.9883 97.1875ZM105.703 97V78.9531H108.094V85.9961H108.293L107.801 87.4375V94.1523L108.457 95.3711H108.047V97H105.703ZM111.984 97.1875C110.938 97.1875 110.004 96.9062 109.184 96.3438C108.371 95.7812 107.73 95.0117 107.262 94.0352C106.793 93.0586 106.555 91.957 106.547 90.7305C106.555 89.4805 106.789 88.375 107.25 87.4141C107.719 86.4531 108.359 85.6992 109.172 85.1523C109.984 84.6055 110.914 84.332 111.961 84.332C112.953 84.332 113.875 84.5898 114.727 85.1055C115.586 85.6133 116.273 86.3477 116.789 87.3086C117.312 88.2695 117.57 89.418 117.562 90.7539C117.57 91.7617 117.422 92.6641 117.117 93.4609C116.82 94.25 116.41 94.9219 115.887 95.4766C115.371 96.0312 114.777 96.457 114.105 96.7539C113.434 97.043 112.727 97.1875 111.984 97.1875ZM111.516 95.0781C112.227 95.0781 112.855 94.8906 113.402 94.5156C113.957 94.1406 114.391 93.6289 114.703 92.9805C115.016 92.3242 115.168 91.5781 115.16 90.7422C115.168 89.8906 115.016 89.1406 114.703 88.4922C114.391 87.8438 113.957 87.3398 113.402 86.9805C112.848 86.6211 112.215 86.4414 111.504 86.4414C110.848 86.4414 110.246 86.6133 109.699 86.957C109.16 87.3008 108.727 87.7969 108.398 88.4453C108.078 89.0859 107.918 89.8516 107.918 90.7422C107.918 91.5781 108.074 92.3242 108.387 92.9805C108.699 93.6289 109.125 94.1406 109.664 94.5156C110.211 94.8906 110.828 95.0781 111.516 95.0781ZM125.473 97.1875C124.262 97.1875 123.191 96.9219 122.262 96.3906C121.34 95.8516 120.617 95.1016 120.094 94.1406C119.57 93.1719 119.309 92.043 119.309 90.7539C119.309 89.4492 119.566 88.3203 120.082 87.3672C120.598 86.4141 121.297 85.6758 122.18 85.1523C123.062 84.6211 124.047 84.3555 125.133 84.3555C126.195 84.3555 127.141 84.5977 127.969 85.082C128.805 85.5664 129.465 86.2422 129.949 87.1094C130.434 87.9688 130.676 88.9648 130.676 90.0977C130.676 90.4102 130.656 90.6992 130.617 90.9648C130.586 91.2227 130.551 91.4492 130.512 91.6445H121.113V89.8398H128.391C128.391 89.2148 128.258 88.6484 127.992 88.1406C127.727 87.625 127.348 87.2188 126.855 86.9219C126.371 86.6172 125.797 86.4648 125.133 86.4648C124.422 86.4648 123.797 86.6445 123.258 87.0039C122.719 87.3555 122.297 87.8516 121.992 88.4922C121.695 89.1328 121.547 89.8789 121.547 90.7305C121.547 91.5977 121.707 92.3594 122.027 93.0156C122.348 93.6641 122.805 94.1719 123.398 94.5391C123.992 94.8984 124.695 95.0781 125.508 95.0781C125.977 95.0781 126.414 95.0195 126.82 94.9023C127.227 94.7852 127.59 94.6367 127.91 94.457C128.23 94.2695 128.504 94.082 128.73 93.8945L129.598 95.9453C129.113 96.2891 128.512 96.582 127.793 96.8242C127.082 97.0664 126.309 97.1875 125.473 97.1875ZM136.816 97.1875C136.066 97.1875 135.383 97.0508 134.766 96.7773C134.148 96.4961 133.621 96.1328 133.184 95.6875C132.754 95.2344 132.449 94.7539 132.27 94.2461L134.355 93.3672C134.527 93.8203 134.836 94.2227 135.281 94.5742C135.734 94.918 136.246 95.0898 136.816 95.0898C137.168 95.0898 137.496 95.0234 137.801 94.8906C138.113 94.75 138.363 94.5625 138.551 94.3281C138.746 94.0859 138.844 93.8047 138.844 93.4844C138.844 93.1641 138.746 92.8906 138.551 92.6641C138.355 92.4297 138.105 92.2344 137.801 92.0781C137.496 91.9141 137.18 91.7773 136.852 91.668C136.523 91.5586 136.23 91.4609 135.973 91.375C135.473 91.2109 134.965 90.9922 134.449 90.7188C133.934 90.4453 133.496 90.0781 133.137 89.6172C132.785 89.1484 132.609 88.5508 132.609 87.8242C132.609 87.0977 132.793 86.4766 133.16 85.9609C133.535 85.4375 134.027 85.0391 134.637 84.7656C135.254 84.4844 135.918 84.3438 136.629 84.3438C137.652 84.3438 138.52 84.6016 139.23 85.1172C139.949 85.625 140.457 86.2109 140.754 86.875L138.691 87.7422C138.52 87.4141 138.273 87.1094 137.953 86.8281C137.633 86.5391 137.203 86.3945 136.664 86.3945C136.195 86.3945 135.781 86.5195 135.422 86.7695C135.07 87.0195 134.895 87.375 134.895 87.8359C134.895 88.2266 135.02 88.543 135.27 88.7852C135.527 89.0195 135.848 89.2148 136.23 89.3711C136.613 89.5195 137.004 89.6562 137.402 89.7812C137.73 89.8828 138.102 90.0195 138.516 90.1914C138.938 90.3633 139.344 90.5859 139.734 90.8594C140.133 91.1328 140.461 91.4766 140.719 91.8906C140.984 92.3047 141.117 92.8125 141.117 93.4141C141.117 94.1484 140.918 94.8008 140.52 95.3711C140.121 95.9414 139.594 96.3867 138.938 96.707C138.289 97.0273 137.582 97.1875 136.816 97.1875ZM148.266 97.1875C147.016 97.1875 146.074 96.832 145.441 96.1211C144.809 95.4023 144.492 94.4844 144.492 93.3672V80.6172H146.883V93.168C146.883 93.7852 147.023 94.25 147.305 94.5625C147.594 94.8672 147.961 95.0195 148.406 95.0195C148.602 95.0195 148.781 94.9922 148.945 94.9375C149.109 94.8828 149.262 94.8203 149.402 94.75L150.258 96.7656C149.992 96.8828 149.695 96.9805 149.367 97.0586C149.047 97.1445 148.68 97.1875 148.266 97.1875ZM142.43 86.6055V84.5312H149.918V86.6055H142.43ZM153.562 97.1875C153.102 97.1875 152.707 97.0234 152.379 96.6953C152.051 96.3672 151.887 95.9727 151.887 95.5117C151.887 95.0508 152.051 94.6562 152.379 94.3281C152.707 94 153.102 93.8359 153.562 93.8359C154.031 93.8359 154.426 94 154.746 94.3281C155.074 94.6562 155.238 95.0508 155.238 95.5117C155.238 95.9805 155.074 96.3789 154.746 96.707C154.426 97.0273 154.031 97.1875 153.562 97.1875Z" fill="#6B6B6B"/>
<line x1="75" y1="162.25" x2="575" y2="162.25" stroke="#F5F5F5" stroke-width="1.5"/>
<line x1="75" y1="282.25" x2="575" y2="282.25" stroke="#F5F5F5" stroke-width="1.5"/>
<line x1="75" y1="522.25" x2="575" y2="522.25" stroke="#F5F5F5" stroke-width="1.5"/>
<line x1="75" y1="402.25" x2="575" y2="402.25" stroke="#F5F5F5" stroke-width="1.5"/>
<path d="M574.27 182.885C570.129 175.079 560.444 172.108 552.638 176.249C544.832 180.39 541.861 190.075 546.002 197.881C550.143 205.688 559.828 208.659 567.634 204.518C575.44 200.377 578.412 190.691 574.27 182.885ZM409 327.5L409.542 330.451L410.477 330.279L411.143 329.6L409 327.5ZM245.5 361.5L244.834 358.575L244.476 358.657L244.149 358.822L245.5 361.5ZM335.5 341L334.958 338.05L334.896 338.061L334.834 338.075L335.5 341ZM482.5 252.5L480.626 250.158L480.484 250.271L480.357 250.4L482.5 252.5ZM245.5 361.5L244.149 358.822L82.1679 440.545L83.5192 443.224L84.8706 445.902L246.851 364.179L245.5 361.5ZM409 327.5L408.458 324.549L334.958 338.05L335.5 341L336.042 343.951L409.542 330.451L409 327.5ZM335.5 341L334.834 338.075L244.834 358.575L245.5 361.5L246.166 364.425L336.166 343.925L335.5 341ZM560.136 190.383L558.262 188.041L480.626 250.158L482.5 252.5L484.374 254.843L562.01 192.726L560.136 190.383ZM482.5 252.5L480.357 250.4L406.857 325.4L409 327.5L411.143 329.6L484.643 254.6L482.5 252.5Z" fill="#632DD9"/>
<path d="M128.135 551.117C127.549 551.117 127.041 550.988 126.611 550.729C126.187 550.465 125.854 550.102 125.615 549.638C125.376 549.174 125.249 548.637 125.234 548.026H126.553C126.562 548.598 126.702 549.057 126.97 549.403C127.244 549.745 127.617 549.916 128.091 549.916C128.403 549.916 128.684 549.84 128.933 549.689C129.182 549.538 129.38 549.303 129.526 548.986C129.673 548.668 129.746 548.261 129.746 547.763V540.204H131.064V547.733C131.064 548.485 130.935 549.113 130.676 549.616C130.417 550.114 130.066 550.49 129.622 550.744C129.182 550.993 128.687 551.117 128.135 551.117ZM135.43 551.117C134.951 551.117 134.519 551.024 134.133 550.839C133.748 550.653 133.442 550.39 133.218 550.048C132.993 549.701 132.881 549.286 132.881 548.803C132.881 548.29 133.02 547.853 133.298 547.492C133.577 547.13 133.979 546.857 134.507 546.671C135.034 546.481 135.674 546.386 136.426 546.386H138.037V547.396H136.514C135.747 547.396 135.154 547.519 134.734 547.763C134.319 548.007 134.111 548.354 134.111 548.803C134.111 549.062 134.177 549.284 134.309 549.469C134.441 549.65 134.617 549.789 134.836 549.887C135.061 549.984 135.308 550.033 135.576 550.033C135.898 550.033 136.23 549.962 136.572 549.821C136.919 549.674 137.209 549.464 137.444 549.191C137.683 548.913 137.803 548.573 137.803 548.173V547.367L137.773 546.913V546.049C137.773 545.922 137.764 545.761 137.744 545.565C137.725 545.365 137.666 545.167 137.568 544.972C137.476 544.777 137.317 544.613 137.092 544.481C136.868 544.345 136.553 544.276 136.147 544.276C135.908 544.276 135.649 544.308 135.371 544.372C135.098 544.43 134.829 544.513 134.565 544.621C134.307 544.728 134.077 544.853 133.877 544.994L133.394 543.866C133.652 543.715 133.94 543.583 134.258 543.471C134.58 543.354 134.912 543.263 135.254 543.2C135.601 543.136 135.938 543.104 136.265 543.104C136.792 543.104 137.229 543.183 137.576 543.339C137.927 543.495 138.206 543.71 138.411 543.983C138.616 544.257 138.76 544.569 138.843 544.921C138.931 545.268 138.975 545.634 138.975 546.02V548.744C138.975 549.071 139.009 549.33 139.077 549.521C139.15 549.711 139.277 549.843 139.458 549.916L139.604 549.975L139.121 551.117L138.916 551.029C138.643 550.912 138.408 550.739 138.213 550.509C138.018 550.28 137.92 550.053 137.92 549.828L138.169 549.916H137.686L138.008 549.711C137.817 550.097 137.493 550.429 137.034 550.707C136.58 550.98 136.045 551.117 135.43 551.117ZM141.172 551V543.236H142.432V544.188H142.725L142.183 544.73C142.314 544.379 142.51 544.083 142.769 543.844C143.027 543.605 143.333 543.424 143.684 543.302C144.036 543.18 144.414 543.119 144.819 543.119C145.474 543.119 146.001 543.263 146.401 543.551C146.807 543.839 147.1 544.206 147.28 544.65C147.466 545.094 147.559 545.551 147.559 546.02V551H146.299V546.283C146.299 545.624 146.135 545.128 145.808 544.796C145.486 544.459 145.039 544.291 144.468 544.291C144.087 544.291 143.743 544.369 143.435 544.525C143.127 544.677 142.883 544.901 142.703 545.199C142.522 545.492 142.432 545.854 142.432 546.283V551H141.172Z" fill="#6B6B6B"/>
<path d="M191.26 551V540.204H197.046V541.405H192.578V545.067H196.416V546.269H192.578V551H191.26ZM201.338 551.117C200.61 551.117 199.963 550.954 199.397 550.626C198.835 550.294 198.394 549.828 198.071 549.228C197.749 548.627 197.588 547.919 197.588 547.104C197.588 546.293 197.744 545.59 198.057 544.994C198.369 544.398 198.794 543.937 199.331 543.61C199.873 543.283 200.483 543.119 201.162 543.119C201.831 543.119 202.422 543.273 202.935 543.581C203.447 543.883 203.848 544.303 204.136 544.84C204.429 545.377 204.575 545.99 204.575 546.679C204.575 546.889 204.563 547.077 204.539 547.243C204.519 547.409 204.502 547.533 204.487 547.616H198.54V546.591H203.345C203.345 546.171 203.257 545.788 203.081 545.441C202.905 545.089 202.654 544.811 202.327 544.606C202 544.396 201.611 544.291 201.162 544.291C200.703 544.291 200.298 544.408 199.946 544.643C199.595 544.877 199.319 545.207 199.119 545.631C198.918 546.051 198.818 546.542 198.818 547.104C198.818 547.67 198.923 548.168 199.133 548.598C199.343 549.022 199.641 549.354 200.027 549.594C200.413 549.828 200.869 549.945 201.396 549.945C201.709 549.945 201.992 549.906 202.246 549.828C202.505 549.745 202.732 549.645 202.927 549.528C203.127 549.406 203.296 549.286 203.433 549.169L203.916 550.312C203.618 550.531 203.245 550.722 202.795 550.883C202.351 551.039 201.865 551.117 201.338 551.117ZM206.23 551V539.721H207.49V544.218H207.607L207.3 545.023V549.198L207.725 549.945H207.49V551H206.23ZM209.98 551.117C209.331 551.117 208.752 550.946 208.245 550.604C207.742 550.258 207.344 549.782 207.051 549.176C206.763 548.571 206.616 547.88 206.611 547.104C206.616 546.312 206.763 545.617 207.051 545.016C207.344 544.416 207.742 543.947 208.245 543.61C208.752 543.273 209.331 543.104 209.98 543.104C210.61 543.104 211.191 543.268 211.724 543.595C212.256 543.917 212.683 544.379 213.005 544.979C213.328 545.575 213.486 546.283 213.481 547.104C213.486 547.714 213.396 548.266 213.21 548.759C213.025 549.252 212.769 549.674 212.441 550.026C212.119 550.377 211.746 550.648 211.321 550.839C210.901 551.024 210.454 551.117 209.98 551.117ZM209.761 549.975C210.234 549.975 210.654 549.85 211.021 549.601C211.392 549.347 211.68 549.005 211.885 548.576C212.095 548.141 212.197 547.65 212.192 547.104C212.197 546.542 212.095 546.046 211.885 545.617C211.68 545.187 211.392 544.853 211.021 544.613C210.654 544.369 210.234 544.247 209.761 544.247C209.326 544.247 208.928 544.362 208.567 544.591C208.206 544.821 207.915 545.15 207.695 545.58C207.48 546.005 207.373 546.513 207.373 547.104C207.373 547.65 207.476 548.141 207.681 548.576C207.891 549.005 208.174 549.347 208.53 549.601C208.892 549.85 209.302 549.975 209.761 549.975Z" fill="#6B6B6B"/>
<path d="M266.26 551V540.204H267.358L271.108 546.869H271.167L274.917 540.204H276.016V551H274.697V545.155L274.727 543.002H274.668L271.372 548.905H270.903L267.607 543.002H267.549L267.578 545.155V551H266.26ZM280.469 551.117C279.99 551.117 279.558 551.024 279.172 550.839C278.787 550.653 278.481 550.39 278.257 550.048C278.032 549.701 277.92 549.286 277.92 548.803C277.92 548.29 278.059 547.853 278.337 547.492C278.616 547.13 279.019 546.857 279.546 546.671C280.073 546.481 280.713 546.386 281.465 546.386H283.076V547.396H281.553C280.786 547.396 280.193 547.519 279.773 547.763C279.358 548.007 279.15 548.354 279.15 548.803C279.15 549.062 279.216 549.284 279.348 549.469C279.48 549.65 279.656 549.789 279.875 549.887C280.1 549.984 280.347 550.033 280.615 550.033C280.938 550.033 281.27 549.962 281.611 549.821C281.958 549.674 282.249 549.464 282.483 549.191C282.722 548.913 282.842 548.573 282.842 548.173V547.367L282.812 546.913V546.049C282.812 545.922 282.803 545.761 282.783 545.565C282.764 545.365 282.705 545.167 282.607 544.972C282.515 544.777 282.356 544.613 282.131 544.481C281.907 544.345 281.592 544.276 281.187 544.276C280.947 544.276 280.688 544.308 280.41 544.372C280.137 544.43 279.868 544.513 279.604 544.621C279.346 544.728 279.116 544.853 278.916 544.994L278.433 543.866C278.691 543.715 278.979 543.583 279.297 543.471C279.619 543.354 279.951 543.263 280.293 543.2C280.64 543.136 280.977 543.104 281.304 543.104C281.831 543.104 282.268 543.183 282.615 543.339C282.966 543.495 283.245 543.71 283.45 543.983C283.655 544.257 283.799 544.569 283.882 544.921C283.97 545.268 284.014 545.634 284.014 546.02V548.744C284.014 549.071 284.048 549.33 284.116 549.521C284.189 549.711 284.316 549.843 284.497 549.916L284.644 549.975L284.16 551.117L283.955 551.029C283.682 550.912 283.447 550.739 283.252 550.509C283.057 550.28 282.959 550.053 282.959 549.828L283.208 549.916H282.725L283.047 549.711C282.856 550.097 282.532 550.429 282.073 550.707C281.619 550.98 281.084 551.117 280.469 551.117ZM286.211 551V543.236H287.471V544.423H287.676L287.251 544.906C287.393 544.584 287.583 544.289 287.822 544.02C288.066 543.747 288.357 543.529 288.694 543.368C289.036 543.202 289.424 543.119 289.858 543.119C290.029 543.119 290.188 543.131 290.334 543.156C290.486 543.175 290.591 543.197 290.649 543.222L290.137 544.438C290.107 544.423 290.042 544.411 289.939 544.401C289.836 544.386 289.722 544.379 289.595 544.379C289.37 544.379 289.133 544.428 288.884 544.525C288.64 544.623 288.411 544.765 288.196 544.95C287.981 545.136 287.805 545.365 287.668 545.639C287.537 545.907 287.471 546.215 287.471 546.562V551H286.211Z" fill="#6B6B6B"/>
<path d="M345.117 551L349.585 540.204H350.669L355.137 551H353.76L352.427 547.777L352.251 547.309L350.156 542.006H350.098L348.003 547.309L347.827 547.777L346.494 551H345.117ZM347.197 548.173V546.972H353.057V548.173H347.197ZM356.265 554.076V543.236H357.524V544.247H357.7L357.305 544.965V549.052L357.759 549.945H357.524V554.076H356.265ZM360.015 551.117C359.365 551.117 358.787 550.946 358.279 550.604C357.776 550.258 357.378 549.782 357.085 549.176C356.797 548.571 356.65 547.88 356.646 547.104C356.65 546.312 356.797 545.617 357.085 545.016C357.378 544.416 357.776 543.947 358.279 543.61C358.787 543.273 359.365 543.104 360.015 543.104C360.645 543.104 361.226 543.268 361.758 543.595C362.29 543.917 362.717 544.379 363.04 544.979C363.362 545.575 363.521 546.283 363.516 547.104C363.521 547.714 363.43 548.266 363.245 548.759C363.059 549.252 362.803 549.674 362.476 550.026C362.153 550.377 361.78 550.648 361.355 550.839C360.935 551.024 360.488 551.117 360.015 551.117ZM359.795 549.975C360.269 549.975 360.688 549.85 361.055 549.601C361.426 549.347 361.714 549.005 361.919 548.576C362.129 548.141 362.231 547.65 362.227 547.104C362.231 546.542 362.129 546.046 361.919 545.617C361.714 545.187 361.426 544.853 361.055 544.613C360.688 544.369 360.269 544.247 359.795 544.247C359.36 544.247 358.962 544.362 358.601 544.591C358.24 544.821 357.949 545.15 357.729 545.58C357.515 546.005 357.407 546.513 357.407 547.104C357.407 547.65 357.51 548.141 357.715 548.576C357.925 549.005 358.208 549.347 358.564 549.601C358.926 549.85 359.336 549.975 359.795 549.975ZM365.112 551V543.236H366.372V544.423H366.577L366.152 544.906C366.294 544.584 366.484 544.289 366.724 544.02C366.968 543.747 367.258 543.529 367.595 543.368C367.937 543.202 368.325 543.119 368.76 543.119C368.931 543.119 369.089 543.131 369.236 543.156C369.387 543.175 369.492 543.197 369.551 543.222L369.038 544.438C369.009 544.423 368.943 544.411 368.84 544.401C368.738 544.386 368.623 544.379 368.496 544.379C368.271 544.379 368.035 544.428 367.786 544.525C367.542 544.623 367.312 544.765 367.097 544.95C366.882 545.136 366.707 545.365 366.57 545.639C366.438 545.907 366.372 546.215 366.372 546.562V551H365.112Z" fill="#6B6B6B"/>
<path d="M424.26 551V540.204H425.358L429.108 546.869H429.167L432.917 540.204H434.016V551H432.697V545.155L432.727 543.002H432.668L429.372 548.905H428.903L425.607 543.002H425.549L425.578 545.155V551H424.26ZM438.469 551.117C437.99 551.117 437.558 551.024 437.172 550.839C436.787 550.653 436.481 550.39 436.257 550.048C436.032 549.701 435.92 549.286 435.92 548.803C435.92 548.29 436.059 547.853 436.337 547.492C436.616 547.13 437.019 546.857 437.546 546.671C438.073 546.481 438.713 546.386 439.465 546.386H441.076V547.396H439.553C438.786 547.396 438.193 547.519 437.773 547.763C437.358 548.007 437.15 548.354 437.15 548.803C437.15 549.062 437.216 549.284 437.348 549.469C437.48 549.65 437.656 549.789 437.875 549.887C438.1 549.984 438.347 550.033 438.615 550.033C438.938 550.033 439.27 549.962 439.611 549.821C439.958 549.674 440.249 549.464 440.483 549.191C440.722 548.913 440.842 548.573 440.842 548.173V547.367L440.812 546.913V546.049C440.812 545.922 440.803 545.761 440.783 545.565C440.764 545.365 440.705 545.167 440.607 544.972C440.515 544.777 440.356 544.613 440.131 544.481C439.907 544.345 439.592 544.276 439.187 544.276C438.947 544.276 438.688 544.308 438.41 544.372C438.137 544.43 437.868 544.513 437.604 544.621C437.346 544.728 437.116 544.853 436.916 544.994L436.433 543.866C436.691 543.715 436.979 543.583 437.297 543.471C437.619 543.354 437.951 543.263 438.293 543.2C438.64 543.136 438.977 543.104 439.304 543.104C439.831 543.104 440.268 543.183 440.615 543.339C440.966 543.495 441.245 543.71 441.45 543.983C441.655 544.257 441.799 544.569 441.882 544.921C441.97 545.268 442.014 545.634 442.014 546.02V548.744C442.014 549.071 442.048 549.33 442.116 549.521C442.189 549.711 442.316 549.843 442.497 549.916L442.644 549.975L442.16 551.117L441.955 551.029C441.682 550.912 441.447 550.739 441.252 550.509C441.057 550.28 440.959 550.053 440.959 549.828L441.208 549.916H440.725L441.047 549.711C440.856 550.097 440.532 550.429 440.073 550.707C439.619 550.98 439.084 551.117 438.469 551.117ZM444.753 554.193C444.455 554.193 444.177 554.159 443.918 554.091C443.659 554.022 443.479 553.959 443.376 553.9L443.859 552.758C444.016 552.836 444.177 552.899 444.343 552.948C444.509 552.997 444.66 553.021 444.797 553.021C445.095 553.026 445.339 552.953 445.529 552.802C445.725 552.655 445.876 552.482 445.983 552.282C446.091 552.086 446.169 551.918 446.218 551.776L446.613 550.604L446.643 551.366L443.259 543.236H444.636L446.467 547.968L447.067 549.564H447.126L447.668 547.968L449.338 543.236H450.671L447.331 552.084C447.268 552.26 447.175 552.465 447.053 552.699C446.936 552.938 446.779 553.17 446.584 553.395C446.389 553.625 446.142 553.815 445.844 553.966C445.546 554.118 445.183 554.193 444.753 554.193Z" fill="#6B6B6B"/>
<path d="M497.135 551.117C496.549 551.117 496.041 550.988 495.611 550.729C495.187 550.465 494.854 550.102 494.615 549.638C494.376 549.174 494.249 548.637 494.234 548.026H495.553C495.562 548.598 495.702 549.057 495.97 549.403C496.244 549.745 496.617 549.916 497.091 549.916C497.403 549.916 497.684 549.84 497.933 549.689C498.182 549.538 498.38 549.303 498.526 548.986C498.673 548.668 498.746 548.261 498.746 547.763V540.204H500.064V547.733C500.064 548.485 499.935 549.113 499.676 549.616C499.417 550.114 499.066 550.49 498.622 550.744C498.182 550.993 497.687 551.117 497.135 551.117ZM505.089 551.117C504.513 551.117 504.007 550.995 503.573 550.751C503.138 550.507 502.799 550.155 502.555 549.696C502.311 549.232 502.188 548.676 502.188 548.026V543.236H503.448V547.968C503.448 548.627 503.629 549.123 503.99 549.455C504.356 549.782 504.796 549.945 505.309 549.945C505.709 549.945 506.058 549.857 506.356 549.682C506.659 549.501 506.893 549.262 507.059 548.964C507.23 548.661 507.315 548.329 507.315 547.968V543.236H508.575V548.803C508.575 549.145 508.617 549.401 508.7 549.572C508.783 549.738 508.951 549.872 509.205 549.975L508.722 551.117C508.365 550.946 508.075 550.734 507.85 550.48C507.63 550.221 507.521 549.965 507.521 549.711L508.121 549.975H507.14L507.799 549.535C507.604 549.95 507.281 550.319 506.832 550.641C506.383 550.958 505.802 551.117 505.089 551.117ZM510.772 551V543.236H512.032V544.188H512.325L511.783 544.73C511.915 544.379 512.11 544.083 512.369 543.844C512.628 543.605 512.933 543.424 513.285 543.302C513.636 543.18 514.015 543.119 514.42 543.119C515.074 543.119 515.602 543.263 516.002 543.551C516.407 543.839 516.7 544.206 516.881 544.65C517.066 545.094 517.159 545.551 517.159 546.02V551H515.899V546.283C515.899 545.624 515.736 545.128 515.409 544.796C515.086 544.459 514.64 544.291 514.068 544.291C513.688 544.291 513.343 544.369 513.036 544.525C512.728 544.677 512.484 544.901 512.303 545.199C512.123 545.492 512.032 545.854 512.032 546.283V551H510.772Z" fill="#6B6B6B"/>
<path d="M40.5469 407.156C39.7005 407.156 38.9225 406.98 38.2129 406.629C37.5098 406.277 36.9434 405.789 36.5137 405.164C36.0905 404.533 35.8789 403.797 35.8789 402.957L37.6367 402.918C37.6367 403.439 37.7637 403.898 38.0176 404.295C38.2715 404.692 38.6165 405.001 39.0527 405.223C39.4889 405.444 39.9805 405.555 40.5273 405.555C41.0872 405.555 41.5885 405.438 42.0312 405.203C42.4805 404.969 42.832 404.65 43.0859 404.246C43.3464 403.842 43.4766 403.387 43.4766 402.879C43.4766 402.378 43.3431 401.928 43.0762 401.531C42.8158 401.134 42.4316 400.822 41.9238 400.594C41.4225 400.359 40.8073 400.242 40.0781 400.242H39.4727V398.719H40.1562C40.7031 398.719 41.1784 398.605 41.582 398.377C41.9922 398.149 42.3079 397.846 42.5293 397.469C42.7572 397.085 42.8711 396.661 42.8711 396.199C42.8711 395.75 42.7734 395.366 42.5781 395.047C42.3828 394.728 42.1094 394.484 41.7578 394.314C41.4128 394.139 41.0091 394.051 40.5469 394.051C40.0586 394.051 39.6354 394.142 39.2773 394.324C38.9258 394.507 38.6523 394.764 38.457 395.096C38.2617 395.421 38.1641 395.802 38.1641 396.238H36.4062C36.4062 395.529 36.5723 394.887 36.9043 394.314C37.2428 393.742 37.7181 393.289 38.3301 392.957C38.9486 392.618 39.6745 392.449 40.5078 392.449C41.2891 392.449 41.9922 392.602 42.6172 392.908C43.2422 393.208 43.737 393.631 44.1016 394.178C44.4661 394.725 44.6484 395.359 44.6484 396.082C44.6484 396.798 44.4792 397.43 44.1406 397.977C43.8021 398.517 43.3529 398.937 42.793 399.236C42.2396 399.529 41.6406 399.663 40.9961 399.637V399.246C41.7839 399.214 42.4967 399.354 43.1348 399.666C43.7793 399.979 44.2904 400.421 44.668 400.994C45.0456 401.567 45.2344 402.228 45.2344 402.977C45.2344 403.758 45.026 404.464 44.6094 405.096C44.1992 405.727 43.6393 406.229 42.9297 406.6C42.2266 406.971 41.4323 407.156 40.5469 407.156ZM48.0273 407V392.605H49.7852V399.285H50.3125L49.5508 399.637L55.8203 392.605H58.1055L51.2695 400.242V399.363L58.5156 407H56.1914L49.5508 400.008L50.3125 400.32H49.7852V407H48.0273Z" fill="#6B6B6B"/>
<path d="M40.8203 284.156C39.8893 284.156 39.0625 283.951 38.3398 283.541C37.6172 283.131 37.0475 282.581 36.6309 281.891C36.2207 281.201 36.0156 280.439 36.0156 279.605C36.0156 279.098 36.084 278.613 36.2207 278.15C36.3639 277.682 36.5397 277.249 36.748 276.852C36.9564 276.454 37.168 276.103 37.3828 275.797L41.6992 269.605H43.7695L39.4531 275.641L39.0234 275.562C39.2904 275.315 39.6029 275.139 39.9609 275.035C40.3255 274.931 40.7031 274.879 41.0938 274.879C41.9206 274.879 42.6758 275.077 43.3594 275.475C44.0495 275.865 44.5996 276.409 45.0098 277.105C45.4199 277.796 45.625 278.59 45.625 279.488C45.625 280.38 45.4167 281.178 45 281.881C44.5833 282.584 44.0104 283.141 43.2812 283.551C42.5586 283.954 41.7383 284.156 40.8203 284.156ZM40.8203 282.555C41.4128 282.555 41.9368 282.424 42.3926 282.164C42.8483 281.897 43.2064 281.536 43.4668 281.08C43.7337 280.618 43.8672 280.094 43.8672 279.508C43.8672 278.922 43.7337 278.401 43.4668 277.945C43.2064 277.49 42.8483 277.132 42.3926 276.871C41.9368 276.611 41.4128 276.48 40.8203 276.48C40.2279 276.48 39.7038 276.611 39.248 276.871C38.7923 277.132 38.431 277.49 38.1641 277.945C37.9036 278.401 37.7734 278.922 37.7734 279.508C37.7734 280.094 37.9036 280.618 38.1641 281.08C38.431 281.536 38.7923 281.897 39.248 282.164C39.7038 282.424 40.2279 282.555 40.8203 282.555ZM48.3203 284V269.605H50.0781V276.285H50.6055L49.8438 276.637L56.1133 269.605H58.3984L51.5625 277.242V276.363L58.8086 284H56.4844L49.8438 277.008L50.6055 277.32H50.0781V284H48.3203Z" fill="#6B6B6B"/>
<path d="M40.8203 150.449C41.7513 150.449 42.5781 150.654 43.3008 151.064C44.0234 151.475 44.5898 152.025 45 152.715C45.4167 153.405 45.625 154.167 45.625 155C45.625 155.508 45.5566 155.996 45.4199 156.465C45.2832 156.927 45.1074 157.357 44.8926 157.754C44.6842 158.151 44.4727 158.503 44.2578 158.809L39.9414 165H37.8711L42.1875 158.965L42.6172 159.043C42.3568 159.284 42.0443 159.46 41.6797 159.57C41.3151 159.674 40.9375 159.727 40.5469 159.727C39.7201 159.727 38.9616 159.531 38.2715 159.141C37.5879 158.743 37.041 158.2 36.6309 157.51C36.2207 156.813 36.0156 156.016 36.0156 155.117C36.0156 154.225 36.224 153.428 36.6406 152.725C37.0638 152.021 37.6367 151.468 38.3594 151.064C39.082 150.654 39.9023 150.449 40.8203 150.449ZM40.8203 152.051C40.2344 152.051 39.7103 152.184 39.248 152.451C38.7923 152.712 38.431 153.07 38.1641 153.525C37.9036 153.981 37.7734 154.505 37.7734 155.098C37.7734 155.677 37.9036 156.198 38.1641 156.66C38.431 157.116 38.7923 157.474 39.248 157.734C39.7103 157.995 40.2344 158.125 40.8203 158.125C41.4128 158.125 41.9368 157.995 42.3926 157.734C42.8483 157.474 43.2064 157.116 43.4668 156.66C43.7337 156.198 43.8672 155.677 43.8672 155.098C43.8672 154.505 43.7337 153.981 43.4668 153.525C43.2064 153.07 42.8483 152.712 42.3926 152.451C41.9368 152.184 41.4128 152.051 40.8203 152.051ZM48.3203 165V150.605H50.0781V157.285H50.6055L49.8438 157.637L56.1133 150.605H58.3984L51.5625 158.242V157.363L58.8086 165H56.4844L49.8438 158.008L50.6055 158.32H50.0781V165H48.3203Z" fill="#6B6B6B"/>
<path d="M250.055 626.188C249.094 626.188 248.199 626 247.371 625.625C246.551 625.242 245.852 624.742 245.273 624.125C244.695 623.5 244.289 622.836 244.055 622.133L246.762 620.984C246.91 621.414 247.133 621.828 247.43 622.227C247.734 622.617 248.102 622.938 248.531 623.188C248.969 623.438 249.461 623.562 250.008 623.562C250.484 623.562 250.93 623.461 251.344 623.258C251.758 623.055 252.09 622.773 252.34 622.414C252.598 622.047 252.727 621.637 252.727 621.184C252.727 620.699 252.594 620.289 252.328 619.953C252.062 619.609 251.73 619.324 251.332 619.098C250.941 618.871 250.539 618.684 250.125 618.535C249.719 618.379 249.363 618.25 249.059 618.148C248.285 617.883 247.562 617.539 246.891 617.117C246.219 616.688 245.676 616.148 245.262 615.5C244.848 614.852 244.641 614.062 244.641 613.133C244.641 612.195 244.855 611.383 245.285 610.695C245.723 610.008 246.324 609.477 247.09 609.102C247.863 608.727 248.75 608.539 249.75 608.539C250.688 608.539 251.508 608.691 252.211 608.996C252.914 609.301 253.504 609.707 253.98 610.215C254.465 610.715 254.832 611.258 255.082 611.844L252.469 612.898C252.359 612.672 252.184 612.422 251.941 612.148C251.707 611.875 251.406 611.637 251.039 611.434C250.68 611.23 250.258 611.129 249.773 611.129C249.195 611.129 248.668 611.301 248.191 611.645C247.715 611.98 247.477 612.484 247.477 613.156C247.477 613.609 247.59 613.996 247.816 614.316C248.051 614.637 248.344 614.91 248.695 615.137C249.047 615.355 249.41 615.539 249.785 615.688C250.168 615.836 250.508 615.961 250.805 616.062C251.148 616.172 251.586 616.34 252.117 616.566C252.648 616.785 253.176 617.086 253.699 617.469C254.223 617.852 254.664 618.34 255.023 618.934C255.383 619.527 255.562 620.254 255.562 621.113C255.562 622.09 255.312 622.961 254.812 623.727C254.32 624.492 253.656 625.094 252.82 625.531C251.992 625.969 251.07 626.188 250.055 626.188ZM262.793 626.188C261.895 626.188 261.094 625.996 260.391 625.613C259.688 625.23 259.133 624.676 258.727 623.949C258.328 623.215 258.129 622.324 258.129 621.277V613.496H260.895V620.996C260.895 621.91 261.141 622.598 261.633 623.059C262.125 623.52 262.719 623.75 263.414 623.75C263.953 623.75 264.422 623.633 264.82 623.398C265.227 623.156 265.543 622.828 265.77 622.414C266.004 622 266.121 621.527 266.121 620.996V613.496H268.887V622.086C268.887 622.586 268.953 622.957 269.086 623.199C269.219 623.441 269.488 623.641 269.895 623.797L268.875 626.188C268.148 625.93 267.59 625.602 267.199 625.203C266.809 624.797 266.613 624.344 266.613 623.844L267.492 624.453H265.922L267.27 623.586C266.871 624.305 266.297 624.918 265.547 625.426C264.797 625.934 263.879 626.188 262.793 626.188ZM272.051 626V607.953H274.816V614.844H275.051L274.535 616.438V623.199L275.168 624.43H274.734V626H272.051ZM278.625 626.188C277.578 626.188 276.641 625.902 275.812 625.332C274.992 624.762 274.344 623.984 273.867 623C273.391 622.016 273.148 620.91 273.141 619.684C273.148 618.457 273.383 617.363 273.844 616.402C274.312 615.434 274.953 614.672 275.766 614.117C276.586 613.562 277.523 613.285 278.578 613.285C279.555 613.285 280.473 613.539 281.332 614.047C282.191 614.555 282.883 615.289 283.406 616.25C283.938 617.211 284.195 618.379 284.18 619.754C284.188 620.777 284.039 621.691 283.734 622.496C283.43 623.293 283.016 623.965 282.492 624.512C281.969 625.059 281.371 625.477 280.699 625.766C280.035 626.047 279.344 626.188 278.625 626.188ZM278.051 623.797C278.707 623.797 279.293 623.621 279.809 623.27C280.324 622.918 280.723 622.438 281.004 621.828C281.293 621.211 281.434 620.508 281.426 619.719C281.434 618.906 281.293 618.199 281.004 617.598C280.715 616.988 280.309 616.516 279.785 616.18C279.27 615.844 278.68 615.68 278.016 615.688C277.391 615.68 276.824 615.84 276.316 616.168C275.816 616.488 275.414 616.949 275.109 617.551C274.812 618.152 274.664 618.875 274.664 619.719C274.664 620.508 274.809 621.211 275.098 621.828C275.395 622.438 275.797 622.918 276.305 623.27C276.812 623.621 277.395 623.797 278.051 623.797ZM290.285 626.188C289.535 626.188 288.84 626.051 288.199 625.777C287.559 625.504 287.008 625.141 286.547 624.688C286.094 624.227 285.766 623.727 285.562 623.188L287.906 622.18C288.078 622.617 288.379 623.008 288.809 623.352C289.246 623.695 289.738 623.867 290.285 623.867C290.621 623.867 290.93 623.805 291.211 623.68C291.492 623.547 291.719 623.371 291.891 623.152C292.062 622.934 292.148 622.691 292.148 622.426C292.148 622.129 292.047 621.875 291.844 621.664C291.648 621.445 291.398 621.262 291.094 621.113C290.797 620.965 290.484 620.84 290.156 620.738C289.836 620.637 289.555 620.547 289.312 620.469C288.781 620.305 288.254 620.078 287.73 619.789C287.215 619.5 286.785 619.121 286.441 618.652C286.098 618.176 285.926 617.578 285.926 616.859C285.926 616.133 286.113 615.504 286.488 614.973C286.863 614.434 287.363 614.023 287.988 613.742C288.613 613.453 289.305 613.309 290.062 613.309C291.109 613.309 292.012 613.562 292.77 614.07C293.527 614.57 294.062 615.172 294.375 615.875L292.078 616.836C291.922 616.547 291.688 616.266 291.375 615.992C291.062 615.719 290.648 615.582 290.133 615.582C289.688 615.582 289.305 615.699 288.984 615.934C288.672 616.16 288.516 616.48 288.516 616.895C288.516 617.246 288.629 617.531 288.855 617.75C289.09 617.961 289.398 618.141 289.781 618.289C290.164 618.43 290.578 618.574 291.023 618.723C291.352 618.824 291.723 618.961 292.137 619.133C292.559 619.297 292.965 619.516 293.355 619.789C293.754 620.062 294.078 620.41 294.328 620.832C294.586 621.246 294.715 621.754 294.715 622.355C294.715 623.105 294.512 623.77 294.105 624.348C293.699 624.926 293.16 625.379 292.488 625.707C291.816 626.027 291.082 626.188 290.285 626.188ZM302.73 626.141C301.832 626.141 300.992 625.977 300.211 625.648C299.43 625.32 298.742 624.867 298.148 624.289C297.562 623.703 297.102 623.02 296.766 622.238C296.438 621.449 296.273 620.598 296.273 619.684C296.273 618.762 296.441 617.914 296.777 617.141C297.113 616.359 297.574 615.684 298.16 615.113C298.746 614.535 299.422 614.09 300.188 613.777C300.961 613.457 301.781 613.297 302.648 613.297C303.367 613.297 304.066 613.406 304.746 613.625C305.426 613.836 306.023 614.125 306.539 614.492L305.508 616.766C305.281 616.555 305.016 616.375 304.711 616.227C304.406 616.078 304.082 615.965 303.738 615.887C303.395 615.801 303.055 615.758 302.719 615.758C302 615.758 301.359 615.926 300.797 616.262C300.242 616.598 299.801 617.066 299.473 617.668C299.152 618.262 298.992 618.941 298.992 619.707C298.992 620.457 299.152 621.133 299.473 621.734C299.793 622.336 300.234 622.812 300.797 623.164C301.359 623.508 302.004 623.68 302.73 623.68C303.309 623.68 303.852 623.582 304.359 623.387C304.875 623.184 305.273 622.949 305.555 622.684L306.574 624.992C306.121 625.312 305.562 625.586 304.898 625.812C304.234 626.031 303.512 626.141 302.73 626.141ZM308.496 626V613.496H311.215V615.336H311.566L310.805 616.156C311.016 615.703 311.312 615.258 311.695 614.82C312.078 614.383 312.551 614.023 313.113 613.742C313.676 613.453 314.324 613.309 315.059 613.309C315.355 613.309 315.625 613.332 315.867 613.379C316.117 613.418 316.293 613.465 316.395 613.52L315.281 616.168C315.219 616.137 315.098 616.105 314.918 616.074C314.746 616.043 314.547 616.027 314.32 616.027C313.992 616.027 313.648 616.094 313.289 616.227C312.938 616.359 312.605 616.559 312.293 616.824C311.988 617.09 311.738 617.422 311.543 617.82C311.355 618.211 311.262 618.664 311.262 619.18V626H308.496ZM317.859 626V613.496H320.625V626H317.859ZM319.242 611.75C318.719 611.75 318.277 611.57 317.918 611.211C317.566 610.852 317.391 610.414 317.391 609.898C317.391 609.383 317.566 608.945 317.918 608.586C318.277 608.227 318.719 608.047 319.242 608.047C319.758 608.047 320.195 608.227 320.555 608.586C320.914 608.945 321.094 609.383 321.094 609.898C321.094 610.414 320.914 610.852 320.555 611.211C320.195 611.57 319.758 611.75 319.242 611.75ZM323.543 626V607.953H326.309V614.844H326.543L326.027 616.438V623.199L326.66 624.43H326.227V626H323.543ZM330.117 626.188C329.07 626.188 328.133 625.902 327.305 625.332C326.484 624.762 325.836 623.984 325.359 623C324.883 622.016 324.641 620.91 324.633 619.684C324.641 618.457 324.875 617.363 325.336 616.402C325.805 615.434 326.445 614.672 327.258 614.117C328.078 613.562 329.016 613.285 330.07 613.285C331.047 613.285 331.965 613.539 332.824 614.047C333.684 614.555 334.375 615.289 334.898 616.25C335.43 617.211 335.688 618.379 335.672 619.754C335.68 620.777 335.531 621.691 335.227 622.496C334.922 623.293 334.508 623.965 333.984 624.512C333.461 625.059 332.863 625.477 332.191 625.766C331.527 626.047 330.836 626.188 330.117 626.188ZM329.543 623.797C330.199 623.797 330.785 623.621 331.301 623.27C331.816 622.918 332.215 622.438 332.496 621.828C332.785 621.211 332.926 620.508 332.918 619.719C332.926 618.906 332.785 618.199 332.496 617.598C332.207 616.988 331.801 616.516 331.277 616.18C330.762 615.844 330.172 615.68 329.508 615.688C328.883 615.68 328.316 615.84 327.809 616.168C327.309 616.488 326.906 616.949 326.602 617.551C326.305 618.152 326.156 618.875 326.156 619.719C326.156 620.508 326.301 621.211 326.59 621.828C326.887 622.438 327.289 622.918 327.797 623.27C328.305 623.621 328.887 623.797 329.543 623.797ZM343.617 626.188C342.352 626.188 341.246 625.918 340.301 625.379C339.355 624.832 338.617 624.074 338.086 623.105C337.555 622.137 337.289 621.02 337.289 619.754C337.289 618.441 337.555 617.305 338.086 616.344C338.617 615.383 339.332 614.641 340.23 614.117C341.129 613.586 342.125 613.32 343.219 613.32C344.266 613.32 345.211 613.562 346.055 614.047C346.906 614.531 347.582 615.207 348.082 616.074C348.582 616.934 348.832 617.941 348.832 619.098C348.832 619.395 348.816 619.672 348.785 619.93C348.754 620.188 348.715 620.445 348.668 620.703H339.363V618.746H346.242C346.242 618.152 346.117 617.625 345.867 617.164C345.617 616.695 345.266 616.328 344.812 616.062C344.359 615.789 343.828 615.652 343.219 615.652C342.531 615.652 341.93 615.824 341.414 616.168C340.906 616.504 340.508 616.977 340.219 617.586C339.938 618.188 339.797 618.891 339.797 619.695C339.797 620.516 339.949 621.238 340.254 621.863C340.566 622.488 341.004 622.977 341.566 623.328C342.137 623.68 342.812 623.855 343.594 623.855C344.039 623.855 344.461 623.801 344.859 623.691C345.258 623.582 345.621 623.441 345.949 623.27C346.277 623.09 346.559 622.902 346.793 622.707L347.742 624.98C347.25 625.332 346.645 625.621 345.926 625.848C345.215 626.074 344.445 626.188 343.617 626.188ZM351.105 626V613.496H353.824V615.336H354.176L353.414 616.156C353.625 615.703 353.922 615.258 354.305 614.82C354.688 614.383 355.16 614.023 355.723 613.742C356.285 613.453 356.934 613.309 357.668 613.309C357.965 613.309 358.234 613.332 358.477 613.379C358.727 613.418 358.902 613.465 359.004 613.52L357.891 616.168C357.828 616.137 357.707 616.105 357.527 616.074C357.355 616.043 357.156 616.027 356.93 616.027C356.602 616.027 356.258 616.094 355.898 616.227C355.547 616.359 355.215 616.559 354.902 616.824C354.598 617.09 354.348 617.422 354.152 617.82C353.965 618.211 353.871 618.664 353.871 619.18V626H351.105ZM364.066 626.188C363.316 626.188 362.621 626.051 361.98 625.777C361.34 625.504 360.789 625.141 360.328 624.688C359.875 624.227 359.547 623.727 359.344 623.188L361.688 622.18C361.859 622.617 362.16 623.008 362.59 623.352C363.027 623.695 363.52 623.867 364.066 623.867C364.402 623.867 364.711 623.805 364.992 623.68C365.273 623.547 365.5 623.371 365.672 623.152C365.844 622.934 365.93 622.691 365.93 622.426C365.93 622.129 365.828 621.875 365.625 621.664C365.43 621.445 365.18 621.262 364.875 621.113C364.578 620.965 364.266 620.84 363.938 620.738C363.617 620.637 363.336 620.547 363.094 620.469C362.562 620.305 362.035 620.078 361.512 619.789C360.996 619.5 360.566 619.121 360.223 618.652C359.879 618.176 359.707 617.578 359.707 616.859C359.707 616.133 359.895 615.504 360.27 614.973C360.645 614.434 361.145 614.023 361.77 613.742C362.395 613.453 363.086 613.309 363.844 613.309C364.891 613.309 365.793 613.562 366.551 614.07C367.309 614.57 367.844 615.172 368.156 615.875L365.859 616.836C365.703 616.547 365.469 616.266 365.156 615.992C364.844 615.719 364.43 615.582 363.914 615.582C363.469 615.582 363.086 615.699 362.766 615.934C362.453 616.16 362.297 616.48 362.297 616.895C362.297 617.246 362.41 617.531 362.637 617.75C362.871 617.961 363.18 618.141 363.562 618.289C363.945 618.43 364.359 618.574 364.805 618.723C365.133 618.824 365.504 618.961 365.918 619.133C366.34 619.297 366.746 619.516 367.137 619.789C367.535 620.062 367.859 620.41 368.109 620.832C368.367 621.246 368.496 621.754 368.496 622.355C368.496 623.105 368.293 623.77 367.887 624.348C367.48 624.926 366.941 625.379 366.27 625.707C365.598 626.027 364.863 626.188 364.066 626.188Z" fill="#1E1E1E"/>
</svg>
