<svg width="20" height="28" viewBox="0 0 20 28" fill="none" xmlns="http://www.w3.org/2000/svg">
<path d="M6 26.0003C6 26.7337 6.6 27.3337 7.33333 27.3337H12.6667C13.4 27.3337 14 26.7337 14 26.0003V24.667H6V26.0003ZM10 0.666992C4.85333 0.666992 0.666664 4.85366 0.666664 10.0003C0.666664 13.1737 2.25333 15.9603 4.66666 17.6537V20.667C4.66666 21.4003 5.26666 22.0003 6 22.0003H14C14.7333 22.0003 15.3333 21.4003 15.3333 20.667V17.6537C17.7467 15.9603 19.3333 13.1737 19.3333 10.0003C19.3333 4.85366 15.1467 0.666992 10 0.666992ZM13.8 15.467L12.6667 16.267V19.3337H7.33333V16.267L6.2 15.467C4.4 14.2137 3.33333 12.1737 3.33333 10.0003C3.33333 6.32033 6.32 3.33366 10 3.33366C13.68 3.33366 16.6667 6.32033 16.6667 10.0003C16.6667 12.1737 15.6 14.2137 13.8 15.467Z" fill="white"/>
</svg>
