<svg width="35" height="35" viewBox="0 0 35 35" fill="none" xmlns="http://www.w3.org/2000/svg">
<path d="M14.5833 18.9583C15.2096 19.7956 16.0086 20.4884 16.9262 20.9897C17.8438 21.491 18.8584 21.7891 19.9014 21.8638C20.9443 21.9385 21.9911 21.788 22.9707 21.4226C23.9504 21.0572 24.84 20.4853 25.5792 19.7458L29.9542 15.3708C31.2824 13.9956 32.0174 12.1537 32.0008 10.2419C31.9841 8.33 31.2173 6.50116 29.8653 5.14923C28.5134 3.7973 26.6846 3.03044 24.7727 3.01383C22.8609 2.99721 21.019 3.73217 19.6438 5.06041L17.1354 7.55416M20.4167 16.0417C19.7904 15.2044 18.9914 14.5116 18.0738 14.0103C17.1562 13.509 16.1416 13.2109 15.0986 13.1362C14.0557 13.0615 13.0089 13.212 12.0293 13.5774C11.0496 13.9428 10.16 14.5147 9.42084 15.2542L5.04583 19.6292C3.7176 21.0044 2.98264 22.8463 2.99925 24.7581C3.01587 26.67 3.78272 28.4988 5.13466 29.8508C6.48659 31.2027 8.31543 31.9695 10.2273 31.9862C12.1391 32.0028 13.981 31.2678 15.3563 29.9396L17.85 27.4458" stroke="white" stroke-width="4" stroke-linecap="round" stroke-linejoin="round"/>
</svg>
