<svg width="32" height="32" viewBox="0 0 32 32" fill="none" xmlns="http://www.w3.org/2000/svg">
<path d="M8.00051 19.9993C6.89384 19.9993 5.89384 20.4526 5.17384 21.1726C3.60051 22.7459 2.66718 29.3326 2.66718 29.3326C2.66718 29.3326 9.25384 28.3993 10.8272 26.8259C11.5472 26.1059 12.0005 25.1059 12.0005 23.9993C12.0005 21.7859 10.2138 19.9993 8.00051 19.9993ZM8.94718 24.9459C8.57384 25.3193 6.05384 25.9593 6.05384 25.9593C6.05384 25.9593 6.68051 23.4526 7.06718 23.0659C7.29384 22.8126 7.62717 22.6659 8.00051 22.6659C8.73384 22.6659 9.33384 23.2659 9.33384 23.9993C9.33384 24.3726 9.18717 24.7059 8.94718 24.9459ZM23.2272 18.1993C31.7072 9.71926 28.8805 3.11926 28.8805 3.11926C28.8805 3.11926 22.2805 0.292593 13.8005 8.77259L10.4805 8.10593C9.61384 7.93259 8.70718 8.21259 8.06718 8.83926L2.66718 14.2526L9.33384 17.1059L14.8938 22.6659L17.7472 29.3326L23.1472 23.9326C23.7738 23.3059 24.0538 22.3993 23.8805 21.5193L23.2272 18.1993ZM9.88051 14.4393L7.33384 13.3459L9.96051 10.7193L11.8805 11.1059C11.1205 12.2126 10.4405 13.3726 9.88051 14.4393ZM18.6538 24.6659L17.5605 22.1193C18.6272 21.5593 19.7872 20.8793 20.8805 20.1193L21.2672 22.0393L18.6538 24.6659ZM21.3338 16.3193C19.5738 18.0793 16.8272 19.5193 15.9472 19.9593L12.0405 16.0526C12.4672 15.1859 13.9072 12.4393 15.6805 10.6659C21.9205 4.42593 26.6538 5.34593 26.6538 5.34593C26.6538 5.34593 27.5738 10.0793 21.3338 16.3193ZM20.0005 14.6659C21.4672 14.6659 22.6672 13.4659 22.6672 11.9993C22.6672 10.5326 21.4672 9.33259 20.0005 9.33259C18.5338 9.33259 17.3338 10.5326 17.3338 11.9993C17.3338 13.4659 18.5338 14.6659 20.0005 14.6659Z" fill="white"/>
</svg>
