<svg width="261" height="70" viewBox="0 0 261 70" fill="none" xmlns="http://www.w3.org/2000/svg">
<rect width="70" height="70" rx="15" fill="url(#paint0_linear_11_19)"/>
<path d="M29.2578 23.4688C29.1016 24.6406 29.0234 25.8646 29.0234 27.1406C29.0234 28.8724 29.1471 30.6497 29.3945 32.4727C29.6419 34.2956 30.0195 36.0599 30.5273 37.7656C31.0352 39.4714 31.6732 41.0664 32.4414 42.5508C33.2227 44.0352 34.1406 45.2917 35.1953 46.3203C36.276 45.1354 37.2005 43.7943 37.9688 42.2969C38.75 40.7995 39.388 39.2305 39.8828 37.5898C40.3776 35.9492 40.7422 34.2695 40.9766 32.5508C41.2109 30.819 41.3281 29.1198 41.3281 27.4531C41.3281 26.75 41.3086 26.0664 41.2695 25.4023C41.2435 24.7383 41.1979 24.0807 41.1328 23.4297C42.2656 23.4818 43.2812 23.5599 44.1797 23.6641C45.0911 23.7682 45.8724 23.8724 46.5234 23.9766C47.2786 24.1068 47.9557 24.237 48.5547 24.3672V29.2891C48.138 29.1458 47.7279 29.0352 47.3242 28.957C46.9206 28.8659 46.5104 28.7682 46.0938 28.6641C46.0938 31.4635 45.8203 34.0612 45.2734 36.457C44.7396 38.8398 43.9909 41.0664 43.0273 43.1367C42.0638 45.207 40.9115 47.1276 39.5703 48.8984C38.2422 50.6693 36.7839 52.3229 35.1953 53.8594C33.5938 52.3229 32.1289 50.6693 30.8008 48.8984C29.4857 47.1276 28.3594 45.207 27.4219 43.1367C26.4844 41.0664 25.7552 38.8398 25.2344 36.457C24.7135 34.0612 24.4531 31.4635 24.4531 28.6641C23.9844 28.7682 23.5352 28.8659 23.1055 28.957C22.6758 29.0352 22.2526 29.1458 21.8359 29.2891V24.3281C21.8359 24.3411 22.0052 24.3151 22.3438 24.25C22.6953 24.1849 23.1901 24.1068 23.8281 24.0156C24.4792 23.9115 25.2604 23.8138 26.1719 23.7227C27.0833 23.6185 28.112 23.5339 29.2578 23.4688Z" fill="white"/>
<path d="M86.9434 26.8516C86.8262 27.7305 86.7676 28.6484 86.7676 29.6055C86.7676 30.9043 86.8604 32.2373 87.0459 33.6045C87.2314 34.9717 87.5146 36.2949 87.8955 37.5742C88.2764 38.8535 88.7549 40.0498 89.3311 41.1631C89.917 42.2764 90.6055 43.2188 91.3965 43.9902C92.207 43.1016 92.9004 42.0957 93.4766 40.9727C94.0625 39.8496 94.541 38.6729 94.9121 37.4424C95.2832 36.2119 95.5566 34.9521 95.7324 33.6631C95.9082 32.3643 95.9961 31.0898 95.9961 29.8398C95.9961 29.3125 95.9814 28.7998 95.9521 28.3018C95.9326 27.8037 95.8984 27.3105 95.8496 26.8223C96.6992 26.8613 97.4609 26.9199 98.1348 26.998C98.8184 27.0762 99.4043 27.1543 99.8926 27.2324C100.459 27.3301 100.967 27.4277 101.416 27.5254V31.2168C101.104 31.1094 100.796 31.0264 100.493 30.9678C100.19 30.8994 99.8828 30.8262 99.5703 30.748C99.5703 32.8477 99.3652 34.7959 98.9551 36.5928C98.5547 38.3799 97.9932 40.0498 97.2705 41.6025C96.5479 43.1553 95.6836 44.5957 94.6777 45.9238C93.6816 47.252 92.5879 48.4922 91.3965 49.6445C90.1953 48.4922 89.0967 47.252 88.1006 45.9238C87.1143 44.5957 86.2695 43.1553 85.5664 41.6025C84.8633 40.0498 84.3164 38.3799 83.9258 36.5928C83.5352 34.7959 83.3398 32.8477 83.3398 30.748C82.9883 30.8262 82.6514 30.8994 82.3291 30.9678C82.0068 31.0264 81.6895 31.1094 81.377 31.2168V27.4961C81.377 27.5059 81.5039 27.4863 81.7578 27.4375C82.0215 27.3887 82.3926 27.3301 82.8711 27.2617C83.3594 27.1836 83.9453 27.1104 84.6289 27.042C85.3125 26.9639 86.084 26.9004 86.9434 26.8516ZM109.531 49H105.811V32.3008H109.531V49ZM107.686 26.5C108.408 26.5 108.979 26.6221 109.399 26.8662C109.819 27.1006 110.029 27.4766 110.029 27.9941V28.7266C110.029 29.1953 109.819 29.5322 109.399 29.7373C108.979 29.9424 108.408 30.0449 107.686 30.0449C106.992 30.0449 106.431 29.9424 106.001 29.7373C105.581 29.5322 105.371 29.1953 105.371 28.7266V27.9941C105.371 27.4766 105.581 27.1006 106.001 26.8662C106.431 26.6221 106.992 26.5 107.686 26.5ZM124.531 32.3008C126.035 32.3008 127.378 32.4082 128.56 32.623C129.751 32.8281 130.752 33.1504 131.562 33.5898C132.383 34.0293 133.008 34.5859 133.438 35.2598C133.867 35.9336 134.082 36.7344 134.082 37.6621V43.6387C134.082 44.5664 133.867 45.3672 133.438 46.041C133.008 46.7148 132.383 47.2715 131.562 47.7109C130.752 48.1504 129.751 48.4775 128.56 48.6924C127.378 48.8975 126.035 49 124.531 49C123.691 49 122.832 48.9707 121.953 48.9121C121.074 48.8438 120.225 48.7607 119.404 48.6631C118.584 48.5557 117.812 48.4336 117.09 48.2969C116.367 48.1602 115.752 48.0137 115.244 47.8574V26.7051H119.082V33.3555C119.951 33.043 120.859 32.7891 121.807 32.5938C122.764 32.3984 123.672 32.3008 124.531 32.3008ZM123.477 35.0254C122.969 35.0254 122.505 35.0596 122.085 35.1279C121.665 35.1963 121.274 35.2842 120.913 35.3916C120.562 35.499 120.234 35.6211 119.932 35.7578C119.629 35.8848 119.346 36.0117 119.082 36.1387V45.3672C119.346 45.4551 119.648 45.543 119.99 45.6309C120.332 45.709 120.693 45.7822 121.074 45.8506C121.465 45.9189 121.86 45.9727 122.261 46.0117C122.671 46.0508 123.076 46.0703 123.477 46.0703C124.082 46.0703 124.673 46.0654 125.249 46.0557C125.825 46.0361 126.362 45.9922 126.86 45.9238C127.358 45.8555 127.812 45.7529 128.223 45.6162C128.643 45.4795 128.999 45.2891 129.292 45.0449C129.595 44.791 129.829 44.4834 129.995 44.1221C130.161 43.751 130.244 43.2969 130.244 42.7598V38.4531C130.244 37.6816 130.063 37.0713 129.702 36.6221C129.341 36.1631 128.853 35.8164 128.237 35.582C127.622 35.3477 126.904 35.1963 126.084 35.1279C125.264 35.0596 124.395 35.0254 123.477 35.0254ZM148.496 32.3008C148.994 32.3008 149.595 32.3252 150.298 32.374C151.001 32.4229 151.729 32.5107 152.48 32.6377C153.242 32.7549 153.994 32.9258 154.736 33.1504C155.479 33.3652 156.143 33.6436 156.729 33.9854C157.324 34.3271 157.803 34.7422 158.164 35.2305C158.535 35.709 158.721 36.2754 158.721 36.9297V41.8809H141.934V45.6309C143.115 45.7969 144.253 45.9141 145.347 45.9824C146.44 46.041 147.49 46.0703 148.496 46.0703C150.029 46.0703 151.416 46.0117 152.656 45.8945C153.906 45.7773 154.985 45.6455 155.894 45.499C156.938 45.333 157.881 45.1426 158.721 44.9277V48.1797C156.865 48.4727 155.073 48.6826 153.345 48.8096C151.626 48.9365 150.01 49 148.496 49C146.973 49 145.591 48.9609 144.351 48.8828C143.11 48.7949 142.046 48.6973 141.157 48.5898C140.122 48.4727 139.189 48.3359 138.359 48.1797V36.9297C138.359 36.2754 138.521 35.709 138.843 35.2305C139.165 34.7422 139.595 34.3271 140.132 33.9854C140.669 33.6436 141.284 33.3652 141.978 33.1504C142.681 32.9258 143.408 32.7549 144.16 32.6377C144.912 32.5107 145.659 32.4229 146.401 32.374C147.153 32.3252 147.852 32.3008 148.496 32.3008ZM141.934 39.5371H155.088V37.8379C155.088 37.4375 154.99 37.0957 154.795 36.8125C154.6 36.5195 154.336 36.2754 154.004 36.0801C153.682 35.8848 153.301 35.7285 152.861 35.6113C152.432 35.4844 151.982 35.3916 151.514 35.333C151.045 35.2646 150.571 35.2207 150.093 35.2012C149.624 35.1816 149.18 35.1719 148.76 35.1719C148.32 35.1719 147.847 35.1816 147.339 35.2012C146.841 35.2207 146.338 35.2646 145.83 35.333C145.322 35.4014 144.834 35.499 144.365 35.626C143.896 35.7432 143.481 35.9043 143.12 36.1094C142.759 36.3047 142.471 36.5488 142.256 36.8418C142.041 37.125 141.934 37.4668 141.934 37.8672V39.5371ZM172.842 32.0371C173.652 32.0371 174.468 32.0762 175.288 32.1543C176.108 32.2324 176.895 32.3594 177.646 32.5352C178.398 32.7109 179.102 32.9307 179.756 33.1943C180.41 33.458 180.977 33.7754 181.455 34.1465C181.943 34.5176 182.324 34.9473 182.598 35.4355C182.871 35.9141 183.008 36.4512 183.008 37.0469L179.258 37.6035C179.258 37.1836 179.077 36.8076 178.716 36.4756C178.354 36.1338 177.876 35.8506 177.28 35.626C176.685 35.3916 176.001 35.2158 175.229 35.0986C174.458 34.9717 173.662 34.9082 172.842 34.9082C172.061 34.9082 171.289 34.9668 170.527 35.084C169.766 35.1914 169.082 35.3574 168.477 35.582C167.881 35.8066 167.393 36.0898 167.012 36.4316C166.641 36.7637 166.455 37.1543 166.455 37.6035V43.6973C166.455 44.1465 166.641 44.5371 167.012 44.8691C167.393 45.1914 167.881 45.4648 168.477 45.6895C169.082 45.9043 169.766 46.0654 170.527 46.1729C171.289 46.2803 172.061 46.334 172.842 46.334C173.662 46.334 174.458 46.2754 175.229 46.1582C176.001 46.041 176.685 45.875 177.28 45.6602C177.876 45.4355 178.354 45.1621 178.716 44.8398C179.077 44.5078 179.258 44.127 179.258 43.6973L183.008 44.6348C183.008 45.1621 182.871 45.6455 182.598 46.085C182.324 46.5244 181.943 46.9199 181.455 47.2715C180.977 47.6133 180.41 47.9111 179.756 48.165C179.102 48.4189 178.398 48.6289 177.646 48.7949C176.895 48.9609 176.108 49.083 175.288 49.1611C174.468 49.249 173.652 49.293 172.842 49.293C172.031 49.293 171.216 49.249 170.396 49.1611C169.585 49.083 168.804 48.9609 168.052 48.7949C167.3 48.6289 166.597 48.4189 165.942 48.165C165.298 47.9111 164.731 47.6133 164.243 47.2715C163.765 46.9199 163.389 46.5293 163.115 46.0996C162.842 45.6602 162.705 45.1719 162.705 44.6348V37.0469C162.705 36.4512 162.842 35.9141 163.115 35.4355C163.389 34.9473 163.765 34.5176 164.243 34.1465C164.731 33.7754 165.298 33.458 165.942 33.1943C166.597 32.9307 167.3 32.7109 168.052 32.5352C168.804 32.3594 169.585 32.2324 170.396 32.1543C171.216 32.0762 172.031 32.0371 172.842 32.0371ZM203.018 43.0234C202.773 42.8086 202.471 42.5986 202.109 42.3936C201.748 42.1885 201.304 42.0078 200.776 41.8516C200.249 41.6855 199.619 41.5537 198.887 41.4561C198.164 41.3486 197.314 41.2949 196.338 41.2949C195.469 41.2949 194.644 41.3145 193.862 41.3535C193.091 41.3828 192.412 41.4805 191.826 41.6465C191.24 41.8027 190.776 42.0566 190.435 42.4082C190.093 42.7598 189.922 43.248 189.922 43.873V45.748C190.781 45.8848 191.729 45.9971 192.764 46.085C193.799 46.1729 194.951 46.2168 196.221 46.2168C197.236 46.2168 198.315 46.1826 199.458 46.1143C200.61 46.0361 201.797 45.8848 203.018 45.6602V43.0234ZM196.426 32.3008C196.914 32.3008 197.505 32.3252 198.198 32.374C198.892 32.4229 199.614 32.5107 200.366 32.6377C201.118 32.7549 201.86 32.9209 202.593 33.1357C203.335 33.3408 203.999 33.6143 204.585 33.9561C205.181 34.2881 205.659 34.6885 206.021 35.1572C206.382 35.626 206.562 36.1777 206.562 36.8125V48.1504C205.742 48.3164 204.814 48.458 203.779 48.5752C202.891 48.6826 201.831 48.7803 200.601 48.8682C199.37 48.9561 197.998 49 196.484 49C194.98 49 193.379 48.9365 191.68 48.8096C189.99 48.6826 188.223 48.4629 186.377 48.1504V42.877C186.377 42.3105 186.509 41.8174 186.772 41.3975C187.046 40.9678 187.417 40.6016 187.886 40.2988C188.354 39.9961 188.906 39.7471 189.541 39.5518C190.176 39.3564 190.859 39.2002 191.592 39.083C192.324 38.9658 193.086 38.8877 193.877 38.8486C194.668 38.7998 195.459 38.7754 196.25 38.7754C197.451 38.7754 198.472 38.8535 199.312 39.0098C200.161 39.1562 200.864 39.3174 201.421 39.4932C202.065 39.708 202.598 39.9473 203.018 40.2109V37.8379C203.018 37.4375 202.92 37.0957 202.725 36.8125C202.529 36.5195 202.266 36.2754 201.934 36.0801C201.602 35.875 201.221 35.7139 200.791 35.5967C200.361 35.4697 199.912 35.3721 199.443 35.3037C198.975 35.2354 198.496 35.1914 198.008 35.1719C197.529 35.1523 197.08 35.1426 196.66 35.1426C196.221 35.1426 195.752 35.1572 195.254 35.1865C194.756 35.2061 194.258 35.25 193.76 35.3184C193.271 35.3867 192.798 35.4844 192.339 35.6113C191.89 35.7285 191.489 35.8896 191.138 36.0947C190.786 36.2998 190.503 36.5488 190.288 36.8418C190.083 37.125 189.98 37.4668 189.98 37.8672L186.348 36.9297C186.348 36.2754 186.509 35.709 186.831 35.2305C187.153 34.7422 187.578 34.3271 188.105 33.9854C188.643 33.6436 189.258 33.3652 189.951 33.1504C190.645 32.9258 191.362 32.7549 192.104 32.6377C192.856 32.5107 193.604 32.4229 194.346 32.374C195.088 32.3252 195.781 32.3008 196.426 32.3008ZM220.449 32.3008C221.611 32.3008 222.744 32.374 223.848 32.5205C224.951 32.6572 225.942 32.8965 226.821 33.2383C227.7 33.5703 228.423 34.0244 228.989 34.6006C229.556 35.1768 229.893 35.8945 230 36.7539L226.602 37.6914C226.602 37.1836 226.426 36.7637 226.074 36.4316C225.732 36.0898 225.273 35.8262 224.697 35.6406C224.131 35.4453 223.477 35.3086 222.734 35.2305C221.992 35.1523 221.23 35.1133 220.449 35.1133C219.697 35.1133 218.95 35.1523 218.208 35.2305C217.476 35.2988 216.816 35.4307 216.23 35.626C215.654 35.8115 215.186 36.0703 214.824 36.4023C214.473 36.7344 214.297 37.1641 214.297 37.6914V39.4785H230V44.5469C230 45.123 229.873 45.6357 229.619 46.085C229.365 46.5244 229.014 46.9102 228.564 47.2422C228.115 47.5645 227.583 47.8428 226.968 48.0771C226.362 48.3018 225.703 48.4824 224.99 48.6191C224.287 48.7559 223.545 48.8535 222.764 48.9121C221.992 48.9707 221.221 49 220.449 49C219.268 49 218.125 48.9316 217.021 48.7949C215.918 48.6484 214.927 48.4092 214.048 48.0771C213.169 47.7354 212.446 47.2812 211.88 46.7148C211.323 46.1387 210.996 45.416 210.898 44.5469L214.297 43.6094C214.297 44.1465 214.473 44.5811 214.824 44.9131C215.186 45.2451 215.654 45.5039 216.23 45.6895C216.816 45.875 217.476 46.002 218.208 46.0703C218.95 46.1289 219.697 46.1582 220.449 46.1582C221.23 46.1582 221.992 46.124 222.734 46.0557C223.477 45.9775 224.131 45.8457 224.697 45.6602C225.273 45.4648 225.732 45.2061 226.074 44.8838C226.426 44.5518 226.602 44.127 226.602 43.6094V41.8223H210.898V36.7539C210.898 36.1777 211.025 35.6699 211.279 35.2305C211.533 34.7812 211.88 34.3955 212.319 34.0732C212.769 33.7412 213.296 33.4629 213.901 33.2383C214.507 33.0039 215.161 32.8184 215.864 32.6816C216.577 32.5449 217.319 32.4473 218.091 32.3887C218.872 32.3301 219.658 32.3008 220.449 32.3008ZM238.994 32.0957H242.715V34.5566H238.994V49H235.508V34.5566H232.754V32.0957H235.508V26.998H238.994V32.0957Z" fill="#1E1E1E"/>
<defs>
<linearGradient id="paint0_linear_11_19" x1="61.5886" y1="70" x2="8.41145" y2="3.35482e-06" gradientUnits="userSpaceOnUse">
<stop stop-color="#9876E2"/>
<stop offset="1" stop-color="#482496"/>
</linearGradient>
</defs>
</svg>
