<svg width="58" height="42" viewBox="0 0 58 42" fill="none" xmlns="http://www.w3.org/2000/svg">
<path d="M30.285 41.945L18.3856 41.7172C14.5329 41.6378 10.6705 41.7962 6.89332 40.9738C1.14732 39.745 0.740254 33.7198 0.314302 28.6658C-0.272617 21.5605 -0.0454032 14.3263 1.06219 7.28032C1.68746 3.3268 4.14816 0.967705 7.95355 0.710991C20.7995 -0.220663 33.7309 -0.110252 46.5484 0.324398C47.9021 0.364243 49.2651 0.582025 50.5999 0.829918C57.1888 2.03897 57.3495 8.86684 57.7766 14.6146C58.2026 20.4217 58.0227 26.2586 57.2086 32.0262C56.5554 36.8016 55.3057 40.8062 50.0319 41.1928C43.4241 41.6983 36.968 42.1053 30.3416 41.9757C30.3419 41.945 30.3038 41.945 30.285 41.945ZM23.2893 29.8551C28.2688 26.8621 33.1533 23.919 38.1043 20.9461C33.1155 17.9531 28.2403 15.01 23.2893 12.0371V29.8551Z" fill="#FF0000"/>
</svg>
